G04 #@! TF.GenerationSoftware,KiCad,Pcbnew,(5.0.0)*
G04 #@! TF.CreationDate,2018-10-09T09:06:12+02:00*
G04 #@! TF.ProjectId,LiberPlayer,4C69626572506C617965722E6B696361,1.0*
G04 #@! TF.SameCoordinates,Original*
G04 #@! TF.FileFunction,Legend,Top*
G04 #@! TF.FilePolarity,Positive*
%FSLAX46Y46*%
G04 Gerber Fmt 4.6, Leading zero omitted, Abs format (unit mm)*
G04 Created by KiCad (PCBNEW (5.0.0)) date 10/09/18 09:06:12*
%MOMM*%
%LPD*%
G01*
G04 APERTURE LIST*
%ADD10C,0.300000*%
%ADD11C,0.120000*%
%ADD12C,0.150000*%
%ADD13C,0.010000*%
G04 APERTURE END LIST*
D10*
X131100000Y-91412142D02*
X131314285Y-91483571D01*
X131671428Y-91483571D01*
X131814285Y-91412142D01*
X131885714Y-91340714D01*
X131957142Y-91197857D01*
X131957142Y-91055000D01*
X131885714Y-90912142D01*
X131814285Y-90840714D01*
X131671428Y-90769285D01*
X131385714Y-90697857D01*
X131242857Y-90626428D01*
X131171428Y-90555000D01*
X131100000Y-90412142D01*
X131100000Y-90269285D01*
X131171428Y-90126428D01*
X131242857Y-90055000D01*
X131385714Y-89983571D01*
X131742857Y-89983571D01*
X131957142Y-90055000D01*
X133457142Y-91340714D02*
X133385714Y-91412142D01*
X133171428Y-91483571D01*
X133028571Y-91483571D01*
X132814285Y-91412142D01*
X132671428Y-91269285D01*
X132600000Y-91126428D01*
X132528571Y-90840714D01*
X132528571Y-90626428D01*
X132600000Y-90340714D01*
X132671428Y-90197857D01*
X132814285Y-90055000D01*
X133028571Y-89983571D01*
X133171428Y-89983571D01*
X133385714Y-90055000D01*
X133457142Y-90126428D01*
X134028571Y-91412142D02*
X134242857Y-91483571D01*
X134600000Y-91483571D01*
X134742857Y-91412142D01*
X134814285Y-91340714D01*
X134885714Y-91197857D01*
X134885714Y-91055000D01*
X134814285Y-90912142D01*
X134742857Y-90840714D01*
X134600000Y-90769285D01*
X134314285Y-90697857D01*
X134171428Y-90626428D01*
X134100000Y-90555000D01*
X134028571Y-90412142D01*
X134028571Y-90269285D01*
X134100000Y-90126428D01*
X134171428Y-90055000D01*
X134314285Y-89983571D01*
X134671428Y-89983571D01*
X134885714Y-90055000D01*
X135528571Y-91483571D02*
X135528571Y-89983571D01*
X127667142Y-69893571D02*
X127167142Y-69179285D01*
X126810000Y-69893571D02*
X126810000Y-68393571D01*
X127381428Y-68393571D01*
X127524285Y-68465000D01*
X127595714Y-68536428D01*
X127667142Y-68679285D01*
X127667142Y-68893571D01*
X127595714Y-69036428D01*
X127524285Y-69107857D01*
X127381428Y-69179285D01*
X126810000Y-69179285D01*
X128238571Y-69822142D02*
X128452857Y-69893571D01*
X128810000Y-69893571D01*
X128952857Y-69822142D01*
X129024285Y-69750714D01*
X129095714Y-69607857D01*
X129095714Y-69465000D01*
X129024285Y-69322142D01*
X128952857Y-69250714D01*
X128810000Y-69179285D01*
X128524285Y-69107857D01*
X128381428Y-69036428D01*
X128310000Y-68965000D01*
X128238571Y-68822142D01*
X128238571Y-68679285D01*
X128310000Y-68536428D01*
X128381428Y-68465000D01*
X128524285Y-68393571D01*
X128881428Y-68393571D01*
X129095714Y-68465000D01*
X129667142Y-68536428D02*
X129738571Y-68465000D01*
X129881428Y-68393571D01*
X130238571Y-68393571D01*
X130381428Y-68465000D01*
X130452857Y-68536428D01*
X130524285Y-68679285D01*
X130524285Y-68822142D01*
X130452857Y-69036428D01*
X129595714Y-69893571D01*
X130524285Y-69893571D01*
X131024285Y-68393571D02*
X131952857Y-68393571D01*
X131452857Y-68965000D01*
X131667142Y-68965000D01*
X131810000Y-69036428D01*
X131881428Y-69107857D01*
X131952857Y-69250714D01*
X131952857Y-69607857D01*
X131881428Y-69750714D01*
X131810000Y-69822142D01*
X131667142Y-69893571D01*
X131238571Y-69893571D01*
X131095714Y-69822142D01*
X131024285Y-69750714D01*
X132524285Y-68536428D02*
X132595714Y-68465000D01*
X132738571Y-68393571D01*
X133095714Y-68393571D01*
X133238571Y-68465000D01*
X133310000Y-68536428D01*
X133381428Y-68679285D01*
X133381428Y-68822142D01*
X133310000Y-69036428D01*
X132452857Y-69893571D01*
X133381428Y-69893571D01*
X134881428Y-69750714D02*
X134810000Y-69822142D01*
X134595714Y-69893571D01*
X134452857Y-69893571D01*
X134238571Y-69822142D01*
X134095714Y-69679285D01*
X134024285Y-69536428D01*
X133952857Y-69250714D01*
X133952857Y-69036428D01*
X134024285Y-68750714D01*
X134095714Y-68607857D01*
X134238571Y-68465000D01*
X134452857Y-68393571D01*
X134595714Y-68393571D01*
X134810000Y-68465000D01*
X134881428Y-68536428D01*
X193937142Y-86260714D02*
X193865714Y-86332142D01*
X193651428Y-86403571D01*
X193508571Y-86403571D01*
X193294285Y-86332142D01*
X193151428Y-86189285D01*
X193080000Y-86046428D01*
X193008571Y-85760714D01*
X193008571Y-85546428D01*
X193080000Y-85260714D01*
X193151428Y-85117857D01*
X193294285Y-84975000D01*
X193508571Y-84903571D01*
X193651428Y-84903571D01*
X193865714Y-84975000D01*
X193937142Y-85046428D01*
X194365714Y-84903571D02*
X194865714Y-86403571D01*
X195365714Y-84903571D01*
X196365714Y-85617857D02*
X196580000Y-85689285D01*
X196651428Y-85760714D01*
X196722857Y-85903571D01*
X196722857Y-86117857D01*
X196651428Y-86260714D01*
X196580000Y-86332142D01*
X196437142Y-86403571D01*
X195865714Y-86403571D01*
X195865714Y-84903571D01*
X196365714Y-84903571D01*
X196508571Y-84975000D01*
X196580000Y-85046428D01*
X196651428Y-85189285D01*
X196651428Y-85332142D01*
X196580000Y-85475000D01*
X196508571Y-85546428D01*
X196365714Y-85617857D01*
X195865714Y-85617857D01*
X197294285Y-86332142D02*
X197508571Y-86403571D01*
X197865714Y-86403571D01*
X198008571Y-86332142D01*
X198080000Y-86260714D01*
X198151428Y-86117857D01*
X198151428Y-85975000D01*
X198080000Y-85832142D01*
X198008571Y-85760714D01*
X197865714Y-85689285D01*
X197580000Y-85617857D01*
X197437142Y-85546428D01*
X197365714Y-85475000D01*
X197294285Y-85332142D01*
X197294285Y-85189285D01*
X197365714Y-85046428D01*
X197437142Y-84975000D01*
X197580000Y-84903571D01*
X197937142Y-84903571D01*
X198151428Y-84975000D01*
X178669285Y-71798571D02*
X178169285Y-71084285D01*
X177812142Y-71798571D02*
X177812142Y-70298571D01*
X178383571Y-70298571D01*
X178526428Y-70370000D01*
X178597857Y-70441428D01*
X178669285Y-70584285D01*
X178669285Y-70798571D01*
X178597857Y-70941428D01*
X178526428Y-71012857D01*
X178383571Y-71084285D01*
X177812142Y-71084285D01*
X180097857Y-70370000D02*
X179955000Y-70298571D01*
X179740714Y-70298571D01*
X179526428Y-70370000D01*
X179383571Y-70512857D01*
X179312142Y-70655714D01*
X179240714Y-70941428D01*
X179240714Y-71155714D01*
X179312142Y-71441428D01*
X179383571Y-71584285D01*
X179526428Y-71727142D01*
X179740714Y-71798571D01*
X179883571Y-71798571D01*
X180097857Y-71727142D01*
X180169285Y-71655714D01*
X180169285Y-71155714D01*
X179883571Y-71155714D01*
X181312142Y-71012857D02*
X181526428Y-71084285D01*
X181597857Y-71155714D01*
X181669285Y-71298571D01*
X181669285Y-71512857D01*
X181597857Y-71655714D01*
X181526428Y-71727142D01*
X181383571Y-71798571D01*
X180812142Y-71798571D01*
X180812142Y-70298571D01*
X181312142Y-70298571D01*
X181455000Y-70370000D01*
X181526428Y-70441428D01*
X181597857Y-70584285D01*
X181597857Y-70727142D01*
X181526428Y-70870000D01*
X181455000Y-70941428D01*
X181312142Y-71012857D01*
X180812142Y-71012857D01*
X139815714Y-123868571D02*
X139815714Y-122368571D01*
X140387142Y-122368571D01*
X140530000Y-122440000D01*
X140601428Y-122511428D01*
X140672857Y-122654285D01*
X140672857Y-122868571D01*
X140601428Y-123011428D01*
X140530000Y-123082857D01*
X140387142Y-123154285D01*
X139815714Y-123154285D01*
X141315714Y-123868571D02*
X141315714Y-122868571D01*
X141315714Y-123154285D02*
X141387142Y-123011428D01*
X141458571Y-122940000D01*
X141601428Y-122868571D01*
X141744285Y-122868571D01*
X142458571Y-123868571D02*
X142315714Y-123797142D01*
X142244285Y-123725714D01*
X142172857Y-123582857D01*
X142172857Y-123154285D01*
X142244285Y-123011428D01*
X142315714Y-122940000D01*
X142458571Y-122868571D01*
X142672857Y-122868571D01*
X142815714Y-122940000D01*
X142887142Y-123011428D01*
X142958571Y-123154285D01*
X142958571Y-123582857D01*
X142887142Y-123725714D01*
X142815714Y-123797142D01*
X142672857Y-123868571D01*
X142458571Y-123868571D01*
X143387142Y-122868571D02*
X143958571Y-122868571D01*
X143601428Y-122368571D02*
X143601428Y-123654285D01*
X143672857Y-123797142D01*
X143815714Y-123868571D01*
X143958571Y-123868571D01*
X144672857Y-123868571D02*
X144530000Y-123797142D01*
X144458571Y-123725714D01*
X144387142Y-123582857D01*
X144387142Y-123154285D01*
X144458571Y-123011428D01*
X144530000Y-122940000D01*
X144672857Y-122868571D01*
X144887142Y-122868571D01*
X145030000Y-122940000D01*
X145101428Y-123011428D01*
X145172857Y-123154285D01*
X145172857Y-123582857D01*
X145101428Y-123725714D01*
X145030000Y-123797142D01*
X144887142Y-123868571D01*
X144672857Y-123868571D01*
X145601428Y-122868571D02*
X146172857Y-122868571D01*
X145815714Y-122368571D02*
X145815714Y-123654285D01*
X145887142Y-123797142D01*
X146030000Y-123868571D01*
X146172857Y-123868571D01*
X146530000Y-122868571D02*
X146887142Y-123868571D01*
X147244285Y-122868571D02*
X146887142Y-123868571D01*
X146744285Y-124225714D01*
X146672857Y-124297142D01*
X146530000Y-124368571D01*
X147815714Y-122868571D02*
X147815714Y-124368571D01*
X147815714Y-122940000D02*
X147958571Y-122868571D01*
X148244285Y-122868571D01*
X148387142Y-122940000D01*
X148458571Y-123011428D01*
X148530000Y-123154285D01*
X148530000Y-123582857D01*
X148458571Y-123725714D01*
X148387142Y-123797142D01*
X148244285Y-123868571D01*
X147958571Y-123868571D01*
X147815714Y-123797142D01*
X149744285Y-123797142D02*
X149601428Y-123868571D01*
X149315714Y-123868571D01*
X149172857Y-123797142D01*
X149101428Y-123654285D01*
X149101428Y-123082857D01*
X149172857Y-122940000D01*
X149315714Y-122868571D01*
X149601428Y-122868571D01*
X149744285Y-122940000D01*
X149815714Y-123082857D01*
X149815714Y-123225714D01*
X149101428Y-123368571D01*
X103737857Y-138410000D02*
X103666428Y-138338571D01*
X103523571Y-138124285D01*
X103452142Y-137981428D01*
X103380714Y-137767142D01*
X103309285Y-137410000D01*
X103309285Y-137124285D01*
X103380714Y-136767142D01*
X103452142Y-136552857D01*
X103523571Y-136410000D01*
X103666428Y-136195714D01*
X103737857Y-136124285D01*
X104952142Y-137767142D02*
X104809285Y-137838571D01*
X104523571Y-137838571D01*
X104380714Y-137767142D01*
X104309285Y-137695714D01*
X104237857Y-137552857D01*
X104237857Y-137124285D01*
X104309285Y-136981428D01*
X104380714Y-136910000D01*
X104523571Y-136838571D01*
X104809285Y-136838571D01*
X104952142Y-136910000D01*
X105452142Y-138410000D02*
X105523571Y-138338571D01*
X105666428Y-138124285D01*
X105737857Y-137981428D01*
X105809285Y-137767142D01*
X105880714Y-137410000D01*
X105880714Y-137124285D01*
X105809285Y-136767142D01*
X105737857Y-136552857D01*
X105666428Y-136410000D01*
X105523571Y-136195714D01*
X105452142Y-136124285D01*
X107666428Y-136481428D02*
X107737857Y-136410000D01*
X107880714Y-136338571D01*
X108237857Y-136338571D01*
X108380714Y-136410000D01*
X108452142Y-136481428D01*
X108523571Y-136624285D01*
X108523571Y-136767142D01*
X108452142Y-136981428D01*
X107595000Y-137838571D01*
X108523571Y-137838571D01*
X109452142Y-136338571D02*
X109595000Y-136338571D01*
X109737857Y-136410000D01*
X109809285Y-136481428D01*
X109880714Y-136624285D01*
X109952142Y-136910000D01*
X109952142Y-137267142D01*
X109880714Y-137552857D01*
X109809285Y-137695714D01*
X109737857Y-137767142D01*
X109595000Y-137838571D01*
X109452142Y-137838571D01*
X109309285Y-137767142D01*
X109237857Y-137695714D01*
X109166428Y-137552857D01*
X109095000Y-137267142D01*
X109095000Y-136910000D01*
X109166428Y-136624285D01*
X109237857Y-136481428D01*
X109309285Y-136410000D01*
X109452142Y-136338571D01*
X111380714Y-137838571D02*
X110523571Y-137838571D01*
X110952142Y-137838571D02*
X110952142Y-136338571D01*
X110809285Y-136552857D01*
X110666428Y-136695714D01*
X110523571Y-136767142D01*
X112237857Y-136981428D02*
X112095000Y-136910000D01*
X112023571Y-136838571D01*
X111952142Y-136695714D01*
X111952142Y-136624285D01*
X112023571Y-136481428D01*
X112095000Y-136410000D01*
X112237857Y-136338571D01*
X112523571Y-136338571D01*
X112666428Y-136410000D01*
X112737857Y-136481428D01*
X112809285Y-136624285D01*
X112809285Y-136695714D01*
X112737857Y-136838571D01*
X112666428Y-136910000D01*
X112523571Y-136981428D01*
X112237857Y-136981428D01*
X112095000Y-137052857D01*
X112023571Y-137124285D01*
X111952142Y-137267142D01*
X111952142Y-137552857D01*
X112023571Y-137695714D01*
X112095000Y-137767142D01*
X112237857Y-137838571D01*
X112523571Y-137838571D01*
X112666428Y-137767142D01*
X112737857Y-137695714D01*
X112809285Y-137552857D01*
X112809285Y-137267142D01*
X112737857Y-137124285D01*
X112666428Y-137052857D01*
X112523571Y-136981428D01*
X114523571Y-137767142D02*
X114737857Y-137838571D01*
X115094999Y-137838571D01*
X115237857Y-137767142D01*
X115309285Y-137695714D01*
X115380714Y-137552857D01*
X115380714Y-137410000D01*
X115309285Y-137267142D01*
X115237857Y-137195714D01*
X115094999Y-137124285D01*
X114809285Y-137052857D01*
X114666428Y-136981428D01*
X114594999Y-136910000D01*
X114523571Y-136767142D01*
X114523571Y-136624285D01*
X114594999Y-136481428D01*
X114666428Y-136410000D01*
X114809285Y-136338571D01*
X115166428Y-136338571D01*
X115380714Y-136410000D01*
X116023571Y-137838571D02*
X116023571Y-136838571D01*
X116023571Y-136338571D02*
X115952142Y-136410000D01*
X116023571Y-136481428D01*
X116095000Y-136410000D01*
X116023571Y-136338571D01*
X116023571Y-136481428D01*
X116737857Y-137838571D02*
X116737857Y-136838571D01*
X116737857Y-136981428D02*
X116809285Y-136910000D01*
X116952142Y-136838571D01*
X117166428Y-136838571D01*
X117309285Y-136910000D01*
X117380714Y-137052857D01*
X117380714Y-137838571D01*
X117380714Y-137052857D02*
X117452142Y-136910000D01*
X117595000Y-136838571D01*
X117809285Y-136838571D01*
X117952142Y-136910000D01*
X118023571Y-137052857D01*
X118023571Y-137838571D01*
X118952142Y-137838571D02*
X118809285Y-137767142D01*
X118737857Y-137695714D01*
X118666428Y-137552857D01*
X118666428Y-137124285D01*
X118737857Y-136981428D01*
X118809285Y-136910000D01*
X118952142Y-136838571D01*
X119166428Y-136838571D01*
X119309285Y-136910000D01*
X119380714Y-136981428D01*
X119452142Y-137124285D01*
X119452142Y-137552857D01*
X119380714Y-137695714D01*
X119309285Y-137767142D01*
X119166428Y-137838571D01*
X118952142Y-137838571D01*
X120095000Y-136838571D02*
X120095000Y-137838571D01*
X120095000Y-136981428D02*
X120166428Y-136910000D01*
X120309285Y-136838571D01*
X120523571Y-136838571D01*
X120666428Y-136910000D01*
X120737857Y-137052857D01*
X120737857Y-137838571D01*
X122595000Y-137838571D02*
X122595000Y-136338571D01*
X123309285Y-136838571D02*
X123309285Y-137838571D01*
X123309285Y-136981428D02*
X123380714Y-136910000D01*
X123523571Y-136838571D01*
X123737857Y-136838571D01*
X123880714Y-136910000D01*
X123952142Y-137052857D01*
X123952142Y-137838571D01*
X124666428Y-136838571D02*
X124666428Y-137838571D01*
X124666428Y-136981428D02*
X124737857Y-136910000D01*
X124880714Y-136838571D01*
X125095000Y-136838571D01*
X125237857Y-136910000D01*
X125309285Y-137052857D01*
X125309285Y-137838571D01*
X125952142Y-137767142D02*
X126095000Y-137838571D01*
X126380714Y-137838571D01*
X126523571Y-137767142D01*
X126595000Y-137624285D01*
X126595000Y-137552857D01*
X126523571Y-137410000D01*
X126380714Y-137338571D01*
X126166428Y-137338571D01*
X126023571Y-137267142D01*
X125952142Y-137124285D01*
X125952142Y-137052857D01*
X126023571Y-136910000D01*
X126166428Y-136838571D01*
X126380714Y-136838571D01*
X126523571Y-136910000D01*
X128380714Y-137267142D02*
X129523571Y-137267142D01*
X132237857Y-137695714D02*
X132166428Y-137767142D01*
X131952142Y-137838571D01*
X131809285Y-137838571D01*
X131594999Y-137767142D01*
X131452142Y-137624285D01*
X131380714Y-137481428D01*
X131309285Y-137195714D01*
X131309285Y-136981428D01*
X131380714Y-136695714D01*
X131452142Y-136552857D01*
X131594999Y-136410000D01*
X131809285Y-136338571D01*
X131952142Y-136338571D01*
X132166428Y-136410000D01*
X132237857Y-136481428D01*
X133737857Y-137695714D02*
X133666428Y-137767142D01*
X133452142Y-137838571D01*
X133309285Y-137838571D01*
X133094999Y-137767142D01*
X132952142Y-137624285D01*
X132880714Y-137481428D01*
X132809285Y-137195714D01*
X132809285Y-136981428D01*
X132880714Y-136695714D01*
X132952142Y-136552857D01*
X133094999Y-136410000D01*
X133309285Y-136338571D01*
X133452142Y-136338571D01*
X133666428Y-136410000D01*
X133737857Y-136481428D01*
X135452142Y-137767142D02*
X135666428Y-137838571D01*
X136023571Y-137838571D01*
X136166428Y-137767142D01*
X136237857Y-137695714D01*
X136309285Y-137552857D01*
X136309285Y-137410000D01*
X136237857Y-137267142D01*
X136166428Y-137195714D01*
X136023571Y-137124285D01*
X135737857Y-137052857D01*
X135595000Y-136981428D01*
X135523571Y-136910000D01*
X135452142Y-136767142D01*
X135452142Y-136624285D01*
X135523571Y-136481428D01*
X135595000Y-136410000D01*
X135737857Y-136338571D01*
X136095000Y-136338571D01*
X136309285Y-136410000D01*
X136880714Y-137410000D02*
X137595000Y-137410000D01*
X136737857Y-137838571D02*
X137237857Y-136338571D01*
X137737857Y-137838571D01*
X138237857Y-137267142D02*
X139380714Y-137267142D01*
X140595000Y-137052857D02*
X140809285Y-137124285D01*
X140880714Y-137195714D01*
X140952142Y-137338571D01*
X140952142Y-137552857D01*
X140880714Y-137695714D01*
X140809285Y-137767142D01*
X140666428Y-137838571D01*
X140095000Y-137838571D01*
X140095000Y-136338571D01*
X140595000Y-136338571D01*
X140737857Y-136410000D01*
X140809285Y-136481428D01*
X140880714Y-136624285D01*
X140880714Y-136767142D01*
X140809285Y-136910000D01*
X140737857Y-136981428D01*
X140595000Y-137052857D01*
X140095000Y-137052857D01*
X141880714Y-137124285D02*
X141880714Y-137838571D01*
X141380714Y-136338571D02*
X141880714Y-137124285D01*
X142380714Y-136338571D01*
X144666428Y-136838571D02*
X144666428Y-137838571D01*
X144309285Y-136267142D02*
X143952142Y-137338571D01*
X144880714Y-137338571D01*
X145452142Y-137695714D02*
X145523571Y-137767142D01*
X145452142Y-137838571D01*
X145380714Y-137767142D01*
X145452142Y-137695714D01*
X145452142Y-137838571D01*
X146452142Y-136338571D02*
X146594999Y-136338571D01*
X146737857Y-136410000D01*
X146809285Y-136481428D01*
X146880714Y-136624285D01*
X146952142Y-136910000D01*
X146952142Y-137267142D01*
X146880714Y-137552857D01*
X146809285Y-137695714D01*
X146737857Y-137767142D01*
X146594999Y-137838571D01*
X146452142Y-137838571D01*
X146309285Y-137767142D01*
X146237857Y-137695714D01*
X146166428Y-137552857D01*
X146094999Y-137267142D01*
X146094999Y-136910000D01*
X146166428Y-136624285D01*
X146237857Y-136481428D01*
X146309285Y-136410000D01*
X146452142Y-136338571D01*
D11*
G04 #@! TO.C,C201*
X168533578Y-118235001D02*
X168016422Y-118235001D01*
X168533578Y-119655001D02*
X168016422Y-119655001D01*
G04 #@! TO.C,C202*
X168533578Y-122630000D02*
X168016422Y-122630000D01*
X168533578Y-121210000D02*
X168016422Y-121210000D01*
G04 #@! TO.C,C203*
X177240000Y-111383578D02*
X177240000Y-110866422D01*
X175820000Y-111383578D02*
X175820000Y-110866422D01*
G04 #@! TO.C,C204*
X189606422Y-125170000D02*
X190123578Y-125170000D01*
X189606422Y-123750000D02*
X190123578Y-123750000D01*
G04 #@! TO.C,C205*
X189606422Y-116130000D02*
X190123578Y-116130000D01*
X189606422Y-117550000D02*
X190123578Y-117550000D01*
G04 #@! TO.C,C206*
X187885000Y-105668578D02*
X187885000Y-105151422D01*
X189305000Y-105668578D02*
X189305000Y-105151422D01*
G04 #@! TO.C,C207*
X189606422Y-118670000D02*
X190123578Y-118670000D01*
X189606422Y-120090000D02*
X190123578Y-120090000D01*
G04 #@! TO.C,C208*
X186130000Y-105668578D02*
X186130000Y-105151422D01*
X184710000Y-105668578D02*
X184710000Y-105151422D01*
G04 #@! TO.C,C209*
X183256422Y-132155000D02*
X183773578Y-132155000D01*
X183256422Y-130735000D02*
X183773578Y-130735000D01*
G04 #@! TO.C,C210*
X181535000Y-105668578D02*
X181535000Y-105151422D01*
X182955000Y-105668578D02*
X182955000Y-105151422D01*
G04 #@! TO.C,C211*
X179145000Y-111383578D02*
X179145000Y-110866422D01*
X177725000Y-111383578D02*
X177725000Y-110866422D01*
G04 #@! TO.C,C212*
X194686422Y-123750000D02*
X195203578Y-123750000D01*
X194686422Y-125170000D02*
X195203578Y-125170000D01*
G04 #@! TO.C,C213*
X194686422Y-115645000D02*
X195203578Y-115645000D01*
X194686422Y-114225000D02*
X195203578Y-114225000D01*
G04 #@! TO.C,C214*
X179630000Y-111383578D02*
X179630000Y-110866422D01*
X181050000Y-111383578D02*
X181050000Y-110866422D01*
G04 #@! TO.C,C215*
X179780000Y-105668578D02*
X179780000Y-105151422D01*
X178360000Y-105668578D02*
X178360000Y-105151422D01*
G04 #@! TO.C,C216*
X169470000Y-129281422D02*
X169470000Y-129798578D01*
X170890000Y-129281422D02*
X170890000Y-129798578D01*
G04 #@! TO.C,C217*
X175185000Y-105668578D02*
X175185000Y-105151422D01*
X176605000Y-105668578D02*
X176605000Y-105151422D01*
G04 #@! TO.C,C218*
X183440000Y-111383578D02*
X183440000Y-110866422D01*
X184860000Y-111383578D02*
X184860000Y-110866422D01*
G04 #@! TO.C,C219*
X173430000Y-105668578D02*
X173430000Y-105151422D01*
X172010000Y-105668578D02*
X172010000Y-105151422D01*
G04 #@! TO.C,C220*
X174700000Y-111383578D02*
X174700000Y-110866422D01*
X173280000Y-111383578D02*
X173280000Y-110866422D01*
G04 #@! TO.C,C221*
X178510000Y-132456422D02*
X178510000Y-132973578D01*
X177090000Y-132456422D02*
X177090000Y-132973578D01*
G04 #@! TO.C,C222*
X182955000Y-111383578D02*
X182955000Y-110866422D01*
X181535000Y-111383578D02*
X181535000Y-110866422D01*
G04 #@! TO.C,C223*
X168533578Y-126440000D02*
X168016422Y-126440000D01*
X168533578Y-125020000D02*
X168016422Y-125020000D01*
G04 #@! TO.C,C224*
X189606422Y-127710000D02*
X190123578Y-127710000D01*
X189606422Y-126290000D02*
X190123578Y-126290000D01*
G04 #@! TO.C,C225*
X168533578Y-116915000D02*
X168016422Y-116915000D01*
X168533578Y-115495000D02*
X168016422Y-115495000D01*
G04 #@! TO.C,C301*
X148945000Y-112235000D02*
X148945000Y-104175000D01*
X148945000Y-104175000D02*
X144425000Y-104175000D01*
X144425000Y-104175000D02*
X144425000Y-112235000D01*
G04 #@! TO.C,C302*
X153928578Y-114375000D02*
X153411422Y-114375000D01*
X153928578Y-112955000D02*
X153411422Y-112955000D01*
G04 #@! TO.C,C303*
X153928578Y-102795000D02*
X153411422Y-102795000D01*
X153928578Y-104215000D02*
X153411422Y-104215000D01*
G04 #@! TO.C,C304*
X168750000Y-103150000D02*
X160690000Y-103150000D01*
X160690000Y-103150000D02*
X160690000Y-107670000D01*
X160690000Y-107670000D02*
X168750000Y-107670000D01*
G04 #@! TO.C,C305*
X160690000Y-112750000D02*
X168750000Y-112750000D01*
X160690000Y-108230000D02*
X160690000Y-112750000D01*
X168750000Y-108230000D02*
X160690000Y-108230000D01*
G04 #@! TO.C,C401*
X171826422Y-91365000D02*
X172343578Y-91365000D01*
X171826422Y-92785000D02*
X172343578Y-92785000D01*
G04 #@! TO.C,C402*
X180081422Y-92785000D02*
X180598578Y-92785000D01*
X180081422Y-91365000D02*
X180598578Y-91365000D01*
G04 #@! TO.C,C403*
X187701422Y-91365000D02*
X188218578Y-91365000D01*
X187701422Y-92785000D02*
X188218578Y-92785000D01*
G04 #@! TO.C,C404*
X195321422Y-91365000D02*
X195838578Y-91365000D01*
X195321422Y-92785000D02*
X195838578Y-92785000D01*
G04 #@! TO.C,C405*
X171826422Y-95325000D02*
X172343578Y-95325000D01*
X171826422Y-93905000D02*
X172343578Y-93905000D01*
G04 #@! TO.C,C406*
X180081422Y-95325000D02*
X180598578Y-95325000D01*
X180081422Y-93905000D02*
X180598578Y-93905000D01*
G04 #@! TO.C,C407*
X187701422Y-93905000D02*
X188218578Y-93905000D01*
X187701422Y-95325000D02*
X188218578Y-95325000D01*
G04 #@! TO.C,C408*
X195321422Y-95325000D02*
X195838578Y-95325000D01*
X195321422Y-93905000D02*
X195838578Y-93905000D01*
G04 #@! TO.C,C409*
X171826422Y-96445000D02*
X172343578Y-96445000D01*
X171826422Y-97865000D02*
X172343578Y-97865000D01*
G04 #@! TO.C,C410*
X180081422Y-97865000D02*
X180598578Y-97865000D01*
X180081422Y-96445000D02*
X180598578Y-96445000D01*
G04 #@! TO.C,C411*
X187701422Y-97865000D02*
X188218578Y-97865000D01*
X187701422Y-96445000D02*
X188218578Y-96445000D01*
G04 #@! TO.C,C412*
X195321422Y-96445000D02*
X195838578Y-96445000D01*
X195321422Y-97865000D02*
X195838578Y-97865000D01*
G04 #@! TO.C,C413*
X168200000Y-99953578D02*
X168200000Y-99436422D01*
X169620000Y-99953578D02*
X169620000Y-99436422D01*
G04 #@! TO.C,C414*
X177875000Y-99953578D02*
X177875000Y-99436422D01*
X176455000Y-99953578D02*
X176455000Y-99436422D01*
G04 #@! TO.C,C415*
X184075000Y-99953578D02*
X184075000Y-99436422D01*
X185495000Y-99953578D02*
X185495000Y-99436422D01*
G04 #@! TO.C,C416*
X193115000Y-99953578D02*
X193115000Y-99436422D01*
X191695000Y-99953578D02*
X191695000Y-99436422D01*
G04 #@! TO.C,C501*
X117400000Y-103763578D02*
X117400000Y-103246422D01*
X118820000Y-103763578D02*
X118820000Y-103246422D01*
G04 #@! TO.C,C502*
X139140000Y-101858578D02*
X139140000Y-101341422D01*
X137720000Y-101858578D02*
X137720000Y-101341422D01*
G04 #@! TO.C,C701*
X161666422Y-76760000D02*
X162183578Y-76760000D01*
X161666422Y-78180000D02*
X162183578Y-78180000D01*
G04 #@! TO.C,C702*
X165476422Y-78180000D02*
X165993578Y-78180000D01*
X165476422Y-76760000D02*
X165993578Y-76760000D01*
G04 #@! TO.C,C703*
X172795000Y-72648578D02*
X172795000Y-72131422D01*
X171375000Y-72648578D02*
X171375000Y-72131422D01*
G04 #@! TO.C,C704*
X160095000Y-72131422D02*
X160095000Y-72648578D01*
X158675000Y-72131422D02*
X158675000Y-72648578D01*
G04 #@! TO.C,C705*
X161031422Y-66600000D02*
X161548578Y-66600000D01*
X161031422Y-68020000D02*
X161548578Y-68020000D01*
D12*
G04 #@! TO.C,J401*
X175785000Y-64930000D02*
X193785000Y-64930000D01*
X175785000Y-64930000D02*
X174285000Y-64930000D01*
X174285000Y-64930000D02*
X174285000Y-65930000D01*
X174285000Y-65930000D02*
X175785000Y-65930000D01*
X175785000Y-65930000D02*
X175785000Y-66930000D01*
X175785000Y-66930000D02*
X176785000Y-66930000D01*
X176785000Y-66930000D02*
X176785000Y-67430000D01*
X193785000Y-66930000D02*
X192785000Y-66930000D01*
X192785000Y-66930000D02*
X192785000Y-67430000D01*
X193785000Y-65930000D02*
X195285000Y-65930000D01*
X195285000Y-65930000D02*
X195285000Y-66930000D01*
X195285000Y-66930000D02*
X193785000Y-66930000D01*
X193785000Y-83930000D02*
X193785000Y-67430000D01*
X175785000Y-83930000D02*
X175785000Y-67430000D01*
X193785000Y-64930000D02*
X193785000Y-65930000D01*
X192785000Y-67430000D02*
X193785000Y-67430000D01*
X175785000Y-67430000D02*
X176785000Y-67430000D01*
X176785000Y-67430000D02*
X192785000Y-67430000D01*
X190785000Y-83930000D02*
X190785000Y-81430000D01*
X190785000Y-81430000D02*
X187285000Y-81430000D01*
X187285000Y-81430000D02*
X187285000Y-83930000D01*
X182285000Y-83930000D02*
X182285000Y-81430000D01*
X182285000Y-81430000D02*
X178785000Y-81430000D01*
X178785000Y-81430000D02*
X178785000Y-83930000D01*
X175785000Y-83930000D02*
X178785000Y-83930000D01*
X182285000Y-83930000D02*
X187285000Y-83930000D01*
X190785000Y-83930000D02*
X193785000Y-83930000D01*
D11*
G04 #@! TO.C,J402*
X197545000Y-76140000D02*
X194885000Y-76140000D01*
X197545000Y-78740000D02*
X197545000Y-76140000D01*
X194885000Y-78740000D02*
X194885000Y-76140000D01*
X197545000Y-78740000D02*
X194885000Y-78740000D01*
X197545000Y-80010000D02*
X197545000Y-81340000D01*
X197545000Y-81340000D02*
X196215000Y-81340000D01*
G04 #@! TO.C,J601*
X174260000Y-89130000D02*
X102600000Y-89130000D01*
X102600000Y-89130000D02*
X102600000Y-79780000D01*
X102600000Y-79780000D02*
X174260000Y-79780000D01*
X174260000Y-79780000D02*
X174260000Y-89130000D01*
X174510000Y-79530000D02*
X171970000Y-79530000D01*
X174510000Y-79530000D02*
X174510000Y-82070000D01*
G04 #@! TO.C,J701*
X155625000Y-65085000D02*
X155625000Y-77425000D01*
X155625000Y-77425000D02*
X102405000Y-77425000D01*
X102405000Y-77425000D02*
X102405000Y-65085000D01*
X112645000Y-78319338D02*
X112145000Y-78319338D01*
X112145000Y-78319338D02*
X112395000Y-77886325D01*
X112395000Y-77886325D02*
X112645000Y-78319338D01*
G04 #@! TO.C,JP101*
X160925000Y-134850000D02*
X101965000Y-134850000D01*
X101965000Y-134850000D02*
X101965000Y-125500000D01*
X101965000Y-125500000D02*
X160925000Y-125500000D01*
X160925000Y-125500000D02*
X160925000Y-134850000D01*
X161175000Y-125250000D02*
X158635000Y-125250000D01*
X161175000Y-125250000D02*
X161175000Y-127790000D01*
G04 #@! TO.C,L401*
X169620000Y-92333578D02*
X169620000Y-91816422D01*
X168200000Y-92333578D02*
X168200000Y-91816422D01*
G04 #@! TO.C,L402*
X177875000Y-92333578D02*
X177875000Y-91816422D01*
X176455000Y-92333578D02*
X176455000Y-91816422D01*
G04 #@! TO.C,L403*
X185495000Y-92333578D02*
X185495000Y-91816422D01*
X184075000Y-92333578D02*
X184075000Y-91816422D01*
G04 #@! TO.C,L404*
X191695000Y-92333578D02*
X191695000Y-91816422D01*
X193115000Y-92333578D02*
X193115000Y-91816422D01*
G04 #@! TO.C,L405*
X168200000Y-96143578D02*
X168200000Y-95626422D01*
X169620000Y-96143578D02*
X169620000Y-95626422D01*
G04 #@! TO.C,L406*
X176455000Y-96143578D02*
X176455000Y-95626422D01*
X177875000Y-96143578D02*
X177875000Y-95626422D01*
G04 #@! TO.C,L407*
X184075000Y-96143578D02*
X184075000Y-95626422D01*
X185495000Y-96143578D02*
X185495000Y-95626422D01*
G04 #@! TO.C,L408*
X193115000Y-96143578D02*
X193115000Y-95626422D01*
X191695000Y-96143578D02*
X191695000Y-95626422D01*
G04 #@! TO.C,R101*
X153595000Y-122931422D02*
X153595000Y-123448578D01*
X155015000Y-122931422D02*
X155015000Y-123448578D01*
G04 #@! TO.C,R102*
X156135000Y-122931422D02*
X156135000Y-123448578D01*
X157555000Y-122931422D02*
X157555000Y-123448578D01*
G04 #@! TO.C,R201*
X163453578Y-122630000D02*
X162936422Y-122630000D01*
X163453578Y-121210000D02*
X162936422Y-121210000D01*
G04 #@! TO.C,R202*
X163453578Y-125170000D02*
X162936422Y-125170000D01*
X163453578Y-123750000D02*
X162936422Y-123750000D01*
G04 #@! TO.C,R203*
X195203578Y-126290000D02*
X194686422Y-126290000D01*
X195203578Y-127710000D02*
X194686422Y-127710000D01*
G04 #@! TO.C,R204*
X195203578Y-130250000D02*
X194686422Y-130250000D01*
X195203578Y-128830000D02*
X194686422Y-128830000D01*
G04 #@! TO.C,R301*
X158675000Y-107691422D02*
X158675000Y-108208578D01*
X160095000Y-107691422D02*
X160095000Y-108208578D01*
G04 #@! TO.C,R401*
X177875000Y-86101422D02*
X177875000Y-86618578D01*
X176455000Y-86101422D02*
X176455000Y-86618578D01*
G04 #@! TO.C,R402*
X180265000Y-86101422D02*
X180265000Y-86618578D01*
X181685000Y-86101422D02*
X181685000Y-86618578D01*
G04 #@! TO.C,R403*
X185495000Y-86101422D02*
X185495000Y-86618578D01*
X184075000Y-86101422D02*
X184075000Y-86618578D01*
G04 #@! TO.C,R404*
X188520000Y-86101422D02*
X188520000Y-86618578D01*
X189940000Y-86101422D02*
X189940000Y-86618578D01*
G04 #@! TO.C,R405*
X172343578Y-100405000D02*
X171826422Y-100405000D01*
X172343578Y-98985000D02*
X171826422Y-98985000D01*
G04 #@! TO.C,R406*
X180598578Y-98985000D02*
X180081422Y-98985000D01*
X180598578Y-100405000D02*
X180081422Y-100405000D01*
G04 #@! TO.C,R407*
X188218578Y-100405000D02*
X187701422Y-100405000D01*
X188218578Y-98985000D02*
X187701422Y-98985000D01*
G04 #@! TO.C,R408*
X195838578Y-98985000D02*
X195321422Y-98985000D01*
X195838578Y-100405000D02*
X195321422Y-100405000D01*
G04 #@! TO.C,R501*
X133608578Y-97865000D02*
X133091422Y-97865000D01*
X133608578Y-96445000D02*
X133091422Y-96445000D01*
G04 #@! TO.C,RN601*
X160655000Y-96015000D02*
X160655000Y-93215000D01*
X137625000Y-96015000D02*
X163365000Y-96015000D01*
X137625000Y-93215000D02*
X137625000Y-96015000D01*
X163365000Y-93215000D02*
X137625000Y-93215000D01*
X163365000Y-96015000D02*
X163365000Y-93215000D01*
G04 #@! TO.C,RN602*
X137625000Y-90040000D02*
X137625000Y-92840000D01*
X137625000Y-92840000D02*
X163365000Y-92840000D01*
X163365000Y-92840000D02*
X163365000Y-90040000D01*
X163365000Y-90040000D02*
X137625000Y-90040000D01*
X140335000Y-90040000D02*
X140335000Y-92840000D01*
G04 #@! TO.C,RN603*
X127000000Y-96015000D02*
X127000000Y-93215000D01*
X103970000Y-96015000D02*
X129710000Y-96015000D01*
X103970000Y-93215000D02*
X103970000Y-96015000D01*
X129710000Y-93215000D02*
X103970000Y-93215000D01*
X129710000Y-96015000D02*
X129710000Y-93215000D01*
G04 #@! TO.C,RN604*
X103970000Y-90040000D02*
X103970000Y-92840000D01*
X103970000Y-92840000D02*
X129710000Y-92840000D01*
X129710000Y-92840000D02*
X129710000Y-90040000D01*
X129710000Y-90040000D02*
X103970000Y-90040000D01*
X106680000Y-90040000D02*
X106680000Y-92840000D01*
G04 #@! TO.C,TP201*
X163130000Y-120080000D02*
X163130000Y-118680000D01*
X163130000Y-118680000D02*
X164530000Y-118680000D01*
X164530000Y-118680000D02*
X164530000Y-120080000D01*
X164530000Y-120080000D02*
X163130000Y-120080000D01*
D12*
G04 #@! TO.C,U201*
X185245000Y-115745000D02*
X184295000Y-115745000D01*
X185245000Y-128095000D02*
X184195000Y-128095000D01*
X172895000Y-128095000D02*
X173945000Y-128095000D01*
X172895000Y-115745000D02*
X173945000Y-115745000D01*
X185245000Y-115745000D02*
X185245000Y-116795000D01*
X172895000Y-115745000D02*
X172895000Y-116795000D01*
X172895000Y-128095000D02*
X172895000Y-127045000D01*
X185245000Y-128095000D02*
X185245000Y-127045000D01*
X184295000Y-115745000D02*
X184295000Y-114470000D01*
G04 #@! TO.C,U301*
X151445000Y-112035000D02*
X155895000Y-112035000D01*
X149920000Y-105135000D02*
X155895000Y-105135000D01*
G04 #@! TO.C,U501*
X134955000Y-109465000D02*
X134955000Y-108890000D01*
X129205000Y-109465000D02*
X129205000Y-108815000D01*
X129205000Y-98815000D02*
X129205000Y-99465000D01*
X134955000Y-98815000D02*
X134955000Y-99465000D01*
X134955000Y-109465000D02*
X129205000Y-109465000D01*
X134955000Y-98815000D02*
X129205000Y-98815000D01*
X134955000Y-108890000D02*
X136555000Y-108890000D01*
G04 #@! TO.C,U502*
X114635000Y-108890000D02*
X116235000Y-108890000D01*
X114635000Y-98815000D02*
X108885000Y-98815000D01*
X114635000Y-109465000D02*
X108885000Y-109465000D01*
X114635000Y-98815000D02*
X114635000Y-99465000D01*
X108885000Y-98815000D02*
X108885000Y-99465000D01*
X108885000Y-109465000D02*
X108885000Y-108815000D01*
X114635000Y-109465000D02*
X114635000Y-108890000D01*
G04 #@! TO.C,U701*
X160660000Y-74465000D02*
X160685000Y-74465000D01*
X160660000Y-70315000D02*
X160765000Y-70315000D01*
X170810000Y-70315000D02*
X170705000Y-70315000D01*
X170810000Y-74465000D02*
X170705000Y-74465000D01*
X160660000Y-74465000D02*
X160660000Y-70315000D01*
X170810000Y-74465000D02*
X170810000Y-70315000D01*
X160685000Y-74465000D02*
X160685000Y-75840000D01*
D11*
G04 #@! TO.C,Y201*
X193059999Y-116405001D02*
X193059999Y-122955001D01*
X193059999Y-122955001D02*
X196959999Y-122955001D01*
X196959999Y-122955001D02*
X196959999Y-116405001D01*
D13*
G04 #@! TO.C,G\002A\002A\002A*
G36*
X110046821Y-113894559D02*
X110260051Y-114097291D01*
X110381295Y-114361637D01*
X110382213Y-114657797D01*
X110234466Y-114955971D01*
X110165017Y-115033350D01*
X109860520Y-115224503D01*
X109521806Y-115261016D01*
X109206331Y-115142183D01*
X109095287Y-115046529D01*
X108919798Y-114743578D01*
X108890530Y-114406817D01*
X109005037Y-114097919D01*
X109138612Y-113954050D01*
X109457762Y-113793138D01*
X109769945Y-113783241D01*
X110046821Y-113894559D01*
X110046821Y-113894559D01*
G37*
X110046821Y-113894559D02*
X110260051Y-114097291D01*
X110381295Y-114361637D01*
X110382213Y-114657797D01*
X110234466Y-114955971D01*
X110165017Y-115033350D01*
X109860520Y-115224503D01*
X109521806Y-115261016D01*
X109206331Y-115142183D01*
X109095287Y-115046529D01*
X108919798Y-114743578D01*
X108890530Y-114406817D01*
X109005037Y-114097919D01*
X109138612Y-113954050D01*
X109457762Y-113793138D01*
X109769945Y-113783241D01*
X110046821Y-113894559D01*
G36*
X145297407Y-117051666D02*
X144879408Y-117051666D01*
X144626969Y-117066013D01*
X144442112Y-117125711D01*
X144314473Y-117255752D01*
X144233689Y-117481126D01*
X144189398Y-117826822D01*
X144171235Y-118317831D01*
X144168518Y-118765932D01*
X144168518Y-120062037D01*
X142663333Y-120062037D01*
X142663333Y-115734629D01*
X143368889Y-115734629D01*
X143727686Y-115737312D01*
X143937993Y-115754538D01*
X144039467Y-115800073D01*
X144071762Y-115887684D01*
X144074444Y-115979560D01*
X144074444Y-116224490D01*
X144406977Y-115932523D01*
X144740110Y-115709904D01*
X145018458Y-115640555D01*
X145297407Y-115640555D01*
X145297407Y-117051666D01*
X145297407Y-117051666D01*
G37*
X145297407Y-117051666D02*
X144879408Y-117051666D01*
X144626969Y-117066013D01*
X144442112Y-117125711D01*
X144314473Y-117255752D01*
X144233689Y-117481126D01*
X144189398Y-117826822D01*
X144171235Y-118317831D01*
X144168518Y-118765932D01*
X144168518Y-120062037D01*
X142663333Y-120062037D01*
X142663333Y-115734629D01*
X143368889Y-115734629D01*
X143727686Y-115737312D01*
X143937993Y-115754538D01*
X144039467Y-115800073D01*
X144071762Y-115887684D01*
X144074444Y-115979560D01*
X144074444Y-116224490D01*
X144406977Y-115932523D01*
X144740110Y-115709904D01*
X145018458Y-115640555D01*
X145297407Y-115640555D01*
X145297407Y-117051666D01*
G36*
X129304815Y-120062037D02*
X127799629Y-120062037D01*
X127799629Y-113476852D01*
X129304815Y-113476852D01*
X129304815Y-120062037D01*
X129304815Y-120062037D01*
G37*
X129304815Y-120062037D02*
X127799629Y-120062037D01*
X127799629Y-113476852D01*
X129304815Y-113476852D01*
X129304815Y-120062037D01*
G36*
X125025798Y-113874738D02*
X125589955Y-113946911D01*
X126024488Y-114080771D01*
X126356566Y-114287422D01*
X126613357Y-114577968D01*
X126775466Y-114862929D01*
X126891008Y-115155570D01*
X126941835Y-115459535D01*
X126940533Y-115856431D01*
X126937494Y-115913769D01*
X126833917Y-116530763D01*
X126598522Y-117014538D01*
X126228263Y-117368113D01*
X125720093Y-117594504D01*
X125142037Y-117692030D01*
X124601111Y-117732799D01*
X124601111Y-120062037D01*
X123190000Y-120062037D01*
X123190000Y-116490807D01*
X124601111Y-116490807D01*
X124859815Y-116432050D01*
X125117885Y-116318823D01*
X125283148Y-116184651D01*
X125439200Y-115890390D01*
X125426820Y-115596096D01*
X125261661Y-115340619D01*
X124959377Y-115162809D01*
X124859815Y-115133991D01*
X124601111Y-115072526D01*
X124601111Y-116490807D01*
X123190000Y-116490807D01*
X123190000Y-113853148D01*
X124304851Y-113853148D01*
X125025798Y-113874738D01*
X125025798Y-113874738D01*
G37*
X125025798Y-113874738D02*
X125589955Y-113946911D01*
X126024488Y-114080771D01*
X126356566Y-114287422D01*
X126613357Y-114577968D01*
X126775466Y-114862929D01*
X126891008Y-115155570D01*
X126941835Y-115459535D01*
X126940533Y-115856431D01*
X126937494Y-115913769D01*
X126833917Y-116530763D01*
X126598522Y-117014538D01*
X126228263Y-117368113D01*
X125720093Y-117594504D01*
X125142037Y-117692030D01*
X124601111Y-117732799D01*
X124601111Y-120062037D01*
X123190000Y-120062037D01*
X123190000Y-116490807D01*
X124601111Y-116490807D01*
X124859815Y-116432050D01*
X125117885Y-116318823D01*
X125283148Y-116184651D01*
X125439200Y-115890390D01*
X125426820Y-115596096D01*
X125261661Y-115340619D01*
X124959377Y-115162809D01*
X124859815Y-115133991D01*
X124601111Y-115072526D01*
X124601111Y-116490807D01*
X123190000Y-116490807D01*
X123190000Y-113853148D01*
X124304851Y-113853148D01*
X125025798Y-113874738D01*
G36*
X122343333Y-117051666D02*
X121967037Y-117051666D01*
X121586063Y-117118187D01*
X121402592Y-117239815D01*
X121327243Y-117331285D01*
X121275056Y-117451301D01*
X121241861Y-117633232D01*
X121223486Y-117910445D01*
X121215761Y-118316310D01*
X121214444Y-118745000D01*
X121214444Y-120062037D01*
X119803333Y-120062037D01*
X119803333Y-115734629D01*
X121120370Y-115734629D01*
X121120370Y-116280259D01*
X121440222Y-115960407D01*
X121736938Y-115724549D01*
X122017541Y-115641431D01*
X122051704Y-115640555D01*
X122343333Y-115640555D01*
X122343333Y-117051666D01*
X122343333Y-117051666D01*
G37*
X122343333Y-117051666D02*
X121967037Y-117051666D01*
X121586063Y-117118187D01*
X121402592Y-117239815D01*
X121327243Y-117331285D01*
X121275056Y-117451301D01*
X121241861Y-117633232D01*
X121223486Y-117910445D01*
X121215761Y-118316310D01*
X121214444Y-118745000D01*
X121214444Y-120062037D01*
X119803333Y-120062037D01*
X119803333Y-115734629D01*
X121120370Y-115734629D01*
X121120370Y-116280259D01*
X121440222Y-115960407D01*
X121736938Y-115724549D01*
X122017541Y-115641431D01*
X122051704Y-115640555D01*
X122343333Y-115640555D01*
X122343333Y-117051666D01*
G36*
X110301852Y-120062037D02*
X108890741Y-120062037D01*
X108890741Y-115734629D01*
X110301852Y-115734629D01*
X110301852Y-120062037D01*
X110301852Y-120062037D01*
G37*
X110301852Y-120062037D02*
X108890741Y-120062037D01*
X108890741Y-115734629D01*
X110301852Y-115734629D01*
X110301852Y-120062037D01*
G36*
X140536077Y-115662165D02*
X140933756Y-115771457D01*
X141282073Y-116009160D01*
X141476246Y-116205033D01*
X141761192Y-116650268D01*
X141940969Y-117223626D01*
X142004795Y-117890470D01*
X142004815Y-117902963D01*
X142004815Y-118274629D01*
X139773128Y-118274629D01*
X139819403Y-118533333D01*
X139918212Y-118811759D01*
X140080414Y-119027378D01*
X140260318Y-119120859D01*
X140272197Y-119121296D01*
X140409668Y-119053297D01*
X140574287Y-118889413D01*
X140576896Y-118886111D01*
X140705266Y-118753504D01*
X140863607Y-118682373D01*
X141111567Y-118654491D01*
X141346515Y-118650926D01*
X141931137Y-118650926D01*
X141867365Y-118909629D01*
X141657895Y-119412575D01*
X141316927Y-119824611D01*
X141162668Y-119944125D01*
X140777334Y-120107697D01*
X140309578Y-120168375D01*
X139834447Y-120126238D01*
X139426987Y-119981366D01*
X139363373Y-119942206D01*
X138943354Y-119553342D01*
X138652107Y-119035583D01*
X138518858Y-118578763D01*
X138450487Y-117899340D01*
X138518447Y-117237647D01*
X138530726Y-117199497D01*
X139841111Y-117199497D01*
X139859133Y-117339377D01*
X139946350Y-117406458D01*
X140152487Y-117426944D01*
X140274643Y-117427963D01*
X140537064Y-117421925D01*
X140654183Y-117383817D01*
X140668832Y-117283648D01*
X140643376Y-117169785D01*
X140516378Y-116851688D01*
X140341769Y-116690984D01*
X140259645Y-116675370D01*
X140061859Y-116757493D01*
X139903814Y-116957408D01*
X139841111Y-117199497D01*
X138530726Y-117199497D01*
X138712322Y-116635304D01*
X139021694Y-116133935D01*
X139170267Y-115975824D01*
X139386735Y-115806472D01*
X139626514Y-115711825D01*
X139966108Y-115663652D01*
X140029382Y-115658761D01*
X140536077Y-115662165D01*
X140536077Y-115662165D01*
G37*
X140536077Y-115662165D02*
X140933756Y-115771457D01*
X141282073Y-116009160D01*
X141476246Y-116205033D01*
X141761192Y-116650268D01*
X141940969Y-117223626D01*
X142004795Y-117890470D01*
X142004815Y-117902963D01*
X142004815Y-118274629D01*
X139773128Y-118274629D01*
X139819403Y-118533333D01*
X139918212Y-118811759D01*
X140080414Y-119027378D01*
X140260318Y-119120859D01*
X140272197Y-119121296D01*
X140409668Y-119053297D01*
X140574287Y-118889413D01*
X140576896Y-118886111D01*
X140705266Y-118753504D01*
X140863607Y-118682373D01*
X141111567Y-118654491D01*
X141346515Y-118650926D01*
X141931137Y-118650926D01*
X141867365Y-118909629D01*
X141657895Y-119412575D01*
X141316927Y-119824611D01*
X141162668Y-119944125D01*
X140777334Y-120107697D01*
X140309578Y-120168375D01*
X139834447Y-120126238D01*
X139426987Y-119981366D01*
X139363373Y-119942206D01*
X138943354Y-119553342D01*
X138652107Y-119035583D01*
X138518858Y-118578763D01*
X138450487Y-117899340D01*
X138518447Y-117237647D01*
X138530726Y-117199497D01*
X139841111Y-117199497D01*
X139859133Y-117339377D01*
X139946350Y-117406458D01*
X140152487Y-117426944D01*
X140274643Y-117427963D01*
X140537064Y-117421925D01*
X140654183Y-117383817D01*
X140668832Y-117283648D01*
X140643376Y-117169785D01*
X140516378Y-116851688D01*
X140341769Y-116690984D01*
X140259645Y-116675370D01*
X140061859Y-116757493D01*
X139903814Y-116957408D01*
X139841111Y-117199497D01*
X138530726Y-117199497D01*
X138712322Y-116635304D01*
X139021694Y-116133935D01*
X139170267Y-115975824D01*
X139386735Y-115806472D01*
X139626514Y-115711825D01*
X139966108Y-115663652D01*
X140029382Y-115658761D01*
X140536077Y-115662165D01*
G36*
X117839798Y-115719865D02*
X118302453Y-115954156D01*
X118656931Y-116337973D01*
X118898286Y-116865859D01*
X119021571Y-117532358D01*
X119024729Y-117571613D01*
X119077898Y-118274629D01*
X117982467Y-118274629D01*
X117515217Y-118275775D01*
X117204281Y-118283567D01*
X117017828Y-118304537D01*
X116924024Y-118345216D01*
X116891037Y-118412136D01*
X116887037Y-118499393D01*
X116949221Y-118771827D01*
X117105074Y-118985056D01*
X117308545Y-119089626D01*
X117428990Y-119081397D01*
X117616604Y-118952870D01*
X117688194Y-118834262D01*
X117746873Y-118732986D01*
X117871889Y-118677158D01*
X118108772Y-118654193D01*
X118351524Y-118650926D01*
X118683680Y-118658229D01*
X118867977Y-118687408D01*
X118944387Y-118749364D01*
X118955119Y-118815555D01*
X118887665Y-119072562D01*
X118717247Y-119385685D01*
X118485920Y-119691171D01*
X118235741Y-119925267D01*
X118212248Y-119941662D01*
X117844924Y-120097363D01*
X117389314Y-120162670D01*
X116923018Y-120135966D01*
X116523633Y-120015639D01*
X116455359Y-119978222D01*
X116071575Y-119671404D01*
X115800579Y-119275856D01*
X115632436Y-118767622D01*
X115557210Y-118122747D01*
X115550956Y-117797637D01*
X115599491Y-117260747D01*
X116887037Y-117260747D01*
X116923065Y-117366729D01*
X117060901Y-117416558D01*
X117310370Y-117427963D01*
X117578680Y-117413732D01*
X117704830Y-117359287D01*
X117733704Y-117260747D01*
X117676815Y-117043682D01*
X117541060Y-116830306D01*
X117378804Y-116693028D01*
X117310370Y-116675370D01*
X117153393Y-116754034D01*
X116999083Y-116941754D01*
X116899806Y-117166118D01*
X116887037Y-117260747D01*
X115599491Y-117260747D01*
X115615163Y-117087396D01*
X115799973Y-116512932D01*
X116101519Y-116079087D01*
X116515933Y-115790702D01*
X117039346Y-115652622D01*
X117273915Y-115640555D01*
X117839798Y-115719865D01*
X117839798Y-115719865D01*
G37*
X117839798Y-115719865D02*
X118302453Y-115954156D01*
X118656931Y-116337973D01*
X118898286Y-116865859D01*
X119021571Y-117532358D01*
X119024729Y-117571613D01*
X119077898Y-118274629D01*
X117982467Y-118274629D01*
X117515217Y-118275775D01*
X117204281Y-118283567D01*
X117017828Y-118304537D01*
X116924024Y-118345216D01*
X116891037Y-118412136D01*
X116887037Y-118499393D01*
X116949221Y-118771827D01*
X117105074Y-118985056D01*
X117308545Y-119089626D01*
X117428990Y-119081397D01*
X117616604Y-118952870D01*
X117688194Y-118834262D01*
X117746873Y-118732986D01*
X117871889Y-118677158D01*
X118108772Y-118654193D01*
X118351524Y-118650926D01*
X118683680Y-118658229D01*
X118867977Y-118687408D01*
X118944387Y-118749364D01*
X118955119Y-118815555D01*
X118887665Y-119072562D01*
X118717247Y-119385685D01*
X118485920Y-119691171D01*
X118235741Y-119925267D01*
X118212248Y-119941662D01*
X117844924Y-120097363D01*
X117389314Y-120162670D01*
X116923018Y-120135966D01*
X116523633Y-120015639D01*
X116455359Y-119978222D01*
X116071575Y-119671404D01*
X115800579Y-119275856D01*
X115632436Y-118767622D01*
X115557210Y-118122747D01*
X115550956Y-117797637D01*
X115599491Y-117260747D01*
X116887037Y-117260747D01*
X116923065Y-117366729D01*
X117060901Y-117416558D01*
X117310370Y-117427963D01*
X117578680Y-117413732D01*
X117704830Y-117359287D01*
X117733704Y-117260747D01*
X117676815Y-117043682D01*
X117541060Y-116830306D01*
X117378804Y-116693028D01*
X117310370Y-116675370D01*
X117153393Y-116754034D01*
X116999083Y-116941754D01*
X116899806Y-117166118D01*
X116887037Y-117260747D01*
X115599491Y-117260747D01*
X115615163Y-117087396D01*
X115799973Y-116512932D01*
X116101519Y-116079087D01*
X116515933Y-115790702D01*
X117039346Y-115652622D01*
X117273915Y-115640555D01*
X117839798Y-115719865D01*
G36*
X131695753Y-115689995D02*
X131998793Y-115861908D01*
X132025745Y-115884103D01*
X132209986Y-116032584D01*
X132292729Y-116064225D01*
X132314482Y-115985612D01*
X132315185Y-115931140D01*
X132329980Y-115830841D01*
X132400508Y-115772007D01*
X132565981Y-115743717D01*
X132865612Y-115735050D01*
X133020741Y-115734629D01*
X133726296Y-115734629D01*
X133726296Y-120062037D01*
X133020741Y-120062037D01*
X132661120Y-120058239D01*
X132450225Y-120039190D01*
X132348671Y-119993404D01*
X132317074Y-119909396D01*
X132315185Y-119856288D01*
X132307384Y-119729525D01*
X132257060Y-119718982D01*
X132123827Y-119830453D01*
X132056481Y-119893409D01*
X131683153Y-120140157D01*
X131289911Y-120200633D01*
X130905949Y-120086658D01*
X130527392Y-119792255D01*
X130241636Y-119350003D01*
X130055840Y-118779577D01*
X129977164Y-118100656D01*
X129981798Y-117906247D01*
X131374444Y-117906247D01*
X131415416Y-118313822D01*
X131524122Y-118631522D01*
X131679249Y-118840001D01*
X131859486Y-118919911D01*
X132043518Y-118851904D01*
X132193843Y-118650092D01*
X132275021Y-118366462D01*
X132309047Y-117984713D01*
X132295075Y-117589089D01*
X132232260Y-117263833D01*
X132208369Y-117202379D01*
X132041827Y-116959711D01*
X131858549Y-116883832D01*
X131679353Y-116957168D01*
X131525060Y-117162146D01*
X131416490Y-117481194D01*
X131374463Y-117896738D01*
X131374444Y-117906247D01*
X129981798Y-117906247D01*
X129989837Y-117569074D01*
X130095202Y-116868182D01*
X130291680Y-116320495D01*
X130576108Y-115930574D01*
X130945322Y-115702980D01*
X131327407Y-115640555D01*
X131695753Y-115689995D01*
X131695753Y-115689995D01*
G37*
X131695753Y-115689995D02*
X131998793Y-115861908D01*
X132025745Y-115884103D01*
X132209986Y-116032584D01*
X132292729Y-116064225D01*
X132314482Y-115985612D01*
X132315185Y-115931140D01*
X132329980Y-115830841D01*
X132400508Y-115772007D01*
X132565981Y-115743717D01*
X132865612Y-115735050D01*
X133020741Y-115734629D01*
X133726296Y-115734629D01*
X133726296Y-120062037D01*
X133020741Y-120062037D01*
X132661120Y-120058239D01*
X132450225Y-120039190D01*
X132348671Y-119993404D01*
X132317074Y-119909396D01*
X132315185Y-119856288D01*
X132307384Y-119729525D01*
X132257060Y-119718982D01*
X132123827Y-119830453D01*
X132056481Y-119893409D01*
X131683153Y-120140157D01*
X131289911Y-120200633D01*
X130905949Y-120086658D01*
X130527392Y-119792255D01*
X130241636Y-119350003D01*
X130055840Y-118779577D01*
X129977164Y-118100656D01*
X129981798Y-117906247D01*
X131374444Y-117906247D01*
X131415416Y-118313822D01*
X131524122Y-118631522D01*
X131679249Y-118840001D01*
X131859486Y-118919911D01*
X132043518Y-118851904D01*
X132193843Y-118650092D01*
X132275021Y-118366462D01*
X132309047Y-117984713D01*
X132295075Y-117589089D01*
X132232260Y-117263833D01*
X132208369Y-117202379D01*
X132041827Y-116959711D01*
X131858549Y-116883832D01*
X131679353Y-116957168D01*
X131525060Y-117162146D01*
X131416490Y-117481194D01*
X131374463Y-117896738D01*
X131374444Y-117906247D01*
X129981798Y-117906247D01*
X129989837Y-117569074D01*
X130095202Y-116868182D01*
X130291680Y-116320495D01*
X130576108Y-115930574D01*
X130945322Y-115702980D01*
X131327407Y-115640555D01*
X131695753Y-115689995D01*
G36*
X112747778Y-116101942D02*
X112996700Y-115871249D01*
X113215332Y-115717591D01*
X113482231Y-115650407D01*
X113714666Y-115640555D01*
X114021835Y-115657999D01*
X114233420Y-115736220D01*
X114440700Y-115914050D01*
X114498008Y-115973808D01*
X114713637Y-116249234D01*
X114868583Y-116573426D01*
X114980724Y-116994636D01*
X115058537Y-117486505D01*
X115075310Y-117918502D01*
X115035576Y-118415442D01*
X114950175Y-118910198D01*
X114829947Y-119335644D01*
X114721872Y-119571455D01*
X114407385Y-119934151D01*
X114011668Y-120151689D01*
X113573512Y-120205489D01*
X113437591Y-120186519D01*
X113228106Y-120094587D01*
X113000569Y-119928888D01*
X112990739Y-119919894D01*
X112829451Y-119779382D01*
X112761911Y-119763997D01*
X112747805Y-119866851D01*
X112747778Y-119878381D01*
X112729983Y-119972392D01*
X112650709Y-120027562D01*
X112471122Y-120053998D01*
X112152385Y-120061809D01*
X112042222Y-120062037D01*
X111336667Y-120062037D01*
X111336667Y-117656679D01*
X112753440Y-117656679D01*
X112764409Y-117976395D01*
X112794623Y-118364553D01*
X112845057Y-118609214D01*
X112927314Y-118754830D01*
X112979720Y-118801299D01*
X113178768Y-118916364D01*
X113316572Y-118883983D01*
X113443834Y-118721481D01*
X113584013Y-118384087D01*
X113639011Y-117983614D01*
X113613836Y-117576129D01*
X113513499Y-117217695D01*
X113343011Y-116964381D01*
X113282810Y-116919577D01*
X113137729Y-116874697D01*
X112998919Y-116961428D01*
X112920849Y-117049911D01*
X112819835Y-117203089D01*
X112767164Y-117386797D01*
X112753440Y-117656679D01*
X111336667Y-117656679D01*
X111336667Y-113476852D01*
X112747778Y-113476852D01*
X112747778Y-116101942D01*
X112747778Y-116101942D01*
G37*
X112747778Y-116101942D02*
X112996700Y-115871249D01*
X113215332Y-115717591D01*
X113482231Y-115650407D01*
X113714666Y-115640555D01*
X114021835Y-115657999D01*
X114233420Y-115736220D01*
X114440700Y-115914050D01*
X114498008Y-115973808D01*
X114713637Y-116249234D01*
X114868583Y-116573426D01*
X114980724Y-116994636D01*
X115058537Y-117486505D01*
X115075310Y-117918502D01*
X115035576Y-118415442D01*
X114950175Y-118910198D01*
X114829947Y-119335644D01*
X114721872Y-119571455D01*
X114407385Y-119934151D01*
X114011668Y-120151689D01*
X113573512Y-120205489D01*
X113437591Y-120186519D01*
X113228106Y-120094587D01*
X113000569Y-119928888D01*
X112990739Y-119919894D01*
X112829451Y-119779382D01*
X112761911Y-119763997D01*
X112747805Y-119866851D01*
X112747778Y-119878381D01*
X112729983Y-119972392D01*
X112650709Y-120027562D01*
X112471122Y-120053998D01*
X112152385Y-120061809D01*
X112042222Y-120062037D01*
X111336667Y-120062037D01*
X111336667Y-117656679D01*
X112753440Y-117656679D01*
X112764409Y-117976395D01*
X112794623Y-118364553D01*
X112845057Y-118609214D01*
X112927314Y-118754830D01*
X112979720Y-118801299D01*
X113178768Y-118916364D01*
X113316572Y-118883983D01*
X113443834Y-118721481D01*
X113584013Y-118384087D01*
X113639011Y-117983614D01*
X113613836Y-117576129D01*
X113513499Y-117217695D01*
X113343011Y-116964381D01*
X113282810Y-116919577D01*
X113137729Y-116874697D01*
X112998919Y-116961428D01*
X112920849Y-117049911D01*
X112819835Y-117203089D01*
X112767164Y-117386797D01*
X112753440Y-117656679D01*
X111336667Y-117656679D01*
X111336667Y-113476852D01*
X112747778Y-113476852D01*
X112747778Y-116101942D01*
G36*
X107667778Y-120595378D02*
X121467388Y-120659023D01*
X123063991Y-120665906D01*
X124609144Y-120671623D01*
X126092387Y-120676183D01*
X127503255Y-120679589D01*
X128831286Y-120681850D01*
X130066018Y-120682970D01*
X131196988Y-120682956D01*
X132213734Y-120681814D01*
X133105792Y-120679549D01*
X133862701Y-120676168D01*
X134473998Y-120671677D01*
X134929220Y-120666082D01*
X135217904Y-120659388D01*
X135329589Y-120651602D01*
X135330474Y-120651056D01*
X135402184Y-120518268D01*
X135488644Y-120295145D01*
X135492502Y-120283654D01*
X135518849Y-120167227D01*
X135520383Y-120022180D01*
X135491177Y-119823704D01*
X135425303Y-119546995D01*
X135316833Y-119167245D01*
X135159840Y-118659648D01*
X134948396Y-117999399D01*
X134941752Y-117978839D01*
X134753816Y-117392402D01*
X134587148Y-116862879D01*
X134450082Y-116417529D01*
X134350951Y-116083610D01*
X134298088Y-115888382D01*
X134291596Y-115852222D01*
X134358710Y-115785594D01*
X134573840Y-115747479D01*
X134955882Y-115734664D01*
X134982715Y-115734629D01*
X135674688Y-115734629D01*
X135946363Y-116675370D01*
X136063860Y-117063771D01*
X136167899Y-117374143D01*
X136245206Y-117568773D01*
X136277445Y-117616111D01*
X136335046Y-117534967D01*
X136392272Y-117338882D01*
X136393982Y-117330458D01*
X136450457Y-117095143D01*
X136543186Y-116754763D01*
X136650090Y-116389717D01*
X136849066Y-115734629D01*
X137545459Y-115734629D01*
X137939013Y-115746031D01*
X138164609Y-115782367D01*
X138241177Y-115846836D01*
X138241447Y-115852222D01*
X138214997Y-115967955D01*
X138140172Y-116241347D01*
X138023456Y-116650081D01*
X137871331Y-117171842D01*
X137690282Y-117784316D01*
X137486792Y-118465187D01*
X137359990Y-118886111D01*
X136478939Y-121802407D01*
X134420580Y-121824555D01*
X134070049Y-121828755D01*
X133544873Y-121835656D01*
X132858533Y-121845062D01*
X132024512Y-121856776D01*
X131056291Y-121870600D01*
X129967351Y-121886338D01*
X128771173Y-121903794D01*
X127481239Y-121922769D01*
X126111031Y-121943069D01*
X124674028Y-121964494D01*
X123183714Y-121986850D01*
X121653569Y-122009938D01*
X120097075Y-122033563D01*
X119897407Y-122036604D01*
X118370173Y-122059801D01*
X116887857Y-122082180D01*
X115462099Y-122103572D01*
X114104536Y-122123807D01*
X112826806Y-122142717D01*
X111640548Y-122160132D01*
X110557400Y-122175885D01*
X109588999Y-122189804D01*
X108746985Y-122201723D01*
X108042995Y-122211471D01*
X107488668Y-122218879D01*
X107095642Y-122223780D01*
X106875554Y-122226003D01*
X106844629Y-122226123D01*
X106256667Y-122225740D01*
X106256954Y-119474074D01*
X106259347Y-118666817D01*
X106265932Y-117825687D01*
X106276064Y-116996389D01*
X106289096Y-116224627D01*
X106304382Y-115556104D01*
X106318798Y-115099629D01*
X106380355Y-113476852D01*
X107667778Y-113476852D01*
X107667778Y-120595378D01*
X107667778Y-120595378D01*
G37*
X107667778Y-120595378D02*
X121467388Y-120659023D01*
X123063991Y-120665906D01*
X124609144Y-120671623D01*
X126092387Y-120676183D01*
X127503255Y-120679589D01*
X128831286Y-120681850D01*
X130066018Y-120682970D01*
X131196988Y-120682956D01*
X132213734Y-120681814D01*
X133105792Y-120679549D01*
X133862701Y-120676168D01*
X134473998Y-120671677D01*
X134929220Y-120666082D01*
X135217904Y-120659388D01*
X135329589Y-120651602D01*
X135330474Y-120651056D01*
X135402184Y-120518268D01*
X135488644Y-120295145D01*
X135492502Y-120283654D01*
X135518849Y-120167227D01*
X135520383Y-120022180D01*
X135491177Y-119823704D01*
X135425303Y-119546995D01*
X135316833Y-119167245D01*
X135159840Y-118659648D01*
X134948396Y-117999399D01*
X134941752Y-117978839D01*
X134753816Y-117392402D01*
X134587148Y-116862879D01*
X134450082Y-116417529D01*
X134350951Y-116083610D01*
X134298088Y-115888382D01*
X134291596Y-115852222D01*
X134358710Y-115785594D01*
X134573840Y-115747479D01*
X134955882Y-115734664D01*
X134982715Y-115734629D01*
X135674688Y-115734629D01*
X135946363Y-116675370D01*
X136063860Y-117063771D01*
X136167899Y-117374143D01*
X136245206Y-117568773D01*
X136277445Y-117616111D01*
X136335046Y-117534967D01*
X136392272Y-117338882D01*
X136393982Y-117330458D01*
X136450457Y-117095143D01*
X136543186Y-116754763D01*
X136650090Y-116389717D01*
X136849066Y-115734629D01*
X137545459Y-115734629D01*
X137939013Y-115746031D01*
X138164609Y-115782367D01*
X138241177Y-115846836D01*
X138241447Y-115852222D01*
X138214997Y-115967955D01*
X138140172Y-116241347D01*
X138023456Y-116650081D01*
X137871331Y-117171842D01*
X137690282Y-117784316D01*
X137486792Y-118465187D01*
X137359990Y-118886111D01*
X136478939Y-121802407D01*
X134420580Y-121824555D01*
X134070049Y-121828755D01*
X133544873Y-121835656D01*
X132858533Y-121845062D01*
X132024512Y-121856776D01*
X131056291Y-121870600D01*
X129967351Y-121886338D01*
X128771173Y-121903794D01*
X127481239Y-121922769D01*
X126111031Y-121943069D01*
X124674028Y-121964494D01*
X123183714Y-121986850D01*
X121653569Y-122009938D01*
X120097075Y-122033563D01*
X119897407Y-122036604D01*
X118370173Y-122059801D01*
X116887857Y-122082180D01*
X115462099Y-122103572D01*
X114104536Y-122123807D01*
X112826806Y-122142717D01*
X111640548Y-122160132D01*
X110557400Y-122175885D01*
X109588999Y-122189804D01*
X108746985Y-122201723D01*
X108042995Y-122211471D01*
X107488668Y-122218879D01*
X107095642Y-122223780D01*
X106875554Y-122226003D01*
X106844629Y-122226123D01*
X106256667Y-122225740D01*
X106256954Y-119474074D01*
X106259347Y-118666817D01*
X106265932Y-117825687D01*
X106276064Y-116996389D01*
X106289096Y-116224627D01*
X106304382Y-115556104D01*
X106318798Y-115099629D01*
X106380355Y-113476852D01*
X107667778Y-113476852D01*
X107667778Y-120595378D01*
G04 #@! TO.C,C201*
D12*
X167155952Y-120952143D02*
X167108333Y-120999762D01*
X166965476Y-121047381D01*
X166870238Y-121047381D01*
X166727380Y-120999762D01*
X166632142Y-120904524D01*
X166584523Y-120809286D01*
X166536904Y-120618810D01*
X166536904Y-120475953D01*
X166584523Y-120285477D01*
X166632142Y-120190239D01*
X166727380Y-120095001D01*
X166870238Y-120047381D01*
X166965476Y-120047381D01*
X167108333Y-120095001D01*
X167155952Y-120142620D01*
X167536904Y-120142620D02*
X167584523Y-120095001D01*
X167679761Y-120047381D01*
X167917857Y-120047381D01*
X168013095Y-120095001D01*
X168060714Y-120142620D01*
X168108333Y-120237858D01*
X168108333Y-120333096D01*
X168060714Y-120475953D01*
X167489285Y-121047381D01*
X168108333Y-121047381D01*
X168727380Y-120047381D02*
X168822619Y-120047381D01*
X168917857Y-120095001D01*
X168965476Y-120142620D01*
X169013095Y-120237858D01*
X169060714Y-120428334D01*
X169060714Y-120666429D01*
X169013095Y-120856905D01*
X168965476Y-120952143D01*
X168917857Y-120999762D01*
X168822619Y-121047381D01*
X168727380Y-121047381D01*
X168632142Y-120999762D01*
X168584523Y-120952143D01*
X168536904Y-120856905D01*
X168489285Y-120666429D01*
X168489285Y-120428334D01*
X168536904Y-120237858D01*
X168584523Y-120142620D01*
X168632142Y-120095001D01*
X168727380Y-120047381D01*
X170013095Y-121047381D02*
X169441666Y-121047381D01*
X169727380Y-121047381D02*
X169727380Y-120047381D01*
X169632142Y-120190239D01*
X169536904Y-120285477D01*
X169441666Y-120333096D01*
G04 #@! TO.C,C202*
X167155952Y-123927142D02*
X167108333Y-123974761D01*
X166965476Y-124022380D01*
X166870238Y-124022380D01*
X166727380Y-123974761D01*
X166632142Y-123879523D01*
X166584523Y-123784285D01*
X166536904Y-123593809D01*
X166536904Y-123450952D01*
X166584523Y-123260476D01*
X166632142Y-123165238D01*
X166727380Y-123070000D01*
X166870238Y-123022380D01*
X166965476Y-123022380D01*
X167108333Y-123070000D01*
X167155952Y-123117619D01*
X167536904Y-123117619D02*
X167584523Y-123070000D01*
X167679761Y-123022380D01*
X167917857Y-123022380D01*
X168013095Y-123070000D01*
X168060714Y-123117619D01*
X168108333Y-123212857D01*
X168108333Y-123308095D01*
X168060714Y-123450952D01*
X167489285Y-124022380D01*
X168108333Y-124022380D01*
X168727380Y-123022380D02*
X168822619Y-123022380D01*
X168917857Y-123070000D01*
X168965476Y-123117619D01*
X169013095Y-123212857D01*
X169060714Y-123403333D01*
X169060714Y-123641428D01*
X169013095Y-123831904D01*
X168965476Y-123927142D01*
X168917857Y-123974761D01*
X168822619Y-124022380D01*
X168727380Y-124022380D01*
X168632142Y-123974761D01*
X168584523Y-123927142D01*
X168536904Y-123831904D01*
X168489285Y-123641428D01*
X168489285Y-123403333D01*
X168536904Y-123212857D01*
X168584523Y-123117619D01*
X168632142Y-123070000D01*
X168727380Y-123022380D01*
X169441666Y-123117619D02*
X169489285Y-123070000D01*
X169584523Y-123022380D01*
X169822619Y-123022380D01*
X169917857Y-123070000D01*
X169965476Y-123117619D01*
X170013095Y-123212857D01*
X170013095Y-123308095D01*
X169965476Y-123450952D01*
X169394047Y-124022380D01*
X170013095Y-124022380D01*
G04 #@! TO.C,C203*
X175410952Y-108942142D02*
X175363333Y-108989761D01*
X175220476Y-109037380D01*
X175125238Y-109037380D01*
X174982380Y-108989761D01*
X174887142Y-108894523D01*
X174839523Y-108799285D01*
X174791904Y-108608809D01*
X174791904Y-108465952D01*
X174839523Y-108275476D01*
X174887142Y-108180238D01*
X174982380Y-108085000D01*
X175125238Y-108037380D01*
X175220476Y-108037380D01*
X175363333Y-108085000D01*
X175410952Y-108132619D01*
X175791904Y-108132619D02*
X175839523Y-108085000D01*
X175934761Y-108037380D01*
X176172857Y-108037380D01*
X176268095Y-108085000D01*
X176315714Y-108132619D01*
X176363333Y-108227857D01*
X176363333Y-108323095D01*
X176315714Y-108465952D01*
X175744285Y-109037380D01*
X176363333Y-109037380D01*
X176982380Y-108037380D02*
X177077619Y-108037380D01*
X177172857Y-108085000D01*
X177220476Y-108132619D01*
X177268095Y-108227857D01*
X177315714Y-108418333D01*
X177315714Y-108656428D01*
X177268095Y-108846904D01*
X177220476Y-108942142D01*
X177172857Y-108989761D01*
X177077619Y-109037380D01*
X176982380Y-109037380D01*
X176887142Y-108989761D01*
X176839523Y-108942142D01*
X176791904Y-108846904D01*
X176744285Y-108656428D01*
X176744285Y-108418333D01*
X176791904Y-108227857D01*
X176839523Y-108132619D01*
X176887142Y-108085000D01*
X176982380Y-108037380D01*
X177649047Y-108037380D02*
X178268095Y-108037380D01*
X177934761Y-108418333D01*
X178077619Y-108418333D01*
X178172857Y-108465952D01*
X178220476Y-108513571D01*
X178268095Y-108608809D01*
X178268095Y-108846904D01*
X178220476Y-108942142D01*
X178172857Y-108989761D01*
X178077619Y-109037380D01*
X177791904Y-109037380D01*
X177696666Y-108989761D01*
X177649047Y-108942142D01*
G04 #@! TO.C,C204*
X188745952Y-123167142D02*
X188698333Y-123214761D01*
X188555476Y-123262380D01*
X188460238Y-123262380D01*
X188317380Y-123214761D01*
X188222142Y-123119523D01*
X188174523Y-123024285D01*
X188126904Y-122833809D01*
X188126904Y-122690952D01*
X188174523Y-122500476D01*
X188222142Y-122405238D01*
X188317380Y-122310000D01*
X188460238Y-122262380D01*
X188555476Y-122262380D01*
X188698333Y-122310000D01*
X188745952Y-122357619D01*
X189126904Y-122357619D02*
X189174523Y-122310000D01*
X189269761Y-122262380D01*
X189507857Y-122262380D01*
X189603095Y-122310000D01*
X189650714Y-122357619D01*
X189698333Y-122452857D01*
X189698333Y-122548095D01*
X189650714Y-122690952D01*
X189079285Y-123262380D01*
X189698333Y-123262380D01*
X190317380Y-122262380D02*
X190412619Y-122262380D01*
X190507857Y-122310000D01*
X190555476Y-122357619D01*
X190603095Y-122452857D01*
X190650714Y-122643333D01*
X190650714Y-122881428D01*
X190603095Y-123071904D01*
X190555476Y-123167142D01*
X190507857Y-123214761D01*
X190412619Y-123262380D01*
X190317380Y-123262380D01*
X190222142Y-123214761D01*
X190174523Y-123167142D01*
X190126904Y-123071904D01*
X190079285Y-122881428D01*
X190079285Y-122643333D01*
X190126904Y-122452857D01*
X190174523Y-122357619D01*
X190222142Y-122310000D01*
X190317380Y-122262380D01*
X191507857Y-122595714D02*
X191507857Y-123262380D01*
X191269761Y-122214761D02*
X191031666Y-122929047D01*
X191650714Y-122929047D01*
G04 #@! TO.C,C205*
X188745952Y-115547142D02*
X188698333Y-115594761D01*
X188555476Y-115642380D01*
X188460238Y-115642380D01*
X188317380Y-115594761D01*
X188222142Y-115499523D01*
X188174523Y-115404285D01*
X188126904Y-115213809D01*
X188126904Y-115070952D01*
X188174523Y-114880476D01*
X188222142Y-114785238D01*
X188317380Y-114690000D01*
X188460238Y-114642380D01*
X188555476Y-114642380D01*
X188698333Y-114690000D01*
X188745952Y-114737619D01*
X189126904Y-114737619D02*
X189174523Y-114690000D01*
X189269761Y-114642380D01*
X189507857Y-114642380D01*
X189603095Y-114690000D01*
X189650714Y-114737619D01*
X189698333Y-114832857D01*
X189698333Y-114928095D01*
X189650714Y-115070952D01*
X189079285Y-115642380D01*
X189698333Y-115642380D01*
X190317380Y-114642380D02*
X190412619Y-114642380D01*
X190507857Y-114690000D01*
X190555476Y-114737619D01*
X190603095Y-114832857D01*
X190650714Y-115023333D01*
X190650714Y-115261428D01*
X190603095Y-115451904D01*
X190555476Y-115547142D01*
X190507857Y-115594761D01*
X190412619Y-115642380D01*
X190317380Y-115642380D01*
X190222142Y-115594761D01*
X190174523Y-115547142D01*
X190126904Y-115451904D01*
X190079285Y-115261428D01*
X190079285Y-115023333D01*
X190126904Y-114832857D01*
X190174523Y-114737619D01*
X190222142Y-114690000D01*
X190317380Y-114642380D01*
X191555476Y-114642380D02*
X191079285Y-114642380D01*
X191031666Y-115118571D01*
X191079285Y-115070952D01*
X191174523Y-115023333D01*
X191412619Y-115023333D01*
X191507857Y-115070952D01*
X191555476Y-115118571D01*
X191603095Y-115213809D01*
X191603095Y-115451904D01*
X191555476Y-115547142D01*
X191507857Y-115594761D01*
X191412619Y-115642380D01*
X191174523Y-115642380D01*
X191079285Y-115594761D01*
X191031666Y-115547142D01*
G04 #@! TO.C,C206*
X187302142Y-106529047D02*
X187349761Y-106576666D01*
X187397380Y-106719523D01*
X187397380Y-106814761D01*
X187349761Y-106957619D01*
X187254523Y-107052857D01*
X187159285Y-107100476D01*
X186968809Y-107148095D01*
X186825952Y-107148095D01*
X186635476Y-107100476D01*
X186540238Y-107052857D01*
X186445000Y-106957619D01*
X186397380Y-106814761D01*
X186397380Y-106719523D01*
X186445000Y-106576666D01*
X186492619Y-106529047D01*
X186492619Y-106148095D02*
X186445000Y-106100476D01*
X186397380Y-106005238D01*
X186397380Y-105767142D01*
X186445000Y-105671904D01*
X186492619Y-105624285D01*
X186587857Y-105576666D01*
X186683095Y-105576666D01*
X186825952Y-105624285D01*
X187397380Y-106195714D01*
X187397380Y-105576666D01*
X186397380Y-104957619D02*
X186397380Y-104862380D01*
X186445000Y-104767142D01*
X186492619Y-104719523D01*
X186587857Y-104671904D01*
X186778333Y-104624285D01*
X187016428Y-104624285D01*
X187206904Y-104671904D01*
X187302142Y-104719523D01*
X187349761Y-104767142D01*
X187397380Y-104862380D01*
X187397380Y-104957619D01*
X187349761Y-105052857D01*
X187302142Y-105100476D01*
X187206904Y-105148095D01*
X187016428Y-105195714D01*
X186778333Y-105195714D01*
X186587857Y-105148095D01*
X186492619Y-105100476D01*
X186445000Y-105052857D01*
X186397380Y-104957619D01*
X186397380Y-103767142D02*
X186397380Y-103957619D01*
X186445000Y-104052857D01*
X186492619Y-104100476D01*
X186635476Y-104195714D01*
X186825952Y-104243333D01*
X187206904Y-104243333D01*
X187302142Y-104195714D01*
X187349761Y-104148095D01*
X187397380Y-104052857D01*
X187397380Y-103862380D01*
X187349761Y-103767142D01*
X187302142Y-103719523D01*
X187206904Y-103671904D01*
X186968809Y-103671904D01*
X186873571Y-103719523D01*
X186825952Y-103767142D01*
X186778333Y-103862380D01*
X186778333Y-104052857D01*
X186825952Y-104148095D01*
X186873571Y-104195714D01*
X186968809Y-104243333D01*
G04 #@! TO.C,C207*
X188745952Y-121642142D02*
X188698333Y-121689761D01*
X188555476Y-121737380D01*
X188460238Y-121737380D01*
X188317380Y-121689761D01*
X188222142Y-121594523D01*
X188174523Y-121499285D01*
X188126904Y-121308809D01*
X188126904Y-121165952D01*
X188174523Y-120975476D01*
X188222142Y-120880238D01*
X188317380Y-120785000D01*
X188460238Y-120737380D01*
X188555476Y-120737380D01*
X188698333Y-120785000D01*
X188745952Y-120832619D01*
X189126904Y-120832619D02*
X189174523Y-120785000D01*
X189269761Y-120737380D01*
X189507857Y-120737380D01*
X189603095Y-120785000D01*
X189650714Y-120832619D01*
X189698333Y-120927857D01*
X189698333Y-121023095D01*
X189650714Y-121165952D01*
X189079285Y-121737380D01*
X189698333Y-121737380D01*
X190317380Y-120737380D02*
X190412619Y-120737380D01*
X190507857Y-120785000D01*
X190555476Y-120832619D01*
X190603095Y-120927857D01*
X190650714Y-121118333D01*
X190650714Y-121356428D01*
X190603095Y-121546904D01*
X190555476Y-121642142D01*
X190507857Y-121689761D01*
X190412619Y-121737380D01*
X190317380Y-121737380D01*
X190222142Y-121689761D01*
X190174523Y-121642142D01*
X190126904Y-121546904D01*
X190079285Y-121356428D01*
X190079285Y-121118333D01*
X190126904Y-120927857D01*
X190174523Y-120832619D01*
X190222142Y-120785000D01*
X190317380Y-120737380D01*
X190984047Y-120737380D02*
X191650714Y-120737380D01*
X191222142Y-121737380D01*
G04 #@! TO.C,C208*
X184127142Y-106529047D02*
X184174761Y-106576666D01*
X184222380Y-106719523D01*
X184222380Y-106814761D01*
X184174761Y-106957619D01*
X184079523Y-107052857D01*
X183984285Y-107100476D01*
X183793809Y-107148095D01*
X183650952Y-107148095D01*
X183460476Y-107100476D01*
X183365238Y-107052857D01*
X183270000Y-106957619D01*
X183222380Y-106814761D01*
X183222380Y-106719523D01*
X183270000Y-106576666D01*
X183317619Y-106529047D01*
X183317619Y-106148095D02*
X183270000Y-106100476D01*
X183222380Y-106005238D01*
X183222380Y-105767142D01*
X183270000Y-105671904D01*
X183317619Y-105624285D01*
X183412857Y-105576666D01*
X183508095Y-105576666D01*
X183650952Y-105624285D01*
X184222380Y-106195714D01*
X184222380Y-105576666D01*
X183222380Y-104957619D02*
X183222380Y-104862380D01*
X183270000Y-104767142D01*
X183317619Y-104719523D01*
X183412857Y-104671904D01*
X183603333Y-104624285D01*
X183841428Y-104624285D01*
X184031904Y-104671904D01*
X184127142Y-104719523D01*
X184174761Y-104767142D01*
X184222380Y-104862380D01*
X184222380Y-104957619D01*
X184174761Y-105052857D01*
X184127142Y-105100476D01*
X184031904Y-105148095D01*
X183841428Y-105195714D01*
X183603333Y-105195714D01*
X183412857Y-105148095D01*
X183317619Y-105100476D01*
X183270000Y-105052857D01*
X183222380Y-104957619D01*
X183650952Y-104052857D02*
X183603333Y-104148095D01*
X183555714Y-104195714D01*
X183460476Y-104243333D01*
X183412857Y-104243333D01*
X183317619Y-104195714D01*
X183270000Y-104148095D01*
X183222380Y-104052857D01*
X183222380Y-103862380D01*
X183270000Y-103767142D01*
X183317619Y-103719523D01*
X183412857Y-103671904D01*
X183460476Y-103671904D01*
X183555714Y-103719523D01*
X183603333Y-103767142D01*
X183650952Y-103862380D01*
X183650952Y-104052857D01*
X183698571Y-104148095D01*
X183746190Y-104195714D01*
X183841428Y-104243333D01*
X184031904Y-104243333D01*
X184127142Y-104195714D01*
X184174761Y-104148095D01*
X184222380Y-104052857D01*
X184222380Y-103862380D01*
X184174761Y-103767142D01*
X184127142Y-103719523D01*
X184031904Y-103671904D01*
X183841428Y-103671904D01*
X183746190Y-103719523D01*
X183698571Y-103767142D01*
X183650952Y-103862380D01*
G04 #@! TO.C,C209*
X182395952Y-133707142D02*
X182348333Y-133754761D01*
X182205476Y-133802380D01*
X182110238Y-133802380D01*
X181967380Y-133754761D01*
X181872142Y-133659523D01*
X181824523Y-133564285D01*
X181776904Y-133373809D01*
X181776904Y-133230952D01*
X181824523Y-133040476D01*
X181872142Y-132945238D01*
X181967380Y-132850000D01*
X182110238Y-132802380D01*
X182205476Y-132802380D01*
X182348333Y-132850000D01*
X182395952Y-132897619D01*
X182776904Y-132897619D02*
X182824523Y-132850000D01*
X182919761Y-132802380D01*
X183157857Y-132802380D01*
X183253095Y-132850000D01*
X183300714Y-132897619D01*
X183348333Y-132992857D01*
X183348333Y-133088095D01*
X183300714Y-133230952D01*
X182729285Y-133802380D01*
X183348333Y-133802380D01*
X183967380Y-132802380D02*
X184062619Y-132802380D01*
X184157857Y-132850000D01*
X184205476Y-132897619D01*
X184253095Y-132992857D01*
X184300714Y-133183333D01*
X184300714Y-133421428D01*
X184253095Y-133611904D01*
X184205476Y-133707142D01*
X184157857Y-133754761D01*
X184062619Y-133802380D01*
X183967380Y-133802380D01*
X183872142Y-133754761D01*
X183824523Y-133707142D01*
X183776904Y-133611904D01*
X183729285Y-133421428D01*
X183729285Y-133183333D01*
X183776904Y-132992857D01*
X183824523Y-132897619D01*
X183872142Y-132850000D01*
X183967380Y-132802380D01*
X184776904Y-133802380D02*
X184967380Y-133802380D01*
X185062619Y-133754761D01*
X185110238Y-133707142D01*
X185205476Y-133564285D01*
X185253095Y-133373809D01*
X185253095Y-132992857D01*
X185205476Y-132897619D01*
X185157857Y-132850000D01*
X185062619Y-132802380D01*
X184872142Y-132802380D01*
X184776904Y-132850000D01*
X184729285Y-132897619D01*
X184681666Y-132992857D01*
X184681666Y-133230952D01*
X184729285Y-133326190D01*
X184776904Y-133373809D01*
X184872142Y-133421428D01*
X185062619Y-133421428D01*
X185157857Y-133373809D01*
X185205476Y-133326190D01*
X185253095Y-133230952D01*
G04 #@! TO.C,C210*
X180952142Y-106529047D02*
X180999761Y-106576666D01*
X181047380Y-106719523D01*
X181047380Y-106814761D01*
X180999761Y-106957619D01*
X180904523Y-107052857D01*
X180809285Y-107100476D01*
X180618809Y-107148095D01*
X180475952Y-107148095D01*
X180285476Y-107100476D01*
X180190238Y-107052857D01*
X180095000Y-106957619D01*
X180047380Y-106814761D01*
X180047380Y-106719523D01*
X180095000Y-106576666D01*
X180142619Y-106529047D01*
X180142619Y-106148095D02*
X180095000Y-106100476D01*
X180047380Y-106005238D01*
X180047380Y-105767142D01*
X180095000Y-105671904D01*
X180142619Y-105624285D01*
X180237857Y-105576666D01*
X180333095Y-105576666D01*
X180475952Y-105624285D01*
X181047380Y-106195714D01*
X181047380Y-105576666D01*
X181047380Y-104624285D02*
X181047380Y-105195714D01*
X181047380Y-104910000D02*
X180047380Y-104910000D01*
X180190238Y-105005238D01*
X180285476Y-105100476D01*
X180333095Y-105195714D01*
X180047380Y-104005238D02*
X180047380Y-103910000D01*
X180095000Y-103814761D01*
X180142619Y-103767142D01*
X180237857Y-103719523D01*
X180428333Y-103671904D01*
X180666428Y-103671904D01*
X180856904Y-103719523D01*
X180952142Y-103767142D01*
X180999761Y-103814761D01*
X181047380Y-103910000D01*
X181047380Y-104005238D01*
X180999761Y-104100476D01*
X180952142Y-104148095D01*
X180856904Y-104195714D01*
X180666428Y-104243333D01*
X180428333Y-104243333D01*
X180237857Y-104195714D01*
X180142619Y-104148095D01*
X180095000Y-104100476D01*
X180047380Y-104005238D01*
G04 #@! TO.C,C211*
X177315952Y-114022142D02*
X177268333Y-114069761D01*
X177125476Y-114117380D01*
X177030238Y-114117380D01*
X176887380Y-114069761D01*
X176792142Y-113974523D01*
X176744523Y-113879285D01*
X176696904Y-113688809D01*
X176696904Y-113545952D01*
X176744523Y-113355476D01*
X176792142Y-113260238D01*
X176887380Y-113165000D01*
X177030238Y-113117380D01*
X177125476Y-113117380D01*
X177268333Y-113165000D01*
X177315952Y-113212619D01*
X177696904Y-113212619D02*
X177744523Y-113165000D01*
X177839761Y-113117380D01*
X178077857Y-113117380D01*
X178173095Y-113165000D01*
X178220714Y-113212619D01*
X178268333Y-113307857D01*
X178268333Y-113403095D01*
X178220714Y-113545952D01*
X177649285Y-114117380D01*
X178268333Y-114117380D01*
X179220714Y-114117380D02*
X178649285Y-114117380D01*
X178935000Y-114117380D02*
X178935000Y-113117380D01*
X178839761Y-113260238D01*
X178744523Y-113355476D01*
X178649285Y-113403095D01*
X180173095Y-114117380D02*
X179601666Y-114117380D01*
X179887380Y-114117380D02*
X179887380Y-113117380D01*
X179792142Y-113260238D01*
X179696904Y-113355476D01*
X179601666Y-113403095D01*
G04 #@! TO.C,C212*
X198477142Y-125579047D02*
X198524761Y-125626666D01*
X198572380Y-125769523D01*
X198572380Y-125864761D01*
X198524761Y-126007619D01*
X198429523Y-126102857D01*
X198334285Y-126150476D01*
X198143809Y-126198095D01*
X198000952Y-126198095D01*
X197810476Y-126150476D01*
X197715238Y-126102857D01*
X197620000Y-126007619D01*
X197572380Y-125864761D01*
X197572380Y-125769523D01*
X197620000Y-125626666D01*
X197667619Y-125579047D01*
X197667619Y-125198095D02*
X197620000Y-125150476D01*
X197572380Y-125055238D01*
X197572380Y-124817142D01*
X197620000Y-124721904D01*
X197667619Y-124674285D01*
X197762857Y-124626666D01*
X197858095Y-124626666D01*
X198000952Y-124674285D01*
X198572380Y-125245714D01*
X198572380Y-124626666D01*
X198572380Y-123674285D02*
X198572380Y-124245714D01*
X198572380Y-123960000D02*
X197572380Y-123960000D01*
X197715238Y-124055238D01*
X197810476Y-124150476D01*
X197858095Y-124245714D01*
X197667619Y-123293333D02*
X197620000Y-123245714D01*
X197572380Y-123150476D01*
X197572380Y-122912380D01*
X197620000Y-122817142D01*
X197667619Y-122769523D01*
X197762857Y-122721904D01*
X197858095Y-122721904D01*
X198000952Y-122769523D01*
X198572380Y-123340952D01*
X198572380Y-122721904D01*
G04 #@! TO.C,C213*
X193825952Y-113642142D02*
X193778333Y-113689761D01*
X193635476Y-113737380D01*
X193540238Y-113737380D01*
X193397380Y-113689761D01*
X193302142Y-113594523D01*
X193254523Y-113499285D01*
X193206904Y-113308809D01*
X193206904Y-113165952D01*
X193254523Y-112975476D01*
X193302142Y-112880238D01*
X193397380Y-112785000D01*
X193540238Y-112737380D01*
X193635476Y-112737380D01*
X193778333Y-112785000D01*
X193825952Y-112832619D01*
X194206904Y-112832619D02*
X194254523Y-112785000D01*
X194349761Y-112737380D01*
X194587857Y-112737380D01*
X194683095Y-112785000D01*
X194730714Y-112832619D01*
X194778333Y-112927857D01*
X194778333Y-113023095D01*
X194730714Y-113165952D01*
X194159285Y-113737380D01*
X194778333Y-113737380D01*
X195730714Y-113737380D02*
X195159285Y-113737380D01*
X195445000Y-113737380D02*
X195445000Y-112737380D01*
X195349761Y-112880238D01*
X195254523Y-112975476D01*
X195159285Y-113023095D01*
X196064047Y-112737380D02*
X196683095Y-112737380D01*
X196349761Y-113118333D01*
X196492619Y-113118333D01*
X196587857Y-113165952D01*
X196635476Y-113213571D01*
X196683095Y-113308809D01*
X196683095Y-113546904D01*
X196635476Y-113642142D01*
X196587857Y-113689761D01*
X196492619Y-113737380D01*
X196206904Y-113737380D01*
X196111666Y-113689761D01*
X196064047Y-113642142D01*
G04 #@! TO.C,C214*
X179220952Y-108942142D02*
X179173333Y-108989761D01*
X179030476Y-109037380D01*
X178935238Y-109037380D01*
X178792380Y-108989761D01*
X178697142Y-108894523D01*
X178649523Y-108799285D01*
X178601904Y-108608809D01*
X178601904Y-108465952D01*
X178649523Y-108275476D01*
X178697142Y-108180238D01*
X178792380Y-108085000D01*
X178935238Y-108037380D01*
X179030476Y-108037380D01*
X179173333Y-108085000D01*
X179220952Y-108132619D01*
X179601904Y-108132619D02*
X179649523Y-108085000D01*
X179744761Y-108037380D01*
X179982857Y-108037380D01*
X180078095Y-108085000D01*
X180125714Y-108132619D01*
X180173333Y-108227857D01*
X180173333Y-108323095D01*
X180125714Y-108465952D01*
X179554285Y-109037380D01*
X180173333Y-109037380D01*
X181125714Y-109037380D02*
X180554285Y-109037380D01*
X180840000Y-109037380D02*
X180840000Y-108037380D01*
X180744761Y-108180238D01*
X180649523Y-108275476D01*
X180554285Y-108323095D01*
X181982857Y-108370714D02*
X181982857Y-109037380D01*
X181744761Y-107989761D02*
X181506666Y-108704047D01*
X182125714Y-108704047D01*
G04 #@! TO.C,C215*
X177777142Y-106529047D02*
X177824761Y-106576666D01*
X177872380Y-106719523D01*
X177872380Y-106814761D01*
X177824761Y-106957619D01*
X177729523Y-107052857D01*
X177634285Y-107100476D01*
X177443809Y-107148095D01*
X177300952Y-107148095D01*
X177110476Y-107100476D01*
X177015238Y-107052857D01*
X176920000Y-106957619D01*
X176872380Y-106814761D01*
X176872380Y-106719523D01*
X176920000Y-106576666D01*
X176967619Y-106529047D01*
X176967619Y-106148095D02*
X176920000Y-106100476D01*
X176872380Y-106005238D01*
X176872380Y-105767142D01*
X176920000Y-105671904D01*
X176967619Y-105624285D01*
X177062857Y-105576666D01*
X177158095Y-105576666D01*
X177300952Y-105624285D01*
X177872380Y-106195714D01*
X177872380Y-105576666D01*
X177872380Y-104624285D02*
X177872380Y-105195714D01*
X177872380Y-104910000D02*
X176872380Y-104910000D01*
X177015238Y-105005238D01*
X177110476Y-105100476D01*
X177158095Y-105195714D01*
X176872380Y-103719523D02*
X176872380Y-104195714D01*
X177348571Y-104243333D01*
X177300952Y-104195714D01*
X177253333Y-104100476D01*
X177253333Y-103862380D01*
X177300952Y-103767142D01*
X177348571Y-103719523D01*
X177443809Y-103671904D01*
X177681904Y-103671904D01*
X177777142Y-103719523D01*
X177824761Y-103767142D01*
X177872380Y-103862380D01*
X177872380Y-104100476D01*
X177824761Y-104195714D01*
X177777142Y-104243333D01*
G04 #@! TO.C,C216*
X170537142Y-134469047D02*
X170584761Y-134516666D01*
X170632380Y-134659523D01*
X170632380Y-134754761D01*
X170584761Y-134897619D01*
X170489523Y-134992857D01*
X170394285Y-135040476D01*
X170203809Y-135088095D01*
X170060952Y-135088095D01*
X169870476Y-135040476D01*
X169775238Y-134992857D01*
X169680000Y-134897619D01*
X169632380Y-134754761D01*
X169632380Y-134659523D01*
X169680000Y-134516666D01*
X169727619Y-134469047D01*
X169727619Y-134088095D02*
X169680000Y-134040476D01*
X169632380Y-133945238D01*
X169632380Y-133707142D01*
X169680000Y-133611904D01*
X169727619Y-133564285D01*
X169822857Y-133516666D01*
X169918095Y-133516666D01*
X170060952Y-133564285D01*
X170632380Y-134135714D01*
X170632380Y-133516666D01*
X170632380Y-132564285D02*
X170632380Y-133135714D01*
X170632380Y-132850000D02*
X169632380Y-132850000D01*
X169775238Y-132945238D01*
X169870476Y-133040476D01*
X169918095Y-133135714D01*
X169632380Y-131707142D02*
X169632380Y-131897619D01*
X169680000Y-131992857D01*
X169727619Y-132040476D01*
X169870476Y-132135714D01*
X170060952Y-132183333D01*
X170441904Y-132183333D01*
X170537142Y-132135714D01*
X170584761Y-132088095D01*
X170632380Y-131992857D01*
X170632380Y-131802380D01*
X170584761Y-131707142D01*
X170537142Y-131659523D01*
X170441904Y-131611904D01*
X170203809Y-131611904D01*
X170108571Y-131659523D01*
X170060952Y-131707142D01*
X170013333Y-131802380D01*
X170013333Y-131992857D01*
X170060952Y-132088095D01*
X170108571Y-132135714D01*
X170203809Y-132183333D01*
G04 #@! TO.C,C217*
X174602142Y-106529047D02*
X174649761Y-106576666D01*
X174697380Y-106719523D01*
X174697380Y-106814761D01*
X174649761Y-106957619D01*
X174554523Y-107052857D01*
X174459285Y-107100476D01*
X174268809Y-107148095D01*
X174125952Y-107148095D01*
X173935476Y-107100476D01*
X173840238Y-107052857D01*
X173745000Y-106957619D01*
X173697380Y-106814761D01*
X173697380Y-106719523D01*
X173745000Y-106576666D01*
X173792619Y-106529047D01*
X173792619Y-106148095D02*
X173745000Y-106100476D01*
X173697380Y-106005238D01*
X173697380Y-105767142D01*
X173745000Y-105671904D01*
X173792619Y-105624285D01*
X173887857Y-105576666D01*
X173983095Y-105576666D01*
X174125952Y-105624285D01*
X174697380Y-106195714D01*
X174697380Y-105576666D01*
X174697380Y-104624285D02*
X174697380Y-105195714D01*
X174697380Y-104910000D02*
X173697380Y-104910000D01*
X173840238Y-105005238D01*
X173935476Y-105100476D01*
X173983095Y-105195714D01*
X173697380Y-104290952D02*
X173697380Y-103624285D01*
X174697380Y-104052857D01*
G04 #@! TO.C,C218*
X186412142Y-112244047D02*
X186459761Y-112291666D01*
X186507380Y-112434523D01*
X186507380Y-112529761D01*
X186459761Y-112672619D01*
X186364523Y-112767857D01*
X186269285Y-112815476D01*
X186078809Y-112863095D01*
X185935952Y-112863095D01*
X185745476Y-112815476D01*
X185650238Y-112767857D01*
X185555000Y-112672619D01*
X185507380Y-112529761D01*
X185507380Y-112434523D01*
X185555000Y-112291666D01*
X185602619Y-112244047D01*
X185602619Y-111863095D02*
X185555000Y-111815476D01*
X185507380Y-111720238D01*
X185507380Y-111482142D01*
X185555000Y-111386904D01*
X185602619Y-111339285D01*
X185697857Y-111291666D01*
X185793095Y-111291666D01*
X185935952Y-111339285D01*
X186507380Y-111910714D01*
X186507380Y-111291666D01*
X186507380Y-110339285D02*
X186507380Y-110910714D01*
X186507380Y-110625000D02*
X185507380Y-110625000D01*
X185650238Y-110720238D01*
X185745476Y-110815476D01*
X185793095Y-110910714D01*
X185935952Y-109767857D02*
X185888333Y-109863095D01*
X185840714Y-109910714D01*
X185745476Y-109958333D01*
X185697857Y-109958333D01*
X185602619Y-109910714D01*
X185555000Y-109863095D01*
X185507380Y-109767857D01*
X185507380Y-109577380D01*
X185555000Y-109482142D01*
X185602619Y-109434523D01*
X185697857Y-109386904D01*
X185745476Y-109386904D01*
X185840714Y-109434523D01*
X185888333Y-109482142D01*
X185935952Y-109577380D01*
X185935952Y-109767857D01*
X185983571Y-109863095D01*
X186031190Y-109910714D01*
X186126428Y-109958333D01*
X186316904Y-109958333D01*
X186412142Y-109910714D01*
X186459761Y-109863095D01*
X186507380Y-109767857D01*
X186507380Y-109577380D01*
X186459761Y-109482142D01*
X186412142Y-109434523D01*
X186316904Y-109386904D01*
X186126428Y-109386904D01*
X186031190Y-109434523D01*
X185983571Y-109482142D01*
X185935952Y-109577380D01*
G04 #@! TO.C,C219*
X171427142Y-106529047D02*
X171474761Y-106576666D01*
X171522380Y-106719523D01*
X171522380Y-106814761D01*
X171474761Y-106957619D01*
X171379523Y-107052857D01*
X171284285Y-107100476D01*
X171093809Y-107148095D01*
X170950952Y-107148095D01*
X170760476Y-107100476D01*
X170665238Y-107052857D01*
X170570000Y-106957619D01*
X170522380Y-106814761D01*
X170522380Y-106719523D01*
X170570000Y-106576666D01*
X170617619Y-106529047D01*
X170617619Y-106148095D02*
X170570000Y-106100476D01*
X170522380Y-106005238D01*
X170522380Y-105767142D01*
X170570000Y-105671904D01*
X170617619Y-105624285D01*
X170712857Y-105576666D01*
X170808095Y-105576666D01*
X170950952Y-105624285D01*
X171522380Y-106195714D01*
X171522380Y-105576666D01*
X171522380Y-104624285D02*
X171522380Y-105195714D01*
X171522380Y-104910000D02*
X170522380Y-104910000D01*
X170665238Y-105005238D01*
X170760476Y-105100476D01*
X170808095Y-105195714D01*
X171522380Y-104148095D02*
X171522380Y-103957619D01*
X171474761Y-103862380D01*
X171427142Y-103814761D01*
X171284285Y-103719523D01*
X171093809Y-103671904D01*
X170712857Y-103671904D01*
X170617619Y-103719523D01*
X170570000Y-103767142D01*
X170522380Y-103862380D01*
X170522380Y-104052857D01*
X170570000Y-104148095D01*
X170617619Y-104195714D01*
X170712857Y-104243333D01*
X170950952Y-104243333D01*
X171046190Y-104195714D01*
X171093809Y-104148095D01*
X171141428Y-104052857D01*
X171141428Y-103862380D01*
X171093809Y-103767142D01*
X171046190Y-103719523D01*
X170950952Y-103671904D01*
G04 #@! TO.C,C220*
X172697142Y-112244047D02*
X172744761Y-112291666D01*
X172792380Y-112434523D01*
X172792380Y-112529761D01*
X172744761Y-112672619D01*
X172649523Y-112767857D01*
X172554285Y-112815476D01*
X172363809Y-112863095D01*
X172220952Y-112863095D01*
X172030476Y-112815476D01*
X171935238Y-112767857D01*
X171840000Y-112672619D01*
X171792380Y-112529761D01*
X171792380Y-112434523D01*
X171840000Y-112291666D01*
X171887619Y-112244047D01*
X171887619Y-111863095D02*
X171840000Y-111815476D01*
X171792380Y-111720238D01*
X171792380Y-111482142D01*
X171840000Y-111386904D01*
X171887619Y-111339285D01*
X171982857Y-111291666D01*
X172078095Y-111291666D01*
X172220952Y-111339285D01*
X172792380Y-111910714D01*
X172792380Y-111291666D01*
X171887619Y-110910714D02*
X171840000Y-110863095D01*
X171792380Y-110767857D01*
X171792380Y-110529761D01*
X171840000Y-110434523D01*
X171887619Y-110386904D01*
X171982857Y-110339285D01*
X172078095Y-110339285D01*
X172220952Y-110386904D01*
X172792380Y-110958333D01*
X172792380Y-110339285D01*
X171792380Y-109720238D02*
X171792380Y-109625000D01*
X171840000Y-109529761D01*
X171887619Y-109482142D01*
X171982857Y-109434523D01*
X172173333Y-109386904D01*
X172411428Y-109386904D01*
X172601904Y-109434523D01*
X172697142Y-109482142D01*
X172744761Y-109529761D01*
X172792380Y-109625000D01*
X172792380Y-109720238D01*
X172744761Y-109815476D01*
X172697142Y-109863095D01*
X172601904Y-109910714D01*
X172411428Y-109958333D01*
X172173333Y-109958333D01*
X171982857Y-109910714D01*
X171887619Y-109863095D01*
X171840000Y-109815476D01*
X171792380Y-109720238D01*
G04 #@! TO.C,C221*
X179807142Y-133834047D02*
X179854761Y-133881666D01*
X179902380Y-134024523D01*
X179902380Y-134119761D01*
X179854761Y-134262619D01*
X179759523Y-134357857D01*
X179664285Y-134405476D01*
X179473809Y-134453095D01*
X179330952Y-134453095D01*
X179140476Y-134405476D01*
X179045238Y-134357857D01*
X178950000Y-134262619D01*
X178902380Y-134119761D01*
X178902380Y-134024523D01*
X178950000Y-133881666D01*
X178997619Y-133834047D01*
X178997619Y-133453095D02*
X178950000Y-133405476D01*
X178902380Y-133310238D01*
X178902380Y-133072142D01*
X178950000Y-132976904D01*
X178997619Y-132929285D01*
X179092857Y-132881666D01*
X179188095Y-132881666D01*
X179330952Y-132929285D01*
X179902380Y-133500714D01*
X179902380Y-132881666D01*
X178997619Y-132500714D02*
X178950000Y-132453095D01*
X178902380Y-132357857D01*
X178902380Y-132119761D01*
X178950000Y-132024523D01*
X178997619Y-131976904D01*
X179092857Y-131929285D01*
X179188095Y-131929285D01*
X179330952Y-131976904D01*
X179902380Y-132548333D01*
X179902380Y-131929285D01*
X179902380Y-130976904D02*
X179902380Y-131548333D01*
X179902380Y-131262619D02*
X178902380Y-131262619D01*
X179045238Y-131357857D01*
X179140476Y-131453095D01*
X179188095Y-131548333D01*
G04 #@! TO.C,C222*
X181125952Y-114022142D02*
X181078333Y-114069761D01*
X180935476Y-114117380D01*
X180840238Y-114117380D01*
X180697380Y-114069761D01*
X180602142Y-113974523D01*
X180554523Y-113879285D01*
X180506904Y-113688809D01*
X180506904Y-113545952D01*
X180554523Y-113355476D01*
X180602142Y-113260238D01*
X180697380Y-113165000D01*
X180840238Y-113117380D01*
X180935476Y-113117380D01*
X181078333Y-113165000D01*
X181125952Y-113212619D01*
X181506904Y-113212619D02*
X181554523Y-113165000D01*
X181649761Y-113117380D01*
X181887857Y-113117380D01*
X181983095Y-113165000D01*
X182030714Y-113212619D01*
X182078333Y-113307857D01*
X182078333Y-113403095D01*
X182030714Y-113545952D01*
X181459285Y-114117380D01*
X182078333Y-114117380D01*
X182459285Y-113212619D02*
X182506904Y-113165000D01*
X182602142Y-113117380D01*
X182840238Y-113117380D01*
X182935476Y-113165000D01*
X182983095Y-113212619D01*
X183030714Y-113307857D01*
X183030714Y-113403095D01*
X182983095Y-113545952D01*
X182411666Y-114117380D01*
X183030714Y-114117380D01*
X183411666Y-113212619D02*
X183459285Y-113165000D01*
X183554523Y-113117380D01*
X183792619Y-113117380D01*
X183887857Y-113165000D01*
X183935476Y-113212619D01*
X183983095Y-113307857D01*
X183983095Y-113403095D01*
X183935476Y-113545952D01*
X183364047Y-114117380D01*
X183983095Y-114117380D01*
G04 #@! TO.C,C223*
X166520952Y-127737142D02*
X166473333Y-127784761D01*
X166330476Y-127832380D01*
X166235238Y-127832380D01*
X166092380Y-127784761D01*
X165997142Y-127689523D01*
X165949523Y-127594285D01*
X165901904Y-127403809D01*
X165901904Y-127260952D01*
X165949523Y-127070476D01*
X165997142Y-126975238D01*
X166092380Y-126880000D01*
X166235238Y-126832380D01*
X166330476Y-126832380D01*
X166473333Y-126880000D01*
X166520952Y-126927619D01*
X166901904Y-126927619D02*
X166949523Y-126880000D01*
X167044761Y-126832380D01*
X167282857Y-126832380D01*
X167378095Y-126880000D01*
X167425714Y-126927619D01*
X167473333Y-127022857D01*
X167473333Y-127118095D01*
X167425714Y-127260952D01*
X166854285Y-127832380D01*
X167473333Y-127832380D01*
X167854285Y-126927619D02*
X167901904Y-126880000D01*
X167997142Y-126832380D01*
X168235238Y-126832380D01*
X168330476Y-126880000D01*
X168378095Y-126927619D01*
X168425714Y-127022857D01*
X168425714Y-127118095D01*
X168378095Y-127260952D01*
X167806666Y-127832380D01*
X168425714Y-127832380D01*
X168759047Y-126832380D02*
X169378095Y-126832380D01*
X169044761Y-127213333D01*
X169187619Y-127213333D01*
X169282857Y-127260952D01*
X169330476Y-127308571D01*
X169378095Y-127403809D01*
X169378095Y-127641904D01*
X169330476Y-127737142D01*
X169282857Y-127784761D01*
X169187619Y-127832380D01*
X168901904Y-127832380D01*
X168806666Y-127784761D01*
X168759047Y-127737142D01*
G04 #@! TO.C,C224*
X188745952Y-129262142D02*
X188698333Y-129309761D01*
X188555476Y-129357380D01*
X188460238Y-129357380D01*
X188317380Y-129309761D01*
X188222142Y-129214523D01*
X188174523Y-129119285D01*
X188126904Y-128928809D01*
X188126904Y-128785952D01*
X188174523Y-128595476D01*
X188222142Y-128500238D01*
X188317380Y-128405000D01*
X188460238Y-128357380D01*
X188555476Y-128357380D01*
X188698333Y-128405000D01*
X188745952Y-128452619D01*
X189126904Y-128452619D02*
X189174523Y-128405000D01*
X189269761Y-128357380D01*
X189507857Y-128357380D01*
X189603095Y-128405000D01*
X189650714Y-128452619D01*
X189698333Y-128547857D01*
X189698333Y-128643095D01*
X189650714Y-128785952D01*
X189079285Y-129357380D01*
X189698333Y-129357380D01*
X190079285Y-128452619D02*
X190126904Y-128405000D01*
X190222142Y-128357380D01*
X190460238Y-128357380D01*
X190555476Y-128405000D01*
X190603095Y-128452619D01*
X190650714Y-128547857D01*
X190650714Y-128643095D01*
X190603095Y-128785952D01*
X190031666Y-129357380D01*
X190650714Y-129357380D01*
X191507857Y-128690714D02*
X191507857Y-129357380D01*
X191269761Y-128309761D02*
X191031666Y-129024047D01*
X191650714Y-129024047D01*
G04 #@! TO.C,C225*
X167155952Y-117832142D02*
X167108333Y-117879761D01*
X166965476Y-117927380D01*
X166870238Y-117927380D01*
X166727380Y-117879761D01*
X166632142Y-117784523D01*
X166584523Y-117689285D01*
X166536904Y-117498809D01*
X166536904Y-117355952D01*
X166584523Y-117165476D01*
X166632142Y-117070238D01*
X166727380Y-116975000D01*
X166870238Y-116927380D01*
X166965476Y-116927380D01*
X167108333Y-116975000D01*
X167155952Y-117022619D01*
X167536904Y-117022619D02*
X167584523Y-116975000D01*
X167679761Y-116927380D01*
X167917857Y-116927380D01*
X168013095Y-116975000D01*
X168060714Y-117022619D01*
X168108333Y-117117857D01*
X168108333Y-117213095D01*
X168060714Y-117355952D01*
X167489285Y-117927380D01*
X168108333Y-117927380D01*
X168489285Y-117022619D02*
X168536904Y-116975000D01*
X168632142Y-116927380D01*
X168870238Y-116927380D01*
X168965476Y-116975000D01*
X169013095Y-117022619D01*
X169060714Y-117117857D01*
X169060714Y-117213095D01*
X169013095Y-117355952D01*
X168441666Y-117927380D01*
X169060714Y-117927380D01*
X169965476Y-116927380D02*
X169489285Y-116927380D01*
X169441666Y-117403571D01*
X169489285Y-117355952D01*
X169584523Y-117308333D01*
X169822619Y-117308333D01*
X169917857Y-117355952D01*
X169965476Y-117403571D01*
X170013095Y-117498809D01*
X170013095Y-117736904D01*
X169965476Y-117832142D01*
X169917857Y-117879761D01*
X169822619Y-117927380D01*
X169584523Y-117927380D01*
X169489285Y-117879761D01*
X169441666Y-117832142D01*
G04 #@! TO.C,C301*
X143867142Y-109704047D02*
X143914761Y-109751666D01*
X143962380Y-109894523D01*
X143962380Y-109989761D01*
X143914761Y-110132619D01*
X143819523Y-110227857D01*
X143724285Y-110275476D01*
X143533809Y-110323095D01*
X143390952Y-110323095D01*
X143200476Y-110275476D01*
X143105238Y-110227857D01*
X143010000Y-110132619D01*
X142962380Y-109989761D01*
X142962380Y-109894523D01*
X143010000Y-109751666D01*
X143057619Y-109704047D01*
X142962380Y-109370714D02*
X142962380Y-108751666D01*
X143343333Y-109085000D01*
X143343333Y-108942142D01*
X143390952Y-108846904D01*
X143438571Y-108799285D01*
X143533809Y-108751666D01*
X143771904Y-108751666D01*
X143867142Y-108799285D01*
X143914761Y-108846904D01*
X143962380Y-108942142D01*
X143962380Y-109227857D01*
X143914761Y-109323095D01*
X143867142Y-109370714D01*
X142962380Y-108132619D02*
X142962380Y-108037380D01*
X143010000Y-107942142D01*
X143057619Y-107894523D01*
X143152857Y-107846904D01*
X143343333Y-107799285D01*
X143581428Y-107799285D01*
X143771904Y-107846904D01*
X143867142Y-107894523D01*
X143914761Y-107942142D01*
X143962380Y-108037380D01*
X143962380Y-108132619D01*
X143914761Y-108227857D01*
X143867142Y-108275476D01*
X143771904Y-108323095D01*
X143581428Y-108370714D01*
X143343333Y-108370714D01*
X143152857Y-108323095D01*
X143057619Y-108275476D01*
X143010000Y-108227857D01*
X142962380Y-108132619D01*
X143962380Y-106846904D02*
X143962380Y-107418333D01*
X143962380Y-107132619D02*
X142962380Y-107132619D01*
X143105238Y-107227857D01*
X143200476Y-107323095D01*
X143248095Y-107418333D01*
G04 #@! TO.C,C302*
X152550952Y-115672142D02*
X152503333Y-115719761D01*
X152360476Y-115767380D01*
X152265238Y-115767380D01*
X152122380Y-115719761D01*
X152027142Y-115624523D01*
X151979523Y-115529285D01*
X151931904Y-115338809D01*
X151931904Y-115195952D01*
X151979523Y-115005476D01*
X152027142Y-114910238D01*
X152122380Y-114815000D01*
X152265238Y-114767380D01*
X152360476Y-114767380D01*
X152503333Y-114815000D01*
X152550952Y-114862619D01*
X152884285Y-114767380D02*
X153503333Y-114767380D01*
X153170000Y-115148333D01*
X153312857Y-115148333D01*
X153408095Y-115195952D01*
X153455714Y-115243571D01*
X153503333Y-115338809D01*
X153503333Y-115576904D01*
X153455714Y-115672142D01*
X153408095Y-115719761D01*
X153312857Y-115767380D01*
X153027142Y-115767380D01*
X152931904Y-115719761D01*
X152884285Y-115672142D01*
X154122380Y-114767380D02*
X154217619Y-114767380D01*
X154312857Y-114815000D01*
X154360476Y-114862619D01*
X154408095Y-114957857D01*
X154455714Y-115148333D01*
X154455714Y-115386428D01*
X154408095Y-115576904D01*
X154360476Y-115672142D01*
X154312857Y-115719761D01*
X154217619Y-115767380D01*
X154122380Y-115767380D01*
X154027142Y-115719761D01*
X153979523Y-115672142D01*
X153931904Y-115576904D01*
X153884285Y-115386428D01*
X153884285Y-115148333D01*
X153931904Y-114957857D01*
X153979523Y-114862619D01*
X154027142Y-114815000D01*
X154122380Y-114767380D01*
X154836666Y-114862619D02*
X154884285Y-114815000D01*
X154979523Y-114767380D01*
X155217619Y-114767380D01*
X155312857Y-114815000D01*
X155360476Y-114862619D01*
X155408095Y-114957857D01*
X155408095Y-115053095D01*
X155360476Y-115195952D01*
X154789047Y-115767380D01*
X155408095Y-115767380D01*
G04 #@! TO.C,C303*
X152550952Y-101957142D02*
X152503333Y-102004761D01*
X152360476Y-102052380D01*
X152265238Y-102052380D01*
X152122380Y-102004761D01*
X152027142Y-101909523D01*
X151979523Y-101814285D01*
X151931904Y-101623809D01*
X151931904Y-101480952D01*
X151979523Y-101290476D01*
X152027142Y-101195238D01*
X152122380Y-101100000D01*
X152265238Y-101052380D01*
X152360476Y-101052380D01*
X152503333Y-101100000D01*
X152550952Y-101147619D01*
X152884285Y-101052380D02*
X153503333Y-101052380D01*
X153170000Y-101433333D01*
X153312857Y-101433333D01*
X153408095Y-101480952D01*
X153455714Y-101528571D01*
X153503333Y-101623809D01*
X153503333Y-101861904D01*
X153455714Y-101957142D01*
X153408095Y-102004761D01*
X153312857Y-102052380D01*
X153027142Y-102052380D01*
X152931904Y-102004761D01*
X152884285Y-101957142D01*
X154122380Y-101052380D02*
X154217619Y-101052380D01*
X154312857Y-101100000D01*
X154360476Y-101147619D01*
X154408095Y-101242857D01*
X154455714Y-101433333D01*
X154455714Y-101671428D01*
X154408095Y-101861904D01*
X154360476Y-101957142D01*
X154312857Y-102004761D01*
X154217619Y-102052380D01*
X154122380Y-102052380D01*
X154027142Y-102004761D01*
X153979523Y-101957142D01*
X153931904Y-101861904D01*
X153884285Y-101671428D01*
X153884285Y-101433333D01*
X153931904Y-101242857D01*
X153979523Y-101147619D01*
X154027142Y-101100000D01*
X154122380Y-101052380D01*
X154789047Y-101052380D02*
X155408095Y-101052380D01*
X155074761Y-101433333D01*
X155217619Y-101433333D01*
X155312857Y-101480952D01*
X155360476Y-101528571D01*
X155408095Y-101623809D01*
X155408095Y-101861904D01*
X155360476Y-101957142D01*
X155312857Y-102004761D01*
X155217619Y-102052380D01*
X154931904Y-102052380D01*
X154836666Y-102004761D01*
X154789047Y-101957142D01*
G04 #@! TO.C,C304*
X163980952Y-102667142D02*
X163933333Y-102714761D01*
X163790476Y-102762380D01*
X163695238Y-102762380D01*
X163552380Y-102714761D01*
X163457142Y-102619523D01*
X163409523Y-102524285D01*
X163361904Y-102333809D01*
X163361904Y-102190952D01*
X163409523Y-102000476D01*
X163457142Y-101905238D01*
X163552380Y-101810000D01*
X163695238Y-101762380D01*
X163790476Y-101762380D01*
X163933333Y-101810000D01*
X163980952Y-101857619D01*
X164314285Y-101762380D02*
X164933333Y-101762380D01*
X164600000Y-102143333D01*
X164742857Y-102143333D01*
X164838095Y-102190952D01*
X164885714Y-102238571D01*
X164933333Y-102333809D01*
X164933333Y-102571904D01*
X164885714Y-102667142D01*
X164838095Y-102714761D01*
X164742857Y-102762380D01*
X164457142Y-102762380D01*
X164361904Y-102714761D01*
X164314285Y-102667142D01*
X165552380Y-101762380D02*
X165647619Y-101762380D01*
X165742857Y-101810000D01*
X165790476Y-101857619D01*
X165838095Y-101952857D01*
X165885714Y-102143333D01*
X165885714Y-102381428D01*
X165838095Y-102571904D01*
X165790476Y-102667142D01*
X165742857Y-102714761D01*
X165647619Y-102762380D01*
X165552380Y-102762380D01*
X165457142Y-102714761D01*
X165409523Y-102667142D01*
X165361904Y-102571904D01*
X165314285Y-102381428D01*
X165314285Y-102143333D01*
X165361904Y-101952857D01*
X165409523Y-101857619D01*
X165457142Y-101810000D01*
X165552380Y-101762380D01*
X166742857Y-102095714D02*
X166742857Y-102762380D01*
X166504761Y-101714761D02*
X166266666Y-102429047D01*
X166885714Y-102429047D01*
G04 #@! TO.C,C305*
X163980952Y-114022142D02*
X163933333Y-114069761D01*
X163790476Y-114117380D01*
X163695238Y-114117380D01*
X163552380Y-114069761D01*
X163457142Y-113974523D01*
X163409523Y-113879285D01*
X163361904Y-113688809D01*
X163361904Y-113545952D01*
X163409523Y-113355476D01*
X163457142Y-113260238D01*
X163552380Y-113165000D01*
X163695238Y-113117380D01*
X163790476Y-113117380D01*
X163933333Y-113165000D01*
X163980952Y-113212619D01*
X164314285Y-113117380D02*
X164933333Y-113117380D01*
X164600000Y-113498333D01*
X164742857Y-113498333D01*
X164838095Y-113545952D01*
X164885714Y-113593571D01*
X164933333Y-113688809D01*
X164933333Y-113926904D01*
X164885714Y-114022142D01*
X164838095Y-114069761D01*
X164742857Y-114117380D01*
X164457142Y-114117380D01*
X164361904Y-114069761D01*
X164314285Y-114022142D01*
X165552380Y-113117380D02*
X165647619Y-113117380D01*
X165742857Y-113165000D01*
X165790476Y-113212619D01*
X165838095Y-113307857D01*
X165885714Y-113498333D01*
X165885714Y-113736428D01*
X165838095Y-113926904D01*
X165790476Y-114022142D01*
X165742857Y-114069761D01*
X165647619Y-114117380D01*
X165552380Y-114117380D01*
X165457142Y-114069761D01*
X165409523Y-114022142D01*
X165361904Y-113926904D01*
X165314285Y-113736428D01*
X165314285Y-113498333D01*
X165361904Y-113307857D01*
X165409523Y-113212619D01*
X165457142Y-113165000D01*
X165552380Y-113117380D01*
X166790476Y-113117380D02*
X166314285Y-113117380D01*
X166266666Y-113593571D01*
X166314285Y-113545952D01*
X166409523Y-113498333D01*
X166647619Y-113498333D01*
X166742857Y-113545952D01*
X166790476Y-113593571D01*
X166838095Y-113688809D01*
X166838095Y-113926904D01*
X166790476Y-114022142D01*
X166742857Y-114069761D01*
X166647619Y-114117380D01*
X166409523Y-114117380D01*
X166314285Y-114069761D01*
X166266666Y-114022142D01*
G04 #@! TO.C,C401*
X170965952Y-93702142D02*
X170918333Y-93749761D01*
X170775476Y-93797380D01*
X170680238Y-93797380D01*
X170537380Y-93749761D01*
X170442142Y-93654523D01*
X170394523Y-93559285D01*
X170346904Y-93368809D01*
X170346904Y-93225952D01*
X170394523Y-93035476D01*
X170442142Y-92940238D01*
X170537380Y-92845000D01*
X170680238Y-92797380D01*
X170775476Y-92797380D01*
X170918333Y-92845000D01*
X170965952Y-92892619D01*
X171823095Y-93130714D02*
X171823095Y-93797380D01*
X171585000Y-92749761D02*
X171346904Y-93464047D01*
X171965952Y-93464047D01*
X172537380Y-92797380D02*
X172632619Y-92797380D01*
X172727857Y-92845000D01*
X172775476Y-92892619D01*
X172823095Y-92987857D01*
X172870714Y-93178333D01*
X172870714Y-93416428D01*
X172823095Y-93606904D01*
X172775476Y-93702142D01*
X172727857Y-93749761D01*
X172632619Y-93797380D01*
X172537380Y-93797380D01*
X172442142Y-93749761D01*
X172394523Y-93702142D01*
X172346904Y-93606904D01*
X172299285Y-93416428D01*
X172299285Y-93178333D01*
X172346904Y-92987857D01*
X172394523Y-92892619D01*
X172442142Y-92845000D01*
X172537380Y-92797380D01*
X173823095Y-93797380D02*
X173251666Y-93797380D01*
X173537380Y-93797380D02*
X173537380Y-92797380D01*
X173442142Y-92940238D01*
X173346904Y-93035476D01*
X173251666Y-93083095D01*
G04 #@! TO.C,C402*
X179220952Y-93702142D02*
X179173333Y-93749761D01*
X179030476Y-93797380D01*
X178935238Y-93797380D01*
X178792380Y-93749761D01*
X178697142Y-93654523D01*
X178649523Y-93559285D01*
X178601904Y-93368809D01*
X178601904Y-93225952D01*
X178649523Y-93035476D01*
X178697142Y-92940238D01*
X178792380Y-92845000D01*
X178935238Y-92797380D01*
X179030476Y-92797380D01*
X179173333Y-92845000D01*
X179220952Y-92892619D01*
X180078095Y-93130714D02*
X180078095Y-93797380D01*
X179840000Y-92749761D02*
X179601904Y-93464047D01*
X180220952Y-93464047D01*
X180792380Y-92797380D02*
X180887619Y-92797380D01*
X180982857Y-92845000D01*
X181030476Y-92892619D01*
X181078095Y-92987857D01*
X181125714Y-93178333D01*
X181125714Y-93416428D01*
X181078095Y-93606904D01*
X181030476Y-93702142D01*
X180982857Y-93749761D01*
X180887619Y-93797380D01*
X180792380Y-93797380D01*
X180697142Y-93749761D01*
X180649523Y-93702142D01*
X180601904Y-93606904D01*
X180554285Y-93416428D01*
X180554285Y-93178333D01*
X180601904Y-92987857D01*
X180649523Y-92892619D01*
X180697142Y-92845000D01*
X180792380Y-92797380D01*
X181506666Y-92892619D02*
X181554285Y-92845000D01*
X181649523Y-92797380D01*
X181887619Y-92797380D01*
X181982857Y-92845000D01*
X182030476Y-92892619D01*
X182078095Y-92987857D01*
X182078095Y-93083095D01*
X182030476Y-93225952D01*
X181459047Y-93797380D01*
X182078095Y-93797380D01*
G04 #@! TO.C,C403*
X186840952Y-93702142D02*
X186793333Y-93749761D01*
X186650476Y-93797380D01*
X186555238Y-93797380D01*
X186412380Y-93749761D01*
X186317142Y-93654523D01*
X186269523Y-93559285D01*
X186221904Y-93368809D01*
X186221904Y-93225952D01*
X186269523Y-93035476D01*
X186317142Y-92940238D01*
X186412380Y-92845000D01*
X186555238Y-92797380D01*
X186650476Y-92797380D01*
X186793333Y-92845000D01*
X186840952Y-92892619D01*
X187698095Y-93130714D02*
X187698095Y-93797380D01*
X187460000Y-92749761D02*
X187221904Y-93464047D01*
X187840952Y-93464047D01*
X188412380Y-92797380D02*
X188507619Y-92797380D01*
X188602857Y-92845000D01*
X188650476Y-92892619D01*
X188698095Y-92987857D01*
X188745714Y-93178333D01*
X188745714Y-93416428D01*
X188698095Y-93606904D01*
X188650476Y-93702142D01*
X188602857Y-93749761D01*
X188507619Y-93797380D01*
X188412380Y-93797380D01*
X188317142Y-93749761D01*
X188269523Y-93702142D01*
X188221904Y-93606904D01*
X188174285Y-93416428D01*
X188174285Y-93178333D01*
X188221904Y-92987857D01*
X188269523Y-92892619D01*
X188317142Y-92845000D01*
X188412380Y-92797380D01*
X189079047Y-92797380D02*
X189698095Y-92797380D01*
X189364761Y-93178333D01*
X189507619Y-93178333D01*
X189602857Y-93225952D01*
X189650476Y-93273571D01*
X189698095Y-93368809D01*
X189698095Y-93606904D01*
X189650476Y-93702142D01*
X189602857Y-93749761D01*
X189507619Y-93797380D01*
X189221904Y-93797380D01*
X189126666Y-93749761D01*
X189079047Y-93702142D01*
G04 #@! TO.C,C404*
X194460952Y-93702142D02*
X194413333Y-93749761D01*
X194270476Y-93797380D01*
X194175238Y-93797380D01*
X194032380Y-93749761D01*
X193937142Y-93654523D01*
X193889523Y-93559285D01*
X193841904Y-93368809D01*
X193841904Y-93225952D01*
X193889523Y-93035476D01*
X193937142Y-92940238D01*
X194032380Y-92845000D01*
X194175238Y-92797380D01*
X194270476Y-92797380D01*
X194413333Y-92845000D01*
X194460952Y-92892619D01*
X195318095Y-93130714D02*
X195318095Y-93797380D01*
X195080000Y-92749761D02*
X194841904Y-93464047D01*
X195460952Y-93464047D01*
X196032380Y-92797380D02*
X196127619Y-92797380D01*
X196222857Y-92845000D01*
X196270476Y-92892619D01*
X196318095Y-92987857D01*
X196365714Y-93178333D01*
X196365714Y-93416428D01*
X196318095Y-93606904D01*
X196270476Y-93702142D01*
X196222857Y-93749761D01*
X196127619Y-93797380D01*
X196032380Y-93797380D01*
X195937142Y-93749761D01*
X195889523Y-93702142D01*
X195841904Y-93606904D01*
X195794285Y-93416428D01*
X195794285Y-93178333D01*
X195841904Y-92987857D01*
X195889523Y-92892619D01*
X195937142Y-92845000D01*
X196032380Y-92797380D01*
X197222857Y-93130714D02*
X197222857Y-93797380D01*
X196984761Y-92749761D02*
X196746666Y-93464047D01*
X197365714Y-93464047D01*
G04 #@! TO.C,C405*
X170965952Y-96242142D02*
X170918333Y-96289761D01*
X170775476Y-96337380D01*
X170680238Y-96337380D01*
X170537380Y-96289761D01*
X170442142Y-96194523D01*
X170394523Y-96099285D01*
X170346904Y-95908809D01*
X170346904Y-95765952D01*
X170394523Y-95575476D01*
X170442142Y-95480238D01*
X170537380Y-95385000D01*
X170680238Y-95337380D01*
X170775476Y-95337380D01*
X170918333Y-95385000D01*
X170965952Y-95432619D01*
X171823095Y-95670714D02*
X171823095Y-96337380D01*
X171585000Y-95289761D02*
X171346904Y-96004047D01*
X171965952Y-96004047D01*
X172537380Y-95337380D02*
X172632619Y-95337380D01*
X172727857Y-95385000D01*
X172775476Y-95432619D01*
X172823095Y-95527857D01*
X172870714Y-95718333D01*
X172870714Y-95956428D01*
X172823095Y-96146904D01*
X172775476Y-96242142D01*
X172727857Y-96289761D01*
X172632619Y-96337380D01*
X172537380Y-96337380D01*
X172442142Y-96289761D01*
X172394523Y-96242142D01*
X172346904Y-96146904D01*
X172299285Y-95956428D01*
X172299285Y-95718333D01*
X172346904Y-95527857D01*
X172394523Y-95432619D01*
X172442142Y-95385000D01*
X172537380Y-95337380D01*
X173775476Y-95337380D02*
X173299285Y-95337380D01*
X173251666Y-95813571D01*
X173299285Y-95765952D01*
X173394523Y-95718333D01*
X173632619Y-95718333D01*
X173727857Y-95765952D01*
X173775476Y-95813571D01*
X173823095Y-95908809D01*
X173823095Y-96146904D01*
X173775476Y-96242142D01*
X173727857Y-96289761D01*
X173632619Y-96337380D01*
X173394523Y-96337380D01*
X173299285Y-96289761D01*
X173251666Y-96242142D01*
G04 #@! TO.C,C406*
X179220952Y-96242142D02*
X179173333Y-96289761D01*
X179030476Y-96337380D01*
X178935238Y-96337380D01*
X178792380Y-96289761D01*
X178697142Y-96194523D01*
X178649523Y-96099285D01*
X178601904Y-95908809D01*
X178601904Y-95765952D01*
X178649523Y-95575476D01*
X178697142Y-95480238D01*
X178792380Y-95385000D01*
X178935238Y-95337380D01*
X179030476Y-95337380D01*
X179173333Y-95385000D01*
X179220952Y-95432619D01*
X180078095Y-95670714D02*
X180078095Y-96337380D01*
X179840000Y-95289761D02*
X179601904Y-96004047D01*
X180220952Y-96004047D01*
X180792380Y-95337380D02*
X180887619Y-95337380D01*
X180982857Y-95385000D01*
X181030476Y-95432619D01*
X181078095Y-95527857D01*
X181125714Y-95718333D01*
X181125714Y-95956428D01*
X181078095Y-96146904D01*
X181030476Y-96242142D01*
X180982857Y-96289761D01*
X180887619Y-96337380D01*
X180792380Y-96337380D01*
X180697142Y-96289761D01*
X180649523Y-96242142D01*
X180601904Y-96146904D01*
X180554285Y-95956428D01*
X180554285Y-95718333D01*
X180601904Y-95527857D01*
X180649523Y-95432619D01*
X180697142Y-95385000D01*
X180792380Y-95337380D01*
X181982857Y-95337380D02*
X181792380Y-95337380D01*
X181697142Y-95385000D01*
X181649523Y-95432619D01*
X181554285Y-95575476D01*
X181506666Y-95765952D01*
X181506666Y-96146904D01*
X181554285Y-96242142D01*
X181601904Y-96289761D01*
X181697142Y-96337380D01*
X181887619Y-96337380D01*
X181982857Y-96289761D01*
X182030476Y-96242142D01*
X182078095Y-96146904D01*
X182078095Y-95908809D01*
X182030476Y-95813571D01*
X181982857Y-95765952D01*
X181887619Y-95718333D01*
X181697142Y-95718333D01*
X181601904Y-95765952D01*
X181554285Y-95813571D01*
X181506666Y-95908809D01*
G04 #@! TO.C,C407*
X186840952Y-96242142D02*
X186793333Y-96289761D01*
X186650476Y-96337380D01*
X186555238Y-96337380D01*
X186412380Y-96289761D01*
X186317142Y-96194523D01*
X186269523Y-96099285D01*
X186221904Y-95908809D01*
X186221904Y-95765952D01*
X186269523Y-95575476D01*
X186317142Y-95480238D01*
X186412380Y-95385000D01*
X186555238Y-95337380D01*
X186650476Y-95337380D01*
X186793333Y-95385000D01*
X186840952Y-95432619D01*
X187698095Y-95670714D02*
X187698095Y-96337380D01*
X187460000Y-95289761D02*
X187221904Y-96004047D01*
X187840952Y-96004047D01*
X188412380Y-95337380D02*
X188507619Y-95337380D01*
X188602857Y-95385000D01*
X188650476Y-95432619D01*
X188698095Y-95527857D01*
X188745714Y-95718333D01*
X188745714Y-95956428D01*
X188698095Y-96146904D01*
X188650476Y-96242142D01*
X188602857Y-96289761D01*
X188507619Y-96337380D01*
X188412380Y-96337380D01*
X188317142Y-96289761D01*
X188269523Y-96242142D01*
X188221904Y-96146904D01*
X188174285Y-95956428D01*
X188174285Y-95718333D01*
X188221904Y-95527857D01*
X188269523Y-95432619D01*
X188317142Y-95385000D01*
X188412380Y-95337380D01*
X189079047Y-95337380D02*
X189745714Y-95337380D01*
X189317142Y-96337380D01*
G04 #@! TO.C,C408*
X194460952Y-96242142D02*
X194413333Y-96289761D01*
X194270476Y-96337380D01*
X194175238Y-96337380D01*
X194032380Y-96289761D01*
X193937142Y-96194523D01*
X193889523Y-96099285D01*
X193841904Y-95908809D01*
X193841904Y-95765952D01*
X193889523Y-95575476D01*
X193937142Y-95480238D01*
X194032380Y-95385000D01*
X194175238Y-95337380D01*
X194270476Y-95337380D01*
X194413333Y-95385000D01*
X194460952Y-95432619D01*
X195318095Y-95670714D02*
X195318095Y-96337380D01*
X195080000Y-95289761D02*
X194841904Y-96004047D01*
X195460952Y-96004047D01*
X196032380Y-95337380D02*
X196127619Y-95337380D01*
X196222857Y-95385000D01*
X196270476Y-95432619D01*
X196318095Y-95527857D01*
X196365714Y-95718333D01*
X196365714Y-95956428D01*
X196318095Y-96146904D01*
X196270476Y-96242142D01*
X196222857Y-96289761D01*
X196127619Y-96337380D01*
X196032380Y-96337380D01*
X195937142Y-96289761D01*
X195889523Y-96242142D01*
X195841904Y-96146904D01*
X195794285Y-95956428D01*
X195794285Y-95718333D01*
X195841904Y-95527857D01*
X195889523Y-95432619D01*
X195937142Y-95385000D01*
X196032380Y-95337380D01*
X196937142Y-95765952D02*
X196841904Y-95718333D01*
X196794285Y-95670714D01*
X196746666Y-95575476D01*
X196746666Y-95527857D01*
X196794285Y-95432619D01*
X196841904Y-95385000D01*
X196937142Y-95337380D01*
X197127619Y-95337380D01*
X197222857Y-95385000D01*
X197270476Y-95432619D01*
X197318095Y-95527857D01*
X197318095Y-95575476D01*
X197270476Y-95670714D01*
X197222857Y-95718333D01*
X197127619Y-95765952D01*
X196937142Y-95765952D01*
X196841904Y-95813571D01*
X196794285Y-95861190D01*
X196746666Y-95956428D01*
X196746666Y-96146904D01*
X196794285Y-96242142D01*
X196841904Y-96289761D01*
X196937142Y-96337380D01*
X197127619Y-96337380D01*
X197222857Y-96289761D01*
X197270476Y-96242142D01*
X197318095Y-96146904D01*
X197318095Y-95956428D01*
X197270476Y-95861190D01*
X197222857Y-95813571D01*
X197127619Y-95765952D01*
G04 #@! TO.C,C409*
X170965952Y-98782142D02*
X170918333Y-98829761D01*
X170775476Y-98877380D01*
X170680238Y-98877380D01*
X170537380Y-98829761D01*
X170442142Y-98734523D01*
X170394523Y-98639285D01*
X170346904Y-98448809D01*
X170346904Y-98305952D01*
X170394523Y-98115476D01*
X170442142Y-98020238D01*
X170537380Y-97925000D01*
X170680238Y-97877380D01*
X170775476Y-97877380D01*
X170918333Y-97925000D01*
X170965952Y-97972619D01*
X171823095Y-98210714D02*
X171823095Y-98877380D01*
X171585000Y-97829761D02*
X171346904Y-98544047D01*
X171965952Y-98544047D01*
X172537380Y-97877380D02*
X172632619Y-97877380D01*
X172727857Y-97925000D01*
X172775476Y-97972619D01*
X172823095Y-98067857D01*
X172870714Y-98258333D01*
X172870714Y-98496428D01*
X172823095Y-98686904D01*
X172775476Y-98782142D01*
X172727857Y-98829761D01*
X172632619Y-98877380D01*
X172537380Y-98877380D01*
X172442142Y-98829761D01*
X172394523Y-98782142D01*
X172346904Y-98686904D01*
X172299285Y-98496428D01*
X172299285Y-98258333D01*
X172346904Y-98067857D01*
X172394523Y-97972619D01*
X172442142Y-97925000D01*
X172537380Y-97877380D01*
X173346904Y-98877380D02*
X173537380Y-98877380D01*
X173632619Y-98829761D01*
X173680238Y-98782142D01*
X173775476Y-98639285D01*
X173823095Y-98448809D01*
X173823095Y-98067857D01*
X173775476Y-97972619D01*
X173727857Y-97925000D01*
X173632619Y-97877380D01*
X173442142Y-97877380D01*
X173346904Y-97925000D01*
X173299285Y-97972619D01*
X173251666Y-98067857D01*
X173251666Y-98305952D01*
X173299285Y-98401190D01*
X173346904Y-98448809D01*
X173442142Y-98496428D01*
X173632619Y-98496428D01*
X173727857Y-98448809D01*
X173775476Y-98401190D01*
X173823095Y-98305952D01*
G04 #@! TO.C,C410*
X179220952Y-98782142D02*
X179173333Y-98829761D01*
X179030476Y-98877380D01*
X178935238Y-98877380D01*
X178792380Y-98829761D01*
X178697142Y-98734523D01*
X178649523Y-98639285D01*
X178601904Y-98448809D01*
X178601904Y-98305952D01*
X178649523Y-98115476D01*
X178697142Y-98020238D01*
X178792380Y-97925000D01*
X178935238Y-97877380D01*
X179030476Y-97877380D01*
X179173333Y-97925000D01*
X179220952Y-97972619D01*
X180078095Y-98210714D02*
X180078095Y-98877380D01*
X179840000Y-97829761D02*
X179601904Y-98544047D01*
X180220952Y-98544047D01*
X181125714Y-98877380D02*
X180554285Y-98877380D01*
X180840000Y-98877380D02*
X180840000Y-97877380D01*
X180744761Y-98020238D01*
X180649523Y-98115476D01*
X180554285Y-98163095D01*
X181744761Y-97877380D02*
X181840000Y-97877380D01*
X181935238Y-97925000D01*
X181982857Y-97972619D01*
X182030476Y-98067857D01*
X182078095Y-98258333D01*
X182078095Y-98496428D01*
X182030476Y-98686904D01*
X181982857Y-98782142D01*
X181935238Y-98829761D01*
X181840000Y-98877380D01*
X181744761Y-98877380D01*
X181649523Y-98829761D01*
X181601904Y-98782142D01*
X181554285Y-98686904D01*
X181506666Y-98496428D01*
X181506666Y-98258333D01*
X181554285Y-98067857D01*
X181601904Y-97972619D01*
X181649523Y-97925000D01*
X181744761Y-97877380D01*
G04 #@! TO.C,C411*
X186840952Y-98782142D02*
X186793333Y-98829761D01*
X186650476Y-98877380D01*
X186555238Y-98877380D01*
X186412380Y-98829761D01*
X186317142Y-98734523D01*
X186269523Y-98639285D01*
X186221904Y-98448809D01*
X186221904Y-98305952D01*
X186269523Y-98115476D01*
X186317142Y-98020238D01*
X186412380Y-97925000D01*
X186555238Y-97877380D01*
X186650476Y-97877380D01*
X186793333Y-97925000D01*
X186840952Y-97972619D01*
X187698095Y-98210714D02*
X187698095Y-98877380D01*
X187460000Y-97829761D02*
X187221904Y-98544047D01*
X187840952Y-98544047D01*
X188745714Y-98877380D02*
X188174285Y-98877380D01*
X188460000Y-98877380D02*
X188460000Y-97877380D01*
X188364761Y-98020238D01*
X188269523Y-98115476D01*
X188174285Y-98163095D01*
X189698095Y-98877380D02*
X189126666Y-98877380D01*
X189412380Y-98877380D02*
X189412380Y-97877380D01*
X189317142Y-98020238D01*
X189221904Y-98115476D01*
X189126666Y-98163095D01*
G04 #@! TO.C,C412*
X194460952Y-98782142D02*
X194413333Y-98829761D01*
X194270476Y-98877380D01*
X194175238Y-98877380D01*
X194032380Y-98829761D01*
X193937142Y-98734523D01*
X193889523Y-98639285D01*
X193841904Y-98448809D01*
X193841904Y-98305952D01*
X193889523Y-98115476D01*
X193937142Y-98020238D01*
X194032380Y-97925000D01*
X194175238Y-97877380D01*
X194270476Y-97877380D01*
X194413333Y-97925000D01*
X194460952Y-97972619D01*
X195318095Y-98210714D02*
X195318095Y-98877380D01*
X195080000Y-97829761D02*
X194841904Y-98544047D01*
X195460952Y-98544047D01*
X196365714Y-98877380D02*
X195794285Y-98877380D01*
X196080000Y-98877380D02*
X196080000Y-97877380D01*
X195984761Y-98020238D01*
X195889523Y-98115476D01*
X195794285Y-98163095D01*
X196746666Y-97972619D02*
X196794285Y-97925000D01*
X196889523Y-97877380D01*
X197127619Y-97877380D01*
X197222857Y-97925000D01*
X197270476Y-97972619D01*
X197318095Y-98067857D01*
X197318095Y-98163095D01*
X197270476Y-98305952D01*
X196699047Y-98877380D01*
X197318095Y-98877380D01*
G04 #@! TO.C,C413*
X167617142Y-100814047D02*
X167664761Y-100861666D01*
X167712380Y-101004523D01*
X167712380Y-101099761D01*
X167664761Y-101242619D01*
X167569523Y-101337857D01*
X167474285Y-101385476D01*
X167283809Y-101433095D01*
X167140952Y-101433095D01*
X166950476Y-101385476D01*
X166855238Y-101337857D01*
X166760000Y-101242619D01*
X166712380Y-101099761D01*
X166712380Y-101004523D01*
X166760000Y-100861666D01*
X166807619Y-100814047D01*
X167045714Y-99956904D02*
X167712380Y-99956904D01*
X166664761Y-100195000D02*
X167379047Y-100433095D01*
X167379047Y-99814047D01*
X167712380Y-98909285D02*
X167712380Y-99480714D01*
X167712380Y-99195000D02*
X166712380Y-99195000D01*
X166855238Y-99290238D01*
X166950476Y-99385476D01*
X166998095Y-99480714D01*
X166712380Y-98575952D02*
X166712380Y-97956904D01*
X167093333Y-98290238D01*
X167093333Y-98147380D01*
X167140952Y-98052142D01*
X167188571Y-98004523D01*
X167283809Y-97956904D01*
X167521904Y-97956904D01*
X167617142Y-98004523D01*
X167664761Y-98052142D01*
X167712380Y-98147380D01*
X167712380Y-98433095D01*
X167664761Y-98528333D01*
X167617142Y-98575952D01*
G04 #@! TO.C,C414*
X175872142Y-100814047D02*
X175919761Y-100861666D01*
X175967380Y-101004523D01*
X175967380Y-101099761D01*
X175919761Y-101242619D01*
X175824523Y-101337857D01*
X175729285Y-101385476D01*
X175538809Y-101433095D01*
X175395952Y-101433095D01*
X175205476Y-101385476D01*
X175110238Y-101337857D01*
X175015000Y-101242619D01*
X174967380Y-101099761D01*
X174967380Y-101004523D01*
X175015000Y-100861666D01*
X175062619Y-100814047D01*
X175300714Y-99956904D02*
X175967380Y-99956904D01*
X174919761Y-100195000D02*
X175634047Y-100433095D01*
X175634047Y-99814047D01*
X175967380Y-98909285D02*
X175967380Y-99480714D01*
X175967380Y-99195000D02*
X174967380Y-99195000D01*
X175110238Y-99290238D01*
X175205476Y-99385476D01*
X175253095Y-99480714D01*
X175300714Y-98052142D02*
X175967380Y-98052142D01*
X174919761Y-98290238D02*
X175634047Y-98528333D01*
X175634047Y-97909285D01*
G04 #@! TO.C,C415*
X183492142Y-100814047D02*
X183539761Y-100861666D01*
X183587380Y-101004523D01*
X183587380Y-101099761D01*
X183539761Y-101242619D01*
X183444523Y-101337857D01*
X183349285Y-101385476D01*
X183158809Y-101433095D01*
X183015952Y-101433095D01*
X182825476Y-101385476D01*
X182730238Y-101337857D01*
X182635000Y-101242619D01*
X182587380Y-101099761D01*
X182587380Y-101004523D01*
X182635000Y-100861666D01*
X182682619Y-100814047D01*
X182920714Y-99956904D02*
X183587380Y-99956904D01*
X182539761Y-100195000D02*
X183254047Y-100433095D01*
X183254047Y-99814047D01*
X183587380Y-98909285D02*
X183587380Y-99480714D01*
X183587380Y-99195000D02*
X182587380Y-99195000D01*
X182730238Y-99290238D01*
X182825476Y-99385476D01*
X182873095Y-99480714D01*
X182587380Y-98004523D02*
X182587380Y-98480714D01*
X183063571Y-98528333D01*
X183015952Y-98480714D01*
X182968333Y-98385476D01*
X182968333Y-98147380D01*
X183015952Y-98052142D01*
X183063571Y-98004523D01*
X183158809Y-97956904D01*
X183396904Y-97956904D01*
X183492142Y-98004523D01*
X183539761Y-98052142D01*
X183587380Y-98147380D01*
X183587380Y-98385476D01*
X183539761Y-98480714D01*
X183492142Y-98528333D01*
G04 #@! TO.C,C416*
X191112142Y-100814047D02*
X191159761Y-100861666D01*
X191207380Y-101004523D01*
X191207380Y-101099761D01*
X191159761Y-101242619D01*
X191064523Y-101337857D01*
X190969285Y-101385476D01*
X190778809Y-101433095D01*
X190635952Y-101433095D01*
X190445476Y-101385476D01*
X190350238Y-101337857D01*
X190255000Y-101242619D01*
X190207380Y-101099761D01*
X190207380Y-101004523D01*
X190255000Y-100861666D01*
X190302619Y-100814047D01*
X190540714Y-99956904D02*
X191207380Y-99956904D01*
X190159761Y-100195000D02*
X190874047Y-100433095D01*
X190874047Y-99814047D01*
X191207380Y-98909285D02*
X191207380Y-99480714D01*
X191207380Y-99195000D02*
X190207380Y-99195000D01*
X190350238Y-99290238D01*
X190445476Y-99385476D01*
X190493095Y-99480714D01*
X190207380Y-98052142D02*
X190207380Y-98242619D01*
X190255000Y-98337857D01*
X190302619Y-98385476D01*
X190445476Y-98480714D01*
X190635952Y-98528333D01*
X191016904Y-98528333D01*
X191112142Y-98480714D01*
X191159761Y-98433095D01*
X191207380Y-98337857D01*
X191207380Y-98147380D01*
X191159761Y-98052142D01*
X191112142Y-98004523D01*
X191016904Y-97956904D01*
X190778809Y-97956904D01*
X190683571Y-98004523D01*
X190635952Y-98052142D01*
X190588333Y-98147380D01*
X190588333Y-98337857D01*
X190635952Y-98433095D01*
X190683571Y-98480714D01*
X190778809Y-98528333D01*
G04 #@! TO.C,C501*
X120372142Y-104624047D02*
X120419761Y-104671666D01*
X120467380Y-104814523D01*
X120467380Y-104909761D01*
X120419761Y-105052619D01*
X120324523Y-105147857D01*
X120229285Y-105195476D01*
X120038809Y-105243095D01*
X119895952Y-105243095D01*
X119705476Y-105195476D01*
X119610238Y-105147857D01*
X119515000Y-105052619D01*
X119467380Y-104909761D01*
X119467380Y-104814523D01*
X119515000Y-104671666D01*
X119562619Y-104624047D01*
X119467380Y-103719285D02*
X119467380Y-104195476D01*
X119943571Y-104243095D01*
X119895952Y-104195476D01*
X119848333Y-104100238D01*
X119848333Y-103862142D01*
X119895952Y-103766904D01*
X119943571Y-103719285D01*
X120038809Y-103671666D01*
X120276904Y-103671666D01*
X120372142Y-103719285D01*
X120419761Y-103766904D01*
X120467380Y-103862142D01*
X120467380Y-104100238D01*
X120419761Y-104195476D01*
X120372142Y-104243095D01*
X119467380Y-103052619D02*
X119467380Y-102957380D01*
X119515000Y-102862142D01*
X119562619Y-102814523D01*
X119657857Y-102766904D01*
X119848333Y-102719285D01*
X120086428Y-102719285D01*
X120276904Y-102766904D01*
X120372142Y-102814523D01*
X120419761Y-102862142D01*
X120467380Y-102957380D01*
X120467380Y-103052619D01*
X120419761Y-103147857D01*
X120372142Y-103195476D01*
X120276904Y-103243095D01*
X120086428Y-103290714D01*
X119848333Y-103290714D01*
X119657857Y-103243095D01*
X119562619Y-103195476D01*
X119515000Y-103147857D01*
X119467380Y-103052619D01*
X120467380Y-101766904D02*
X120467380Y-102338333D01*
X120467380Y-102052619D02*
X119467380Y-102052619D01*
X119610238Y-102147857D01*
X119705476Y-102243095D01*
X119753095Y-102338333D01*
G04 #@! TO.C,C502*
X140692142Y-102719047D02*
X140739761Y-102766666D01*
X140787380Y-102909523D01*
X140787380Y-103004761D01*
X140739761Y-103147619D01*
X140644523Y-103242857D01*
X140549285Y-103290476D01*
X140358809Y-103338095D01*
X140215952Y-103338095D01*
X140025476Y-103290476D01*
X139930238Y-103242857D01*
X139835000Y-103147619D01*
X139787380Y-103004761D01*
X139787380Y-102909523D01*
X139835000Y-102766666D01*
X139882619Y-102719047D01*
X139787380Y-101814285D02*
X139787380Y-102290476D01*
X140263571Y-102338095D01*
X140215952Y-102290476D01*
X140168333Y-102195238D01*
X140168333Y-101957142D01*
X140215952Y-101861904D01*
X140263571Y-101814285D01*
X140358809Y-101766666D01*
X140596904Y-101766666D01*
X140692142Y-101814285D01*
X140739761Y-101861904D01*
X140787380Y-101957142D01*
X140787380Y-102195238D01*
X140739761Y-102290476D01*
X140692142Y-102338095D01*
X139787380Y-101147619D02*
X139787380Y-101052380D01*
X139835000Y-100957142D01*
X139882619Y-100909523D01*
X139977857Y-100861904D01*
X140168333Y-100814285D01*
X140406428Y-100814285D01*
X140596904Y-100861904D01*
X140692142Y-100909523D01*
X140739761Y-100957142D01*
X140787380Y-101052380D01*
X140787380Y-101147619D01*
X140739761Y-101242857D01*
X140692142Y-101290476D01*
X140596904Y-101338095D01*
X140406428Y-101385714D01*
X140168333Y-101385714D01*
X139977857Y-101338095D01*
X139882619Y-101290476D01*
X139835000Y-101242857D01*
X139787380Y-101147619D01*
X139882619Y-100433333D02*
X139835000Y-100385714D01*
X139787380Y-100290476D01*
X139787380Y-100052380D01*
X139835000Y-99957142D01*
X139882619Y-99909523D01*
X139977857Y-99861904D01*
X140073095Y-99861904D01*
X140215952Y-99909523D01*
X140787380Y-100480952D01*
X140787380Y-99861904D01*
G04 #@! TO.C,C701*
X156995952Y-77827142D02*
X156948333Y-77874761D01*
X156805476Y-77922380D01*
X156710238Y-77922380D01*
X156567380Y-77874761D01*
X156472142Y-77779523D01*
X156424523Y-77684285D01*
X156376904Y-77493809D01*
X156376904Y-77350952D01*
X156424523Y-77160476D01*
X156472142Y-77065238D01*
X156567380Y-76970000D01*
X156710238Y-76922380D01*
X156805476Y-76922380D01*
X156948333Y-76970000D01*
X156995952Y-77017619D01*
X157329285Y-76922380D02*
X157995952Y-76922380D01*
X157567380Y-77922380D01*
X158567380Y-76922380D02*
X158662619Y-76922380D01*
X158757857Y-76970000D01*
X158805476Y-77017619D01*
X158853095Y-77112857D01*
X158900714Y-77303333D01*
X158900714Y-77541428D01*
X158853095Y-77731904D01*
X158805476Y-77827142D01*
X158757857Y-77874761D01*
X158662619Y-77922380D01*
X158567380Y-77922380D01*
X158472142Y-77874761D01*
X158424523Y-77827142D01*
X158376904Y-77731904D01*
X158329285Y-77541428D01*
X158329285Y-77303333D01*
X158376904Y-77112857D01*
X158424523Y-77017619D01*
X158472142Y-76970000D01*
X158567380Y-76922380D01*
X159853095Y-77922380D02*
X159281666Y-77922380D01*
X159567380Y-77922380D02*
X159567380Y-76922380D01*
X159472142Y-77065238D01*
X159376904Y-77160476D01*
X159281666Y-77208095D01*
G04 #@! TO.C,C702*
X168425952Y-77827142D02*
X168378333Y-77874761D01*
X168235476Y-77922380D01*
X168140238Y-77922380D01*
X167997380Y-77874761D01*
X167902142Y-77779523D01*
X167854523Y-77684285D01*
X167806904Y-77493809D01*
X167806904Y-77350952D01*
X167854523Y-77160476D01*
X167902142Y-77065238D01*
X167997380Y-76970000D01*
X168140238Y-76922380D01*
X168235476Y-76922380D01*
X168378333Y-76970000D01*
X168425952Y-77017619D01*
X168759285Y-76922380D02*
X169425952Y-76922380D01*
X168997380Y-77922380D01*
X169997380Y-76922380D02*
X170092619Y-76922380D01*
X170187857Y-76970000D01*
X170235476Y-77017619D01*
X170283095Y-77112857D01*
X170330714Y-77303333D01*
X170330714Y-77541428D01*
X170283095Y-77731904D01*
X170235476Y-77827142D01*
X170187857Y-77874761D01*
X170092619Y-77922380D01*
X169997380Y-77922380D01*
X169902142Y-77874761D01*
X169854523Y-77827142D01*
X169806904Y-77731904D01*
X169759285Y-77541428D01*
X169759285Y-77303333D01*
X169806904Y-77112857D01*
X169854523Y-77017619D01*
X169902142Y-76970000D01*
X169997380Y-76922380D01*
X170711666Y-77017619D02*
X170759285Y-76970000D01*
X170854523Y-76922380D01*
X171092619Y-76922380D01*
X171187857Y-76970000D01*
X171235476Y-77017619D01*
X171283095Y-77112857D01*
X171283095Y-77208095D01*
X171235476Y-77350952D01*
X170664047Y-77922380D01*
X171283095Y-77922380D01*
G04 #@! TO.C,C703*
X174347142Y-73509047D02*
X174394761Y-73556666D01*
X174442380Y-73699523D01*
X174442380Y-73794761D01*
X174394761Y-73937619D01*
X174299523Y-74032857D01*
X174204285Y-74080476D01*
X174013809Y-74128095D01*
X173870952Y-74128095D01*
X173680476Y-74080476D01*
X173585238Y-74032857D01*
X173490000Y-73937619D01*
X173442380Y-73794761D01*
X173442380Y-73699523D01*
X173490000Y-73556666D01*
X173537619Y-73509047D01*
X173442380Y-73175714D02*
X173442380Y-72509047D01*
X174442380Y-72937619D01*
X173442380Y-71937619D02*
X173442380Y-71842380D01*
X173490000Y-71747142D01*
X173537619Y-71699523D01*
X173632857Y-71651904D01*
X173823333Y-71604285D01*
X174061428Y-71604285D01*
X174251904Y-71651904D01*
X174347142Y-71699523D01*
X174394761Y-71747142D01*
X174442380Y-71842380D01*
X174442380Y-71937619D01*
X174394761Y-72032857D01*
X174347142Y-72080476D01*
X174251904Y-72128095D01*
X174061428Y-72175714D01*
X173823333Y-72175714D01*
X173632857Y-72128095D01*
X173537619Y-72080476D01*
X173490000Y-72032857D01*
X173442380Y-71937619D01*
X173442380Y-71270952D02*
X173442380Y-70651904D01*
X173823333Y-70985238D01*
X173823333Y-70842380D01*
X173870952Y-70747142D01*
X173918571Y-70699523D01*
X174013809Y-70651904D01*
X174251904Y-70651904D01*
X174347142Y-70699523D01*
X174394761Y-70747142D01*
X174442380Y-70842380D01*
X174442380Y-71128095D01*
X174394761Y-71223333D01*
X174347142Y-71270952D01*
G04 #@! TO.C,C704*
X157837142Y-73509047D02*
X157884761Y-73556666D01*
X157932380Y-73699523D01*
X157932380Y-73794761D01*
X157884761Y-73937619D01*
X157789523Y-74032857D01*
X157694285Y-74080476D01*
X157503809Y-74128095D01*
X157360952Y-74128095D01*
X157170476Y-74080476D01*
X157075238Y-74032857D01*
X156980000Y-73937619D01*
X156932380Y-73794761D01*
X156932380Y-73699523D01*
X156980000Y-73556666D01*
X157027619Y-73509047D01*
X156932380Y-73175714D02*
X156932380Y-72509047D01*
X157932380Y-72937619D01*
X156932380Y-71937619D02*
X156932380Y-71842380D01*
X156980000Y-71747142D01*
X157027619Y-71699523D01*
X157122857Y-71651904D01*
X157313333Y-71604285D01*
X157551428Y-71604285D01*
X157741904Y-71651904D01*
X157837142Y-71699523D01*
X157884761Y-71747142D01*
X157932380Y-71842380D01*
X157932380Y-71937619D01*
X157884761Y-72032857D01*
X157837142Y-72080476D01*
X157741904Y-72128095D01*
X157551428Y-72175714D01*
X157313333Y-72175714D01*
X157122857Y-72128095D01*
X157027619Y-72080476D01*
X156980000Y-72032857D01*
X156932380Y-71937619D01*
X157265714Y-70747142D02*
X157932380Y-70747142D01*
X156884761Y-70985238D02*
X157599047Y-71223333D01*
X157599047Y-70604285D01*
G04 #@! TO.C,C705*
X163980952Y-67667142D02*
X163933333Y-67714761D01*
X163790476Y-67762380D01*
X163695238Y-67762380D01*
X163552380Y-67714761D01*
X163457142Y-67619523D01*
X163409523Y-67524285D01*
X163361904Y-67333809D01*
X163361904Y-67190952D01*
X163409523Y-67000476D01*
X163457142Y-66905238D01*
X163552380Y-66810000D01*
X163695238Y-66762380D01*
X163790476Y-66762380D01*
X163933333Y-66810000D01*
X163980952Y-66857619D01*
X164314285Y-66762380D02*
X164980952Y-66762380D01*
X164552380Y-67762380D01*
X165552380Y-66762380D02*
X165647619Y-66762380D01*
X165742857Y-66810000D01*
X165790476Y-66857619D01*
X165838095Y-66952857D01*
X165885714Y-67143333D01*
X165885714Y-67381428D01*
X165838095Y-67571904D01*
X165790476Y-67667142D01*
X165742857Y-67714761D01*
X165647619Y-67762380D01*
X165552380Y-67762380D01*
X165457142Y-67714761D01*
X165409523Y-67667142D01*
X165361904Y-67571904D01*
X165314285Y-67381428D01*
X165314285Y-67143333D01*
X165361904Y-66952857D01*
X165409523Y-66857619D01*
X165457142Y-66810000D01*
X165552380Y-66762380D01*
X166790476Y-66762380D02*
X166314285Y-66762380D01*
X166266666Y-67238571D01*
X166314285Y-67190952D01*
X166409523Y-67143333D01*
X166647619Y-67143333D01*
X166742857Y-67190952D01*
X166790476Y-67238571D01*
X166838095Y-67333809D01*
X166838095Y-67571904D01*
X166790476Y-67667142D01*
X166742857Y-67714761D01*
X166647619Y-67762380D01*
X166409523Y-67762380D01*
X166314285Y-67714761D01*
X166266666Y-67667142D01*
G04 #@! TO.C,J401*
X187944285Y-71842380D02*
X187944285Y-72556666D01*
X187896666Y-72699523D01*
X187801428Y-72794761D01*
X187658571Y-72842380D01*
X187563333Y-72842380D01*
X188849047Y-72175714D02*
X188849047Y-72842380D01*
X188610952Y-71794761D02*
X188372857Y-72509047D01*
X188991904Y-72509047D01*
X189563333Y-71842380D02*
X189658571Y-71842380D01*
X189753809Y-71890000D01*
X189801428Y-71937619D01*
X189849047Y-72032857D01*
X189896666Y-72223333D01*
X189896666Y-72461428D01*
X189849047Y-72651904D01*
X189801428Y-72747142D01*
X189753809Y-72794761D01*
X189658571Y-72842380D01*
X189563333Y-72842380D01*
X189468095Y-72794761D01*
X189420476Y-72747142D01*
X189372857Y-72651904D01*
X189325238Y-72461428D01*
X189325238Y-72223333D01*
X189372857Y-72032857D01*
X189420476Y-71937619D01*
X189468095Y-71890000D01*
X189563333Y-71842380D01*
X190849047Y-72842380D02*
X190277619Y-72842380D01*
X190563333Y-72842380D02*
X190563333Y-71842380D01*
X190468095Y-71985238D01*
X190372857Y-72080476D01*
X190277619Y-72128095D01*
G04 #@! TO.C,J402*
X194929285Y-73747380D02*
X194929285Y-74461666D01*
X194881666Y-74604523D01*
X194786428Y-74699761D01*
X194643571Y-74747380D01*
X194548333Y-74747380D01*
X195834047Y-74080714D02*
X195834047Y-74747380D01*
X195595952Y-73699761D02*
X195357857Y-74414047D01*
X195976904Y-74414047D01*
X196548333Y-73747380D02*
X196643571Y-73747380D01*
X196738809Y-73795000D01*
X196786428Y-73842619D01*
X196834047Y-73937857D01*
X196881666Y-74128333D01*
X196881666Y-74366428D01*
X196834047Y-74556904D01*
X196786428Y-74652142D01*
X196738809Y-74699761D01*
X196643571Y-74747380D01*
X196548333Y-74747380D01*
X196453095Y-74699761D01*
X196405476Y-74652142D01*
X196357857Y-74556904D01*
X196310238Y-74366428D01*
X196310238Y-74128333D01*
X196357857Y-73937857D01*
X196405476Y-73842619D01*
X196453095Y-73795000D01*
X196548333Y-73747380D01*
X197262619Y-73842619D02*
X197310238Y-73795000D01*
X197405476Y-73747380D01*
X197643571Y-73747380D01*
X197738809Y-73795000D01*
X197786428Y-73842619D01*
X197834047Y-73937857D01*
X197834047Y-74033095D01*
X197786428Y-74175952D01*
X197215000Y-74747380D01*
X197834047Y-74747380D01*
G04 #@! TO.C,J601*
X171537380Y-85740714D02*
X172251666Y-85740714D01*
X172394523Y-85788333D01*
X172489761Y-85883571D01*
X172537380Y-86026428D01*
X172537380Y-86121666D01*
X171537380Y-84835952D02*
X171537380Y-85026428D01*
X171585000Y-85121666D01*
X171632619Y-85169285D01*
X171775476Y-85264523D01*
X171965952Y-85312142D01*
X172346904Y-85312142D01*
X172442142Y-85264523D01*
X172489761Y-85216904D01*
X172537380Y-85121666D01*
X172537380Y-84931190D01*
X172489761Y-84835952D01*
X172442142Y-84788333D01*
X172346904Y-84740714D01*
X172108809Y-84740714D01*
X172013571Y-84788333D01*
X171965952Y-84835952D01*
X171918333Y-84931190D01*
X171918333Y-85121666D01*
X171965952Y-85216904D01*
X172013571Y-85264523D01*
X172108809Y-85312142D01*
X171537380Y-84121666D02*
X171537380Y-84026428D01*
X171585000Y-83931190D01*
X171632619Y-83883571D01*
X171727857Y-83835952D01*
X171918333Y-83788333D01*
X172156428Y-83788333D01*
X172346904Y-83835952D01*
X172442142Y-83883571D01*
X172489761Y-83931190D01*
X172537380Y-84026428D01*
X172537380Y-84121666D01*
X172489761Y-84216904D01*
X172442142Y-84264523D01*
X172346904Y-84312142D01*
X172156428Y-84359761D01*
X171918333Y-84359761D01*
X171727857Y-84312142D01*
X171632619Y-84264523D01*
X171585000Y-84216904D01*
X171537380Y-84121666D01*
X172537380Y-82835952D02*
X172537380Y-83407380D01*
X172537380Y-83121666D02*
X171537380Y-83121666D01*
X171680238Y-83216904D01*
X171775476Y-83312142D01*
X171823095Y-83407380D01*
G04 #@! TO.C,J701*
X109839285Y-69302380D02*
X109839285Y-70016666D01*
X109791666Y-70159523D01*
X109696428Y-70254761D01*
X109553571Y-70302380D01*
X109458333Y-70302380D01*
X110220238Y-69302380D02*
X110886904Y-69302380D01*
X110458333Y-70302380D01*
X111458333Y-69302380D02*
X111553571Y-69302380D01*
X111648809Y-69350000D01*
X111696428Y-69397619D01*
X111744047Y-69492857D01*
X111791666Y-69683333D01*
X111791666Y-69921428D01*
X111744047Y-70111904D01*
X111696428Y-70207142D01*
X111648809Y-70254761D01*
X111553571Y-70302380D01*
X111458333Y-70302380D01*
X111363095Y-70254761D01*
X111315476Y-70207142D01*
X111267857Y-70111904D01*
X111220238Y-69921428D01*
X111220238Y-69683333D01*
X111267857Y-69492857D01*
X111315476Y-69397619D01*
X111363095Y-69350000D01*
X111458333Y-69302380D01*
X112744047Y-70302380D02*
X112172619Y-70302380D01*
X112458333Y-70302380D02*
X112458333Y-69302380D01*
X112363095Y-69445238D01*
X112267857Y-69540476D01*
X112172619Y-69588095D01*
G04 #@! TO.C,JP101*
X158202380Y-131960714D02*
X158916666Y-131960714D01*
X159059523Y-132008333D01*
X159154761Y-132103571D01*
X159202380Y-132246428D01*
X159202380Y-132341666D01*
X159202380Y-131484523D02*
X158202380Y-131484523D01*
X158202380Y-131103571D01*
X158250000Y-131008333D01*
X158297619Y-130960714D01*
X158392857Y-130913095D01*
X158535714Y-130913095D01*
X158630952Y-130960714D01*
X158678571Y-131008333D01*
X158726190Y-131103571D01*
X158726190Y-131484523D01*
X159202380Y-129960714D02*
X159202380Y-130532142D01*
X159202380Y-130246428D02*
X158202380Y-130246428D01*
X158345238Y-130341666D01*
X158440476Y-130436904D01*
X158488095Y-130532142D01*
X158202380Y-129341666D02*
X158202380Y-129246428D01*
X158250000Y-129151190D01*
X158297619Y-129103571D01*
X158392857Y-129055952D01*
X158583333Y-129008333D01*
X158821428Y-129008333D01*
X159011904Y-129055952D01*
X159107142Y-129103571D01*
X159154761Y-129151190D01*
X159202380Y-129246428D01*
X159202380Y-129341666D01*
X159154761Y-129436904D01*
X159107142Y-129484523D01*
X159011904Y-129532142D01*
X158821428Y-129579761D01*
X158583333Y-129579761D01*
X158392857Y-129532142D01*
X158297619Y-129484523D01*
X158250000Y-129436904D01*
X158202380Y-129341666D01*
X159202380Y-128055952D02*
X159202380Y-128627380D01*
X159202380Y-128341666D02*
X158202380Y-128341666D01*
X158345238Y-128436904D01*
X158440476Y-128532142D01*
X158488095Y-128627380D01*
G04 #@! TO.C,L401*
X167712380Y-93194047D02*
X167712380Y-93670238D01*
X166712380Y-93670238D01*
X167045714Y-92432142D02*
X167712380Y-92432142D01*
X166664761Y-92670238D02*
X167379047Y-92908333D01*
X167379047Y-92289285D01*
X166712380Y-91717857D02*
X166712380Y-91622619D01*
X166760000Y-91527380D01*
X166807619Y-91479761D01*
X166902857Y-91432142D01*
X167093333Y-91384523D01*
X167331428Y-91384523D01*
X167521904Y-91432142D01*
X167617142Y-91479761D01*
X167664761Y-91527380D01*
X167712380Y-91622619D01*
X167712380Y-91717857D01*
X167664761Y-91813095D01*
X167617142Y-91860714D01*
X167521904Y-91908333D01*
X167331428Y-91955952D01*
X167093333Y-91955952D01*
X166902857Y-91908333D01*
X166807619Y-91860714D01*
X166760000Y-91813095D01*
X166712380Y-91717857D01*
X167712380Y-90432142D02*
X167712380Y-91003571D01*
X167712380Y-90717857D02*
X166712380Y-90717857D01*
X166855238Y-90813095D01*
X166950476Y-90908333D01*
X166998095Y-91003571D01*
G04 #@! TO.C,L402*
X175967380Y-93194047D02*
X175967380Y-93670238D01*
X174967380Y-93670238D01*
X175300714Y-92432142D02*
X175967380Y-92432142D01*
X174919761Y-92670238D02*
X175634047Y-92908333D01*
X175634047Y-92289285D01*
X174967380Y-91717857D02*
X174967380Y-91622619D01*
X175015000Y-91527380D01*
X175062619Y-91479761D01*
X175157857Y-91432142D01*
X175348333Y-91384523D01*
X175586428Y-91384523D01*
X175776904Y-91432142D01*
X175872142Y-91479761D01*
X175919761Y-91527380D01*
X175967380Y-91622619D01*
X175967380Y-91717857D01*
X175919761Y-91813095D01*
X175872142Y-91860714D01*
X175776904Y-91908333D01*
X175586428Y-91955952D01*
X175348333Y-91955952D01*
X175157857Y-91908333D01*
X175062619Y-91860714D01*
X175015000Y-91813095D01*
X174967380Y-91717857D01*
X175062619Y-91003571D02*
X175015000Y-90955952D01*
X174967380Y-90860714D01*
X174967380Y-90622619D01*
X175015000Y-90527380D01*
X175062619Y-90479761D01*
X175157857Y-90432142D01*
X175253095Y-90432142D01*
X175395952Y-90479761D01*
X175967380Y-91051190D01*
X175967380Y-90432142D01*
G04 #@! TO.C,L403*
X183587380Y-93194047D02*
X183587380Y-93670238D01*
X182587380Y-93670238D01*
X182920714Y-92432142D02*
X183587380Y-92432142D01*
X182539761Y-92670238D02*
X183254047Y-92908333D01*
X183254047Y-92289285D01*
X182587380Y-91717857D02*
X182587380Y-91622619D01*
X182635000Y-91527380D01*
X182682619Y-91479761D01*
X182777857Y-91432142D01*
X182968333Y-91384523D01*
X183206428Y-91384523D01*
X183396904Y-91432142D01*
X183492142Y-91479761D01*
X183539761Y-91527380D01*
X183587380Y-91622619D01*
X183587380Y-91717857D01*
X183539761Y-91813095D01*
X183492142Y-91860714D01*
X183396904Y-91908333D01*
X183206428Y-91955952D01*
X182968333Y-91955952D01*
X182777857Y-91908333D01*
X182682619Y-91860714D01*
X182635000Y-91813095D01*
X182587380Y-91717857D01*
X182587380Y-91051190D02*
X182587380Y-90432142D01*
X182968333Y-90765476D01*
X182968333Y-90622619D01*
X183015952Y-90527380D01*
X183063571Y-90479761D01*
X183158809Y-90432142D01*
X183396904Y-90432142D01*
X183492142Y-90479761D01*
X183539761Y-90527380D01*
X183587380Y-90622619D01*
X183587380Y-90908333D01*
X183539761Y-91003571D01*
X183492142Y-91051190D01*
G04 #@! TO.C,L404*
X191207380Y-93194047D02*
X191207380Y-93670238D01*
X190207380Y-93670238D01*
X190540714Y-92432142D02*
X191207380Y-92432142D01*
X190159761Y-92670238D02*
X190874047Y-92908333D01*
X190874047Y-92289285D01*
X190207380Y-91717857D02*
X190207380Y-91622619D01*
X190255000Y-91527380D01*
X190302619Y-91479761D01*
X190397857Y-91432142D01*
X190588333Y-91384523D01*
X190826428Y-91384523D01*
X191016904Y-91432142D01*
X191112142Y-91479761D01*
X191159761Y-91527380D01*
X191207380Y-91622619D01*
X191207380Y-91717857D01*
X191159761Y-91813095D01*
X191112142Y-91860714D01*
X191016904Y-91908333D01*
X190826428Y-91955952D01*
X190588333Y-91955952D01*
X190397857Y-91908333D01*
X190302619Y-91860714D01*
X190255000Y-91813095D01*
X190207380Y-91717857D01*
X190540714Y-90527380D02*
X191207380Y-90527380D01*
X190159761Y-90765476D02*
X190874047Y-91003571D01*
X190874047Y-90384523D01*
G04 #@! TO.C,L405*
X167712380Y-97004047D02*
X167712380Y-97480238D01*
X166712380Y-97480238D01*
X167045714Y-96242142D02*
X167712380Y-96242142D01*
X166664761Y-96480238D02*
X167379047Y-96718333D01*
X167379047Y-96099285D01*
X166712380Y-95527857D02*
X166712380Y-95432619D01*
X166760000Y-95337380D01*
X166807619Y-95289761D01*
X166902857Y-95242142D01*
X167093333Y-95194523D01*
X167331428Y-95194523D01*
X167521904Y-95242142D01*
X167617142Y-95289761D01*
X167664761Y-95337380D01*
X167712380Y-95432619D01*
X167712380Y-95527857D01*
X167664761Y-95623095D01*
X167617142Y-95670714D01*
X167521904Y-95718333D01*
X167331428Y-95765952D01*
X167093333Y-95765952D01*
X166902857Y-95718333D01*
X166807619Y-95670714D01*
X166760000Y-95623095D01*
X166712380Y-95527857D01*
X166712380Y-94289761D02*
X166712380Y-94765952D01*
X167188571Y-94813571D01*
X167140952Y-94765952D01*
X167093333Y-94670714D01*
X167093333Y-94432619D01*
X167140952Y-94337380D01*
X167188571Y-94289761D01*
X167283809Y-94242142D01*
X167521904Y-94242142D01*
X167617142Y-94289761D01*
X167664761Y-94337380D01*
X167712380Y-94432619D01*
X167712380Y-94670714D01*
X167664761Y-94765952D01*
X167617142Y-94813571D01*
G04 #@! TO.C,L406*
X175967380Y-97004047D02*
X175967380Y-97480238D01*
X174967380Y-97480238D01*
X175300714Y-96242142D02*
X175967380Y-96242142D01*
X174919761Y-96480238D02*
X175634047Y-96718333D01*
X175634047Y-96099285D01*
X174967380Y-95527857D02*
X174967380Y-95432619D01*
X175015000Y-95337380D01*
X175062619Y-95289761D01*
X175157857Y-95242142D01*
X175348333Y-95194523D01*
X175586428Y-95194523D01*
X175776904Y-95242142D01*
X175872142Y-95289761D01*
X175919761Y-95337380D01*
X175967380Y-95432619D01*
X175967380Y-95527857D01*
X175919761Y-95623095D01*
X175872142Y-95670714D01*
X175776904Y-95718333D01*
X175586428Y-95765952D01*
X175348333Y-95765952D01*
X175157857Y-95718333D01*
X175062619Y-95670714D01*
X175015000Y-95623095D01*
X174967380Y-95527857D01*
X174967380Y-94337380D02*
X174967380Y-94527857D01*
X175015000Y-94623095D01*
X175062619Y-94670714D01*
X175205476Y-94765952D01*
X175395952Y-94813571D01*
X175776904Y-94813571D01*
X175872142Y-94765952D01*
X175919761Y-94718333D01*
X175967380Y-94623095D01*
X175967380Y-94432619D01*
X175919761Y-94337380D01*
X175872142Y-94289761D01*
X175776904Y-94242142D01*
X175538809Y-94242142D01*
X175443571Y-94289761D01*
X175395952Y-94337380D01*
X175348333Y-94432619D01*
X175348333Y-94623095D01*
X175395952Y-94718333D01*
X175443571Y-94765952D01*
X175538809Y-94813571D01*
G04 #@! TO.C,L407*
X183587380Y-97004047D02*
X183587380Y-97480238D01*
X182587380Y-97480238D01*
X182920714Y-96242142D02*
X183587380Y-96242142D01*
X182539761Y-96480238D02*
X183254047Y-96718333D01*
X183254047Y-96099285D01*
X182587380Y-95527857D02*
X182587380Y-95432619D01*
X182635000Y-95337380D01*
X182682619Y-95289761D01*
X182777857Y-95242142D01*
X182968333Y-95194523D01*
X183206428Y-95194523D01*
X183396904Y-95242142D01*
X183492142Y-95289761D01*
X183539761Y-95337380D01*
X183587380Y-95432619D01*
X183587380Y-95527857D01*
X183539761Y-95623095D01*
X183492142Y-95670714D01*
X183396904Y-95718333D01*
X183206428Y-95765952D01*
X182968333Y-95765952D01*
X182777857Y-95718333D01*
X182682619Y-95670714D01*
X182635000Y-95623095D01*
X182587380Y-95527857D01*
X182587380Y-94861190D02*
X182587380Y-94194523D01*
X183587380Y-94623095D01*
G04 #@! TO.C,L408*
X191207380Y-97004047D02*
X191207380Y-97480238D01*
X190207380Y-97480238D01*
X190540714Y-96242142D02*
X191207380Y-96242142D01*
X190159761Y-96480238D02*
X190874047Y-96718333D01*
X190874047Y-96099285D01*
X190207380Y-95527857D02*
X190207380Y-95432619D01*
X190255000Y-95337380D01*
X190302619Y-95289761D01*
X190397857Y-95242142D01*
X190588333Y-95194523D01*
X190826428Y-95194523D01*
X191016904Y-95242142D01*
X191112142Y-95289761D01*
X191159761Y-95337380D01*
X191207380Y-95432619D01*
X191207380Y-95527857D01*
X191159761Y-95623095D01*
X191112142Y-95670714D01*
X191016904Y-95718333D01*
X190826428Y-95765952D01*
X190588333Y-95765952D01*
X190397857Y-95718333D01*
X190302619Y-95670714D01*
X190255000Y-95623095D01*
X190207380Y-95527857D01*
X190635952Y-94623095D02*
X190588333Y-94718333D01*
X190540714Y-94765952D01*
X190445476Y-94813571D01*
X190397857Y-94813571D01*
X190302619Y-94765952D01*
X190255000Y-94718333D01*
X190207380Y-94623095D01*
X190207380Y-94432619D01*
X190255000Y-94337380D01*
X190302619Y-94289761D01*
X190397857Y-94242142D01*
X190445476Y-94242142D01*
X190540714Y-94289761D01*
X190588333Y-94337380D01*
X190635952Y-94432619D01*
X190635952Y-94623095D01*
X190683571Y-94718333D01*
X190731190Y-94765952D01*
X190826428Y-94813571D01*
X191016904Y-94813571D01*
X191112142Y-94765952D01*
X191159761Y-94718333D01*
X191207380Y-94623095D01*
X191207380Y-94432619D01*
X191159761Y-94337380D01*
X191112142Y-94289761D01*
X191016904Y-94242142D01*
X190826428Y-94242142D01*
X190731190Y-94289761D01*
X190683571Y-94337380D01*
X190635952Y-94432619D01*
G04 #@! TO.C,R101*
X154757380Y-120499047D02*
X154281190Y-120832380D01*
X154757380Y-121070476D02*
X153757380Y-121070476D01*
X153757380Y-120689523D01*
X153805000Y-120594285D01*
X153852619Y-120546666D01*
X153947857Y-120499047D01*
X154090714Y-120499047D01*
X154185952Y-120546666D01*
X154233571Y-120594285D01*
X154281190Y-120689523D01*
X154281190Y-121070476D01*
X154757380Y-119546666D02*
X154757380Y-120118095D01*
X154757380Y-119832380D02*
X153757380Y-119832380D01*
X153900238Y-119927619D01*
X153995476Y-120022857D01*
X154043095Y-120118095D01*
X153757380Y-118927619D02*
X153757380Y-118832380D01*
X153805000Y-118737142D01*
X153852619Y-118689523D01*
X153947857Y-118641904D01*
X154138333Y-118594285D01*
X154376428Y-118594285D01*
X154566904Y-118641904D01*
X154662142Y-118689523D01*
X154709761Y-118737142D01*
X154757380Y-118832380D01*
X154757380Y-118927619D01*
X154709761Y-119022857D01*
X154662142Y-119070476D01*
X154566904Y-119118095D01*
X154376428Y-119165714D01*
X154138333Y-119165714D01*
X153947857Y-119118095D01*
X153852619Y-119070476D01*
X153805000Y-119022857D01*
X153757380Y-118927619D01*
X154757380Y-117641904D02*
X154757380Y-118213333D01*
X154757380Y-117927619D02*
X153757380Y-117927619D01*
X153900238Y-118022857D01*
X153995476Y-118118095D01*
X154043095Y-118213333D01*
G04 #@! TO.C,R102*
X157297380Y-120499047D02*
X156821190Y-120832380D01*
X157297380Y-121070476D02*
X156297380Y-121070476D01*
X156297380Y-120689523D01*
X156345000Y-120594285D01*
X156392619Y-120546666D01*
X156487857Y-120499047D01*
X156630714Y-120499047D01*
X156725952Y-120546666D01*
X156773571Y-120594285D01*
X156821190Y-120689523D01*
X156821190Y-121070476D01*
X157297380Y-119546666D02*
X157297380Y-120118095D01*
X157297380Y-119832380D02*
X156297380Y-119832380D01*
X156440238Y-119927619D01*
X156535476Y-120022857D01*
X156583095Y-120118095D01*
X156297380Y-118927619D02*
X156297380Y-118832380D01*
X156345000Y-118737142D01*
X156392619Y-118689523D01*
X156487857Y-118641904D01*
X156678333Y-118594285D01*
X156916428Y-118594285D01*
X157106904Y-118641904D01*
X157202142Y-118689523D01*
X157249761Y-118737142D01*
X157297380Y-118832380D01*
X157297380Y-118927619D01*
X157249761Y-119022857D01*
X157202142Y-119070476D01*
X157106904Y-119118095D01*
X156916428Y-119165714D01*
X156678333Y-119165714D01*
X156487857Y-119118095D01*
X156392619Y-119070476D01*
X156345000Y-119022857D01*
X156297380Y-118927619D01*
X156392619Y-118213333D02*
X156345000Y-118165714D01*
X156297380Y-118070476D01*
X156297380Y-117832380D01*
X156345000Y-117737142D01*
X156392619Y-117689523D01*
X156487857Y-117641904D01*
X156583095Y-117641904D01*
X156725952Y-117689523D01*
X157297380Y-118260952D01*
X157297380Y-117641904D01*
G04 #@! TO.C,R201*
X158900952Y-122372380D02*
X158567619Y-121896190D01*
X158329523Y-122372380D02*
X158329523Y-121372380D01*
X158710476Y-121372380D01*
X158805714Y-121420000D01*
X158853333Y-121467619D01*
X158900952Y-121562857D01*
X158900952Y-121705714D01*
X158853333Y-121800952D01*
X158805714Y-121848571D01*
X158710476Y-121896190D01*
X158329523Y-121896190D01*
X159281904Y-121467619D02*
X159329523Y-121420000D01*
X159424761Y-121372380D01*
X159662857Y-121372380D01*
X159758095Y-121420000D01*
X159805714Y-121467619D01*
X159853333Y-121562857D01*
X159853333Y-121658095D01*
X159805714Y-121800952D01*
X159234285Y-122372380D01*
X159853333Y-122372380D01*
X160472380Y-121372380D02*
X160567619Y-121372380D01*
X160662857Y-121420000D01*
X160710476Y-121467619D01*
X160758095Y-121562857D01*
X160805714Y-121753333D01*
X160805714Y-121991428D01*
X160758095Y-122181904D01*
X160710476Y-122277142D01*
X160662857Y-122324761D01*
X160567619Y-122372380D01*
X160472380Y-122372380D01*
X160377142Y-122324761D01*
X160329523Y-122277142D01*
X160281904Y-122181904D01*
X160234285Y-121991428D01*
X160234285Y-121753333D01*
X160281904Y-121562857D01*
X160329523Y-121467619D01*
X160377142Y-121420000D01*
X160472380Y-121372380D01*
X161758095Y-122372380D02*
X161186666Y-122372380D01*
X161472380Y-122372380D02*
X161472380Y-121372380D01*
X161377142Y-121515238D01*
X161281904Y-121610476D01*
X161186666Y-121658095D01*
G04 #@! TO.C,R202*
X158900952Y-124912380D02*
X158567619Y-124436190D01*
X158329523Y-124912380D02*
X158329523Y-123912380D01*
X158710476Y-123912380D01*
X158805714Y-123960000D01*
X158853333Y-124007619D01*
X158900952Y-124102857D01*
X158900952Y-124245714D01*
X158853333Y-124340952D01*
X158805714Y-124388571D01*
X158710476Y-124436190D01*
X158329523Y-124436190D01*
X159281904Y-124007619D02*
X159329523Y-123960000D01*
X159424761Y-123912380D01*
X159662857Y-123912380D01*
X159758095Y-123960000D01*
X159805714Y-124007619D01*
X159853333Y-124102857D01*
X159853333Y-124198095D01*
X159805714Y-124340952D01*
X159234285Y-124912380D01*
X159853333Y-124912380D01*
X160472380Y-123912380D02*
X160567619Y-123912380D01*
X160662857Y-123960000D01*
X160710476Y-124007619D01*
X160758095Y-124102857D01*
X160805714Y-124293333D01*
X160805714Y-124531428D01*
X160758095Y-124721904D01*
X160710476Y-124817142D01*
X160662857Y-124864761D01*
X160567619Y-124912380D01*
X160472380Y-124912380D01*
X160377142Y-124864761D01*
X160329523Y-124817142D01*
X160281904Y-124721904D01*
X160234285Y-124531428D01*
X160234285Y-124293333D01*
X160281904Y-124102857D01*
X160329523Y-124007619D01*
X160377142Y-123960000D01*
X160472380Y-123912380D01*
X161186666Y-124007619D02*
X161234285Y-123960000D01*
X161329523Y-123912380D01*
X161567619Y-123912380D01*
X161662857Y-123960000D01*
X161710476Y-124007619D01*
X161758095Y-124102857D01*
X161758095Y-124198095D01*
X161710476Y-124340952D01*
X161139047Y-124912380D01*
X161758095Y-124912380D01*
G04 #@! TO.C,R203*
X193825952Y-128722380D02*
X193492619Y-128246190D01*
X193254523Y-128722380D02*
X193254523Y-127722380D01*
X193635476Y-127722380D01*
X193730714Y-127770000D01*
X193778333Y-127817619D01*
X193825952Y-127912857D01*
X193825952Y-128055714D01*
X193778333Y-128150952D01*
X193730714Y-128198571D01*
X193635476Y-128246190D01*
X193254523Y-128246190D01*
X194206904Y-127817619D02*
X194254523Y-127770000D01*
X194349761Y-127722380D01*
X194587857Y-127722380D01*
X194683095Y-127770000D01*
X194730714Y-127817619D01*
X194778333Y-127912857D01*
X194778333Y-128008095D01*
X194730714Y-128150952D01*
X194159285Y-128722380D01*
X194778333Y-128722380D01*
X195397380Y-127722380D02*
X195492619Y-127722380D01*
X195587857Y-127770000D01*
X195635476Y-127817619D01*
X195683095Y-127912857D01*
X195730714Y-128103333D01*
X195730714Y-128341428D01*
X195683095Y-128531904D01*
X195635476Y-128627142D01*
X195587857Y-128674761D01*
X195492619Y-128722380D01*
X195397380Y-128722380D01*
X195302142Y-128674761D01*
X195254523Y-128627142D01*
X195206904Y-128531904D01*
X195159285Y-128341428D01*
X195159285Y-128103333D01*
X195206904Y-127912857D01*
X195254523Y-127817619D01*
X195302142Y-127770000D01*
X195397380Y-127722380D01*
X196064047Y-127722380D02*
X196683095Y-127722380D01*
X196349761Y-128103333D01*
X196492619Y-128103333D01*
X196587857Y-128150952D01*
X196635476Y-128198571D01*
X196683095Y-128293809D01*
X196683095Y-128531904D01*
X196635476Y-128627142D01*
X196587857Y-128674761D01*
X196492619Y-128722380D01*
X196206904Y-128722380D01*
X196111666Y-128674761D01*
X196064047Y-128627142D01*
G04 #@! TO.C,R204*
X193825952Y-131642380D02*
X193492619Y-131166190D01*
X193254523Y-131642380D02*
X193254523Y-130642380D01*
X193635476Y-130642380D01*
X193730714Y-130690000D01*
X193778333Y-130737619D01*
X193825952Y-130832857D01*
X193825952Y-130975714D01*
X193778333Y-131070952D01*
X193730714Y-131118571D01*
X193635476Y-131166190D01*
X193254523Y-131166190D01*
X194206904Y-130737619D02*
X194254523Y-130690000D01*
X194349761Y-130642380D01*
X194587857Y-130642380D01*
X194683095Y-130690000D01*
X194730714Y-130737619D01*
X194778333Y-130832857D01*
X194778333Y-130928095D01*
X194730714Y-131070952D01*
X194159285Y-131642380D01*
X194778333Y-131642380D01*
X195397380Y-130642380D02*
X195492619Y-130642380D01*
X195587857Y-130690000D01*
X195635476Y-130737619D01*
X195683095Y-130832857D01*
X195730714Y-131023333D01*
X195730714Y-131261428D01*
X195683095Y-131451904D01*
X195635476Y-131547142D01*
X195587857Y-131594761D01*
X195492619Y-131642380D01*
X195397380Y-131642380D01*
X195302142Y-131594761D01*
X195254523Y-131547142D01*
X195206904Y-131451904D01*
X195159285Y-131261428D01*
X195159285Y-131023333D01*
X195206904Y-130832857D01*
X195254523Y-130737619D01*
X195302142Y-130690000D01*
X195397380Y-130642380D01*
X196587857Y-130975714D02*
X196587857Y-131642380D01*
X196349761Y-130594761D02*
X196111666Y-131309047D01*
X196730714Y-131309047D01*
G04 #@! TO.C,R301*
X159837380Y-105259047D02*
X159361190Y-105592380D01*
X159837380Y-105830476D02*
X158837380Y-105830476D01*
X158837380Y-105449523D01*
X158885000Y-105354285D01*
X158932619Y-105306666D01*
X159027857Y-105259047D01*
X159170714Y-105259047D01*
X159265952Y-105306666D01*
X159313571Y-105354285D01*
X159361190Y-105449523D01*
X159361190Y-105830476D01*
X158837380Y-104925714D02*
X158837380Y-104306666D01*
X159218333Y-104640000D01*
X159218333Y-104497142D01*
X159265952Y-104401904D01*
X159313571Y-104354285D01*
X159408809Y-104306666D01*
X159646904Y-104306666D01*
X159742142Y-104354285D01*
X159789761Y-104401904D01*
X159837380Y-104497142D01*
X159837380Y-104782857D01*
X159789761Y-104878095D01*
X159742142Y-104925714D01*
X158837380Y-103687619D02*
X158837380Y-103592380D01*
X158885000Y-103497142D01*
X158932619Y-103449523D01*
X159027857Y-103401904D01*
X159218333Y-103354285D01*
X159456428Y-103354285D01*
X159646904Y-103401904D01*
X159742142Y-103449523D01*
X159789761Y-103497142D01*
X159837380Y-103592380D01*
X159837380Y-103687619D01*
X159789761Y-103782857D01*
X159742142Y-103830476D01*
X159646904Y-103878095D01*
X159456428Y-103925714D01*
X159218333Y-103925714D01*
X159027857Y-103878095D01*
X158932619Y-103830476D01*
X158885000Y-103782857D01*
X158837380Y-103687619D01*
X159837380Y-102401904D02*
X159837380Y-102973333D01*
X159837380Y-102687619D02*
X158837380Y-102687619D01*
X158980238Y-102782857D01*
X159075476Y-102878095D01*
X159123095Y-102973333D01*
G04 #@! TO.C,R401*
X179267380Y-87479047D02*
X178791190Y-87812380D01*
X179267380Y-88050476D02*
X178267380Y-88050476D01*
X178267380Y-87669523D01*
X178315000Y-87574285D01*
X178362619Y-87526666D01*
X178457857Y-87479047D01*
X178600714Y-87479047D01*
X178695952Y-87526666D01*
X178743571Y-87574285D01*
X178791190Y-87669523D01*
X178791190Y-88050476D01*
X178600714Y-86621904D02*
X179267380Y-86621904D01*
X178219761Y-86860000D02*
X178934047Y-87098095D01*
X178934047Y-86479047D01*
X178267380Y-85907619D02*
X178267380Y-85812380D01*
X178315000Y-85717142D01*
X178362619Y-85669523D01*
X178457857Y-85621904D01*
X178648333Y-85574285D01*
X178886428Y-85574285D01*
X179076904Y-85621904D01*
X179172142Y-85669523D01*
X179219761Y-85717142D01*
X179267380Y-85812380D01*
X179267380Y-85907619D01*
X179219761Y-86002857D01*
X179172142Y-86050476D01*
X179076904Y-86098095D01*
X178886428Y-86145714D01*
X178648333Y-86145714D01*
X178457857Y-86098095D01*
X178362619Y-86050476D01*
X178315000Y-86002857D01*
X178267380Y-85907619D01*
X179267380Y-84621904D02*
X179267380Y-85193333D01*
X179267380Y-84907619D02*
X178267380Y-84907619D01*
X178410238Y-85002857D01*
X178505476Y-85098095D01*
X178553095Y-85193333D01*
G04 #@! TO.C,R402*
X183077380Y-87479047D02*
X182601190Y-87812380D01*
X183077380Y-88050476D02*
X182077380Y-88050476D01*
X182077380Y-87669523D01*
X182125000Y-87574285D01*
X182172619Y-87526666D01*
X182267857Y-87479047D01*
X182410714Y-87479047D01*
X182505952Y-87526666D01*
X182553571Y-87574285D01*
X182601190Y-87669523D01*
X182601190Y-88050476D01*
X182410714Y-86621904D02*
X183077380Y-86621904D01*
X182029761Y-86860000D02*
X182744047Y-87098095D01*
X182744047Y-86479047D01*
X182077380Y-85907619D02*
X182077380Y-85812380D01*
X182125000Y-85717142D01*
X182172619Y-85669523D01*
X182267857Y-85621904D01*
X182458333Y-85574285D01*
X182696428Y-85574285D01*
X182886904Y-85621904D01*
X182982142Y-85669523D01*
X183029761Y-85717142D01*
X183077380Y-85812380D01*
X183077380Y-85907619D01*
X183029761Y-86002857D01*
X182982142Y-86050476D01*
X182886904Y-86098095D01*
X182696428Y-86145714D01*
X182458333Y-86145714D01*
X182267857Y-86098095D01*
X182172619Y-86050476D01*
X182125000Y-86002857D01*
X182077380Y-85907619D01*
X182172619Y-85193333D02*
X182125000Y-85145714D01*
X182077380Y-85050476D01*
X182077380Y-84812380D01*
X182125000Y-84717142D01*
X182172619Y-84669523D01*
X182267857Y-84621904D01*
X182363095Y-84621904D01*
X182505952Y-84669523D01*
X183077380Y-85240952D01*
X183077380Y-84621904D01*
G04 #@! TO.C,R403*
X186887380Y-87479047D02*
X186411190Y-87812380D01*
X186887380Y-88050476D02*
X185887380Y-88050476D01*
X185887380Y-87669523D01*
X185935000Y-87574285D01*
X185982619Y-87526666D01*
X186077857Y-87479047D01*
X186220714Y-87479047D01*
X186315952Y-87526666D01*
X186363571Y-87574285D01*
X186411190Y-87669523D01*
X186411190Y-88050476D01*
X186220714Y-86621904D02*
X186887380Y-86621904D01*
X185839761Y-86860000D02*
X186554047Y-87098095D01*
X186554047Y-86479047D01*
X185887380Y-85907619D02*
X185887380Y-85812380D01*
X185935000Y-85717142D01*
X185982619Y-85669523D01*
X186077857Y-85621904D01*
X186268333Y-85574285D01*
X186506428Y-85574285D01*
X186696904Y-85621904D01*
X186792142Y-85669523D01*
X186839761Y-85717142D01*
X186887380Y-85812380D01*
X186887380Y-85907619D01*
X186839761Y-86002857D01*
X186792142Y-86050476D01*
X186696904Y-86098095D01*
X186506428Y-86145714D01*
X186268333Y-86145714D01*
X186077857Y-86098095D01*
X185982619Y-86050476D01*
X185935000Y-86002857D01*
X185887380Y-85907619D01*
X185887380Y-85240952D02*
X185887380Y-84621904D01*
X186268333Y-84955238D01*
X186268333Y-84812380D01*
X186315952Y-84717142D01*
X186363571Y-84669523D01*
X186458809Y-84621904D01*
X186696904Y-84621904D01*
X186792142Y-84669523D01*
X186839761Y-84717142D01*
X186887380Y-84812380D01*
X186887380Y-85098095D01*
X186839761Y-85193333D01*
X186792142Y-85240952D01*
G04 #@! TO.C,R404*
X191332380Y-87479047D02*
X190856190Y-87812380D01*
X191332380Y-88050476D02*
X190332380Y-88050476D01*
X190332380Y-87669523D01*
X190380000Y-87574285D01*
X190427619Y-87526666D01*
X190522857Y-87479047D01*
X190665714Y-87479047D01*
X190760952Y-87526666D01*
X190808571Y-87574285D01*
X190856190Y-87669523D01*
X190856190Y-88050476D01*
X190665714Y-86621904D02*
X191332380Y-86621904D01*
X190284761Y-86860000D02*
X190999047Y-87098095D01*
X190999047Y-86479047D01*
X190332380Y-85907619D02*
X190332380Y-85812380D01*
X190380000Y-85717142D01*
X190427619Y-85669523D01*
X190522857Y-85621904D01*
X190713333Y-85574285D01*
X190951428Y-85574285D01*
X191141904Y-85621904D01*
X191237142Y-85669523D01*
X191284761Y-85717142D01*
X191332380Y-85812380D01*
X191332380Y-85907619D01*
X191284761Y-86002857D01*
X191237142Y-86050476D01*
X191141904Y-86098095D01*
X190951428Y-86145714D01*
X190713333Y-86145714D01*
X190522857Y-86098095D01*
X190427619Y-86050476D01*
X190380000Y-86002857D01*
X190332380Y-85907619D01*
X190665714Y-84717142D02*
X191332380Y-84717142D01*
X190284761Y-84955238D02*
X190999047Y-85193333D01*
X190999047Y-84574285D01*
G04 #@! TO.C,R405*
X170965952Y-101797380D02*
X170632619Y-101321190D01*
X170394523Y-101797380D02*
X170394523Y-100797380D01*
X170775476Y-100797380D01*
X170870714Y-100845000D01*
X170918333Y-100892619D01*
X170965952Y-100987857D01*
X170965952Y-101130714D01*
X170918333Y-101225952D01*
X170870714Y-101273571D01*
X170775476Y-101321190D01*
X170394523Y-101321190D01*
X171823095Y-101130714D02*
X171823095Y-101797380D01*
X171585000Y-100749761D02*
X171346904Y-101464047D01*
X171965952Y-101464047D01*
X172537380Y-100797380D02*
X172632619Y-100797380D01*
X172727857Y-100845000D01*
X172775476Y-100892619D01*
X172823095Y-100987857D01*
X172870714Y-101178333D01*
X172870714Y-101416428D01*
X172823095Y-101606904D01*
X172775476Y-101702142D01*
X172727857Y-101749761D01*
X172632619Y-101797380D01*
X172537380Y-101797380D01*
X172442142Y-101749761D01*
X172394523Y-101702142D01*
X172346904Y-101606904D01*
X172299285Y-101416428D01*
X172299285Y-101178333D01*
X172346904Y-100987857D01*
X172394523Y-100892619D01*
X172442142Y-100845000D01*
X172537380Y-100797380D01*
X173775476Y-100797380D02*
X173299285Y-100797380D01*
X173251666Y-101273571D01*
X173299285Y-101225952D01*
X173394523Y-101178333D01*
X173632619Y-101178333D01*
X173727857Y-101225952D01*
X173775476Y-101273571D01*
X173823095Y-101368809D01*
X173823095Y-101606904D01*
X173775476Y-101702142D01*
X173727857Y-101749761D01*
X173632619Y-101797380D01*
X173394523Y-101797380D01*
X173299285Y-101749761D01*
X173251666Y-101702142D01*
G04 #@! TO.C,R406*
X179220952Y-101797380D02*
X178887619Y-101321190D01*
X178649523Y-101797380D02*
X178649523Y-100797380D01*
X179030476Y-100797380D01*
X179125714Y-100845000D01*
X179173333Y-100892619D01*
X179220952Y-100987857D01*
X179220952Y-101130714D01*
X179173333Y-101225952D01*
X179125714Y-101273571D01*
X179030476Y-101321190D01*
X178649523Y-101321190D01*
X180078095Y-101130714D02*
X180078095Y-101797380D01*
X179840000Y-100749761D02*
X179601904Y-101464047D01*
X180220952Y-101464047D01*
X180792380Y-100797380D02*
X180887619Y-100797380D01*
X180982857Y-100845000D01*
X181030476Y-100892619D01*
X181078095Y-100987857D01*
X181125714Y-101178333D01*
X181125714Y-101416428D01*
X181078095Y-101606904D01*
X181030476Y-101702142D01*
X180982857Y-101749761D01*
X180887619Y-101797380D01*
X180792380Y-101797380D01*
X180697142Y-101749761D01*
X180649523Y-101702142D01*
X180601904Y-101606904D01*
X180554285Y-101416428D01*
X180554285Y-101178333D01*
X180601904Y-100987857D01*
X180649523Y-100892619D01*
X180697142Y-100845000D01*
X180792380Y-100797380D01*
X181982857Y-100797380D02*
X181792380Y-100797380D01*
X181697142Y-100845000D01*
X181649523Y-100892619D01*
X181554285Y-101035476D01*
X181506666Y-101225952D01*
X181506666Y-101606904D01*
X181554285Y-101702142D01*
X181601904Y-101749761D01*
X181697142Y-101797380D01*
X181887619Y-101797380D01*
X181982857Y-101749761D01*
X182030476Y-101702142D01*
X182078095Y-101606904D01*
X182078095Y-101368809D01*
X182030476Y-101273571D01*
X181982857Y-101225952D01*
X181887619Y-101178333D01*
X181697142Y-101178333D01*
X181601904Y-101225952D01*
X181554285Y-101273571D01*
X181506666Y-101368809D01*
G04 #@! TO.C,R407*
X186840952Y-101797380D02*
X186507619Y-101321190D01*
X186269523Y-101797380D02*
X186269523Y-100797380D01*
X186650476Y-100797380D01*
X186745714Y-100845000D01*
X186793333Y-100892619D01*
X186840952Y-100987857D01*
X186840952Y-101130714D01*
X186793333Y-101225952D01*
X186745714Y-101273571D01*
X186650476Y-101321190D01*
X186269523Y-101321190D01*
X187698095Y-101130714D02*
X187698095Y-101797380D01*
X187460000Y-100749761D02*
X187221904Y-101464047D01*
X187840952Y-101464047D01*
X188412380Y-100797380D02*
X188507619Y-100797380D01*
X188602857Y-100845000D01*
X188650476Y-100892619D01*
X188698095Y-100987857D01*
X188745714Y-101178333D01*
X188745714Y-101416428D01*
X188698095Y-101606904D01*
X188650476Y-101702142D01*
X188602857Y-101749761D01*
X188507619Y-101797380D01*
X188412380Y-101797380D01*
X188317142Y-101749761D01*
X188269523Y-101702142D01*
X188221904Y-101606904D01*
X188174285Y-101416428D01*
X188174285Y-101178333D01*
X188221904Y-100987857D01*
X188269523Y-100892619D01*
X188317142Y-100845000D01*
X188412380Y-100797380D01*
X189079047Y-100797380D02*
X189745714Y-100797380D01*
X189317142Y-101797380D01*
G04 #@! TO.C,R408*
X194460952Y-101797380D02*
X194127619Y-101321190D01*
X193889523Y-101797380D02*
X193889523Y-100797380D01*
X194270476Y-100797380D01*
X194365714Y-100845000D01*
X194413333Y-100892619D01*
X194460952Y-100987857D01*
X194460952Y-101130714D01*
X194413333Y-101225952D01*
X194365714Y-101273571D01*
X194270476Y-101321190D01*
X193889523Y-101321190D01*
X195318095Y-101130714D02*
X195318095Y-101797380D01*
X195080000Y-100749761D02*
X194841904Y-101464047D01*
X195460952Y-101464047D01*
X196032380Y-100797380D02*
X196127619Y-100797380D01*
X196222857Y-100845000D01*
X196270476Y-100892619D01*
X196318095Y-100987857D01*
X196365714Y-101178333D01*
X196365714Y-101416428D01*
X196318095Y-101606904D01*
X196270476Y-101702142D01*
X196222857Y-101749761D01*
X196127619Y-101797380D01*
X196032380Y-101797380D01*
X195937142Y-101749761D01*
X195889523Y-101702142D01*
X195841904Y-101606904D01*
X195794285Y-101416428D01*
X195794285Y-101178333D01*
X195841904Y-100987857D01*
X195889523Y-100892619D01*
X195937142Y-100845000D01*
X196032380Y-100797380D01*
X196937142Y-101225952D02*
X196841904Y-101178333D01*
X196794285Y-101130714D01*
X196746666Y-101035476D01*
X196746666Y-100987857D01*
X196794285Y-100892619D01*
X196841904Y-100845000D01*
X196937142Y-100797380D01*
X197127619Y-100797380D01*
X197222857Y-100845000D01*
X197270476Y-100892619D01*
X197318095Y-100987857D01*
X197318095Y-101035476D01*
X197270476Y-101130714D01*
X197222857Y-101178333D01*
X197127619Y-101225952D01*
X196937142Y-101225952D01*
X196841904Y-101273571D01*
X196794285Y-101321190D01*
X196746666Y-101416428D01*
X196746666Y-101606904D01*
X196794285Y-101702142D01*
X196841904Y-101749761D01*
X196937142Y-101797380D01*
X197127619Y-101797380D01*
X197222857Y-101749761D01*
X197270476Y-101702142D01*
X197318095Y-101606904D01*
X197318095Y-101416428D01*
X197270476Y-101321190D01*
X197222857Y-101273571D01*
X197127619Y-101225952D01*
G04 #@! TO.C,R501*
X132230952Y-95702380D02*
X131897619Y-95226190D01*
X131659523Y-95702380D02*
X131659523Y-94702380D01*
X132040476Y-94702380D01*
X132135714Y-94750000D01*
X132183333Y-94797619D01*
X132230952Y-94892857D01*
X132230952Y-95035714D01*
X132183333Y-95130952D01*
X132135714Y-95178571D01*
X132040476Y-95226190D01*
X131659523Y-95226190D01*
X133135714Y-94702380D02*
X132659523Y-94702380D01*
X132611904Y-95178571D01*
X132659523Y-95130952D01*
X132754761Y-95083333D01*
X132992857Y-95083333D01*
X133088095Y-95130952D01*
X133135714Y-95178571D01*
X133183333Y-95273809D01*
X133183333Y-95511904D01*
X133135714Y-95607142D01*
X133088095Y-95654761D01*
X132992857Y-95702380D01*
X132754761Y-95702380D01*
X132659523Y-95654761D01*
X132611904Y-95607142D01*
X133802380Y-94702380D02*
X133897619Y-94702380D01*
X133992857Y-94750000D01*
X134040476Y-94797619D01*
X134088095Y-94892857D01*
X134135714Y-95083333D01*
X134135714Y-95321428D01*
X134088095Y-95511904D01*
X134040476Y-95607142D01*
X133992857Y-95654761D01*
X133897619Y-95702380D01*
X133802380Y-95702380D01*
X133707142Y-95654761D01*
X133659523Y-95607142D01*
X133611904Y-95511904D01*
X133564285Y-95321428D01*
X133564285Y-95083333D01*
X133611904Y-94892857D01*
X133659523Y-94797619D01*
X133707142Y-94750000D01*
X133802380Y-94702380D01*
X135088095Y-95702380D02*
X134516666Y-95702380D01*
X134802380Y-95702380D02*
X134802380Y-94702380D01*
X134707142Y-94845238D01*
X134611904Y-94940476D01*
X134516666Y-94988095D01*
G04 #@! TO.C,RN601*
X148217142Y-98877380D02*
X147883809Y-98401190D01*
X147645714Y-98877380D02*
X147645714Y-97877380D01*
X148026666Y-97877380D01*
X148121904Y-97925000D01*
X148169523Y-97972619D01*
X148217142Y-98067857D01*
X148217142Y-98210714D01*
X148169523Y-98305952D01*
X148121904Y-98353571D01*
X148026666Y-98401190D01*
X147645714Y-98401190D01*
X148645714Y-98877380D02*
X148645714Y-97877380D01*
X149217142Y-98877380D01*
X149217142Y-97877380D01*
X150121904Y-97877380D02*
X149931428Y-97877380D01*
X149836190Y-97925000D01*
X149788571Y-97972619D01*
X149693333Y-98115476D01*
X149645714Y-98305952D01*
X149645714Y-98686904D01*
X149693333Y-98782142D01*
X149740952Y-98829761D01*
X149836190Y-98877380D01*
X150026666Y-98877380D01*
X150121904Y-98829761D01*
X150169523Y-98782142D01*
X150217142Y-98686904D01*
X150217142Y-98448809D01*
X150169523Y-98353571D01*
X150121904Y-98305952D01*
X150026666Y-98258333D01*
X149836190Y-98258333D01*
X149740952Y-98305952D01*
X149693333Y-98353571D01*
X149645714Y-98448809D01*
X150836190Y-97877380D02*
X150931428Y-97877380D01*
X151026666Y-97925000D01*
X151074285Y-97972619D01*
X151121904Y-98067857D01*
X151169523Y-98258333D01*
X151169523Y-98496428D01*
X151121904Y-98686904D01*
X151074285Y-98782142D01*
X151026666Y-98829761D01*
X150931428Y-98877380D01*
X150836190Y-98877380D01*
X150740952Y-98829761D01*
X150693333Y-98782142D01*
X150645714Y-98686904D01*
X150598095Y-98496428D01*
X150598095Y-98258333D01*
X150645714Y-98067857D01*
X150693333Y-97972619D01*
X150740952Y-97925000D01*
X150836190Y-97877380D01*
X152121904Y-98877380D02*
X151550476Y-98877380D01*
X151836190Y-98877380D02*
X151836190Y-97877380D01*
X151740952Y-98020238D01*
X151645714Y-98115476D01*
X151550476Y-98163095D01*
G04 #@! TO.C,RN602*
X148217142Y-97607380D02*
X147883809Y-97131190D01*
X147645714Y-97607380D02*
X147645714Y-96607380D01*
X148026666Y-96607380D01*
X148121904Y-96655000D01*
X148169523Y-96702619D01*
X148217142Y-96797857D01*
X148217142Y-96940714D01*
X148169523Y-97035952D01*
X148121904Y-97083571D01*
X148026666Y-97131190D01*
X147645714Y-97131190D01*
X148645714Y-97607380D02*
X148645714Y-96607380D01*
X149217142Y-97607380D01*
X149217142Y-96607380D01*
X150121904Y-96607380D02*
X149931428Y-96607380D01*
X149836190Y-96655000D01*
X149788571Y-96702619D01*
X149693333Y-96845476D01*
X149645714Y-97035952D01*
X149645714Y-97416904D01*
X149693333Y-97512142D01*
X149740952Y-97559761D01*
X149836190Y-97607380D01*
X150026666Y-97607380D01*
X150121904Y-97559761D01*
X150169523Y-97512142D01*
X150217142Y-97416904D01*
X150217142Y-97178809D01*
X150169523Y-97083571D01*
X150121904Y-97035952D01*
X150026666Y-96988333D01*
X149836190Y-96988333D01*
X149740952Y-97035952D01*
X149693333Y-97083571D01*
X149645714Y-97178809D01*
X150836190Y-96607380D02*
X150931428Y-96607380D01*
X151026666Y-96655000D01*
X151074285Y-96702619D01*
X151121904Y-96797857D01*
X151169523Y-96988333D01*
X151169523Y-97226428D01*
X151121904Y-97416904D01*
X151074285Y-97512142D01*
X151026666Y-97559761D01*
X150931428Y-97607380D01*
X150836190Y-97607380D01*
X150740952Y-97559761D01*
X150693333Y-97512142D01*
X150645714Y-97416904D01*
X150598095Y-97226428D01*
X150598095Y-96988333D01*
X150645714Y-96797857D01*
X150693333Y-96702619D01*
X150740952Y-96655000D01*
X150836190Y-96607380D01*
X151550476Y-96702619D02*
X151598095Y-96655000D01*
X151693333Y-96607380D01*
X151931428Y-96607380D01*
X152026666Y-96655000D01*
X152074285Y-96702619D01*
X152121904Y-96797857D01*
X152121904Y-96893095D01*
X152074285Y-97035952D01*
X151502857Y-97607380D01*
X152121904Y-97607380D01*
G04 #@! TO.C,RN603*
X119007142Y-98877380D02*
X118673809Y-98401190D01*
X118435714Y-98877380D02*
X118435714Y-97877380D01*
X118816666Y-97877380D01*
X118911904Y-97925000D01*
X118959523Y-97972619D01*
X119007142Y-98067857D01*
X119007142Y-98210714D01*
X118959523Y-98305952D01*
X118911904Y-98353571D01*
X118816666Y-98401190D01*
X118435714Y-98401190D01*
X119435714Y-98877380D02*
X119435714Y-97877380D01*
X120007142Y-98877380D01*
X120007142Y-97877380D01*
X120911904Y-97877380D02*
X120721428Y-97877380D01*
X120626190Y-97925000D01*
X120578571Y-97972619D01*
X120483333Y-98115476D01*
X120435714Y-98305952D01*
X120435714Y-98686904D01*
X120483333Y-98782142D01*
X120530952Y-98829761D01*
X120626190Y-98877380D01*
X120816666Y-98877380D01*
X120911904Y-98829761D01*
X120959523Y-98782142D01*
X121007142Y-98686904D01*
X121007142Y-98448809D01*
X120959523Y-98353571D01*
X120911904Y-98305952D01*
X120816666Y-98258333D01*
X120626190Y-98258333D01*
X120530952Y-98305952D01*
X120483333Y-98353571D01*
X120435714Y-98448809D01*
X121626190Y-97877380D02*
X121721428Y-97877380D01*
X121816666Y-97925000D01*
X121864285Y-97972619D01*
X121911904Y-98067857D01*
X121959523Y-98258333D01*
X121959523Y-98496428D01*
X121911904Y-98686904D01*
X121864285Y-98782142D01*
X121816666Y-98829761D01*
X121721428Y-98877380D01*
X121626190Y-98877380D01*
X121530952Y-98829761D01*
X121483333Y-98782142D01*
X121435714Y-98686904D01*
X121388095Y-98496428D01*
X121388095Y-98258333D01*
X121435714Y-98067857D01*
X121483333Y-97972619D01*
X121530952Y-97925000D01*
X121626190Y-97877380D01*
X122292857Y-97877380D02*
X122911904Y-97877380D01*
X122578571Y-98258333D01*
X122721428Y-98258333D01*
X122816666Y-98305952D01*
X122864285Y-98353571D01*
X122911904Y-98448809D01*
X122911904Y-98686904D01*
X122864285Y-98782142D01*
X122816666Y-98829761D01*
X122721428Y-98877380D01*
X122435714Y-98877380D01*
X122340476Y-98829761D01*
X122292857Y-98782142D01*
G04 #@! TO.C,RN604*
X119007142Y-97607380D02*
X118673809Y-97131190D01*
X118435714Y-97607380D02*
X118435714Y-96607380D01*
X118816666Y-96607380D01*
X118911904Y-96655000D01*
X118959523Y-96702619D01*
X119007142Y-96797857D01*
X119007142Y-96940714D01*
X118959523Y-97035952D01*
X118911904Y-97083571D01*
X118816666Y-97131190D01*
X118435714Y-97131190D01*
X119435714Y-97607380D02*
X119435714Y-96607380D01*
X120007142Y-97607380D01*
X120007142Y-96607380D01*
X120911904Y-96607380D02*
X120721428Y-96607380D01*
X120626190Y-96655000D01*
X120578571Y-96702619D01*
X120483333Y-96845476D01*
X120435714Y-97035952D01*
X120435714Y-97416904D01*
X120483333Y-97512142D01*
X120530952Y-97559761D01*
X120626190Y-97607380D01*
X120816666Y-97607380D01*
X120911904Y-97559761D01*
X120959523Y-97512142D01*
X121007142Y-97416904D01*
X121007142Y-97178809D01*
X120959523Y-97083571D01*
X120911904Y-97035952D01*
X120816666Y-96988333D01*
X120626190Y-96988333D01*
X120530952Y-97035952D01*
X120483333Y-97083571D01*
X120435714Y-97178809D01*
X121626190Y-96607380D02*
X121721428Y-96607380D01*
X121816666Y-96655000D01*
X121864285Y-96702619D01*
X121911904Y-96797857D01*
X121959523Y-96988333D01*
X121959523Y-97226428D01*
X121911904Y-97416904D01*
X121864285Y-97512142D01*
X121816666Y-97559761D01*
X121721428Y-97607380D01*
X121626190Y-97607380D01*
X121530952Y-97559761D01*
X121483333Y-97512142D01*
X121435714Y-97416904D01*
X121388095Y-97226428D01*
X121388095Y-96988333D01*
X121435714Y-96797857D01*
X121483333Y-96702619D01*
X121530952Y-96655000D01*
X121626190Y-96607380D01*
X122816666Y-96940714D02*
X122816666Y-97607380D01*
X122578571Y-96559761D02*
X122340476Y-97274047D01*
X122959523Y-97274047D01*
G04 #@! TO.C,TP201*
X161615714Y-116927380D02*
X162187142Y-116927380D01*
X161901428Y-117927380D02*
X161901428Y-116927380D01*
X162520476Y-117927380D02*
X162520476Y-116927380D01*
X162901428Y-116927380D01*
X162996666Y-116975000D01*
X163044285Y-117022619D01*
X163091904Y-117117857D01*
X163091904Y-117260714D01*
X163044285Y-117355952D01*
X162996666Y-117403571D01*
X162901428Y-117451190D01*
X162520476Y-117451190D01*
X163472857Y-117022619D02*
X163520476Y-116975000D01*
X163615714Y-116927380D01*
X163853809Y-116927380D01*
X163949047Y-116975000D01*
X163996666Y-117022619D01*
X164044285Y-117117857D01*
X164044285Y-117213095D01*
X163996666Y-117355952D01*
X163425238Y-117927380D01*
X164044285Y-117927380D01*
X164663333Y-116927380D02*
X164758571Y-116927380D01*
X164853809Y-116975000D01*
X164901428Y-117022619D01*
X164949047Y-117117857D01*
X164996666Y-117308333D01*
X164996666Y-117546428D01*
X164949047Y-117736904D01*
X164901428Y-117832142D01*
X164853809Y-117879761D01*
X164758571Y-117927380D01*
X164663333Y-117927380D01*
X164568095Y-117879761D01*
X164520476Y-117832142D01*
X164472857Y-117736904D01*
X164425238Y-117546428D01*
X164425238Y-117308333D01*
X164472857Y-117117857D01*
X164520476Y-117022619D01*
X164568095Y-116975000D01*
X164663333Y-116927380D01*
X165949047Y-117927380D02*
X165377619Y-117927380D01*
X165663333Y-117927380D02*
X165663333Y-116927380D01*
X165568095Y-117070238D01*
X165472857Y-117165476D01*
X165377619Y-117213095D01*
G04 #@! TO.C,U201*
X178522380Y-123634285D02*
X179331904Y-123634285D01*
X179427142Y-123586666D01*
X179474761Y-123539047D01*
X179522380Y-123443809D01*
X179522380Y-123253333D01*
X179474761Y-123158095D01*
X179427142Y-123110476D01*
X179331904Y-123062857D01*
X178522380Y-123062857D01*
X178617619Y-122634285D02*
X178570000Y-122586666D01*
X178522380Y-122491428D01*
X178522380Y-122253333D01*
X178570000Y-122158095D01*
X178617619Y-122110476D01*
X178712857Y-122062857D01*
X178808095Y-122062857D01*
X178950952Y-122110476D01*
X179522380Y-122681904D01*
X179522380Y-122062857D01*
X178522380Y-121443809D02*
X178522380Y-121348571D01*
X178570000Y-121253333D01*
X178617619Y-121205714D01*
X178712857Y-121158095D01*
X178903333Y-121110476D01*
X179141428Y-121110476D01*
X179331904Y-121158095D01*
X179427142Y-121205714D01*
X179474761Y-121253333D01*
X179522380Y-121348571D01*
X179522380Y-121443809D01*
X179474761Y-121539047D01*
X179427142Y-121586666D01*
X179331904Y-121634285D01*
X179141428Y-121681904D01*
X178903333Y-121681904D01*
X178712857Y-121634285D01*
X178617619Y-121586666D01*
X178570000Y-121539047D01*
X178522380Y-121443809D01*
X179522380Y-120158095D02*
X179522380Y-120729523D01*
X179522380Y-120443809D02*
X178522380Y-120443809D01*
X178665238Y-120539047D01*
X178760476Y-120634285D01*
X178808095Y-120729523D01*
G04 #@! TO.C,U301*
X151955714Y-108037380D02*
X151955714Y-108846904D01*
X152003333Y-108942142D01*
X152050952Y-108989761D01*
X152146190Y-109037380D01*
X152336666Y-109037380D01*
X152431904Y-108989761D01*
X152479523Y-108942142D01*
X152527142Y-108846904D01*
X152527142Y-108037380D01*
X152908095Y-108037380D02*
X153527142Y-108037380D01*
X153193809Y-108418333D01*
X153336666Y-108418333D01*
X153431904Y-108465952D01*
X153479523Y-108513571D01*
X153527142Y-108608809D01*
X153527142Y-108846904D01*
X153479523Y-108942142D01*
X153431904Y-108989761D01*
X153336666Y-109037380D01*
X153050952Y-109037380D01*
X152955714Y-108989761D01*
X152908095Y-108942142D01*
X154146190Y-108037380D02*
X154241428Y-108037380D01*
X154336666Y-108085000D01*
X154384285Y-108132619D01*
X154431904Y-108227857D01*
X154479523Y-108418333D01*
X154479523Y-108656428D01*
X154431904Y-108846904D01*
X154384285Y-108942142D01*
X154336666Y-108989761D01*
X154241428Y-109037380D01*
X154146190Y-109037380D01*
X154050952Y-108989761D01*
X154003333Y-108942142D01*
X153955714Y-108846904D01*
X153908095Y-108656428D01*
X153908095Y-108418333D01*
X153955714Y-108227857D01*
X154003333Y-108132619D01*
X154050952Y-108085000D01*
X154146190Y-108037380D01*
X155431904Y-109037380D02*
X154860476Y-109037380D01*
X155146190Y-109037380D02*
X155146190Y-108037380D01*
X155050952Y-108180238D01*
X154955714Y-108275476D01*
X154860476Y-108323095D01*
G04 #@! TO.C,U501*
X130365714Y-109842380D02*
X130365714Y-110651904D01*
X130413333Y-110747142D01*
X130460952Y-110794761D01*
X130556190Y-110842380D01*
X130746666Y-110842380D01*
X130841904Y-110794761D01*
X130889523Y-110747142D01*
X130937142Y-110651904D01*
X130937142Y-109842380D01*
X131889523Y-109842380D02*
X131413333Y-109842380D01*
X131365714Y-110318571D01*
X131413333Y-110270952D01*
X131508571Y-110223333D01*
X131746666Y-110223333D01*
X131841904Y-110270952D01*
X131889523Y-110318571D01*
X131937142Y-110413809D01*
X131937142Y-110651904D01*
X131889523Y-110747142D01*
X131841904Y-110794761D01*
X131746666Y-110842380D01*
X131508571Y-110842380D01*
X131413333Y-110794761D01*
X131365714Y-110747142D01*
X132556190Y-109842380D02*
X132651428Y-109842380D01*
X132746666Y-109890000D01*
X132794285Y-109937619D01*
X132841904Y-110032857D01*
X132889523Y-110223333D01*
X132889523Y-110461428D01*
X132841904Y-110651904D01*
X132794285Y-110747142D01*
X132746666Y-110794761D01*
X132651428Y-110842380D01*
X132556190Y-110842380D01*
X132460952Y-110794761D01*
X132413333Y-110747142D01*
X132365714Y-110651904D01*
X132318095Y-110461428D01*
X132318095Y-110223333D01*
X132365714Y-110032857D01*
X132413333Y-109937619D01*
X132460952Y-109890000D01*
X132556190Y-109842380D01*
X133841904Y-110842380D02*
X133270476Y-110842380D01*
X133556190Y-110842380D02*
X133556190Y-109842380D01*
X133460952Y-109985238D01*
X133365714Y-110080476D01*
X133270476Y-110128095D01*
G04 #@! TO.C,U502*
X110045714Y-109842380D02*
X110045714Y-110651904D01*
X110093333Y-110747142D01*
X110140952Y-110794761D01*
X110236190Y-110842380D01*
X110426666Y-110842380D01*
X110521904Y-110794761D01*
X110569523Y-110747142D01*
X110617142Y-110651904D01*
X110617142Y-109842380D01*
X111569523Y-109842380D02*
X111093333Y-109842380D01*
X111045714Y-110318571D01*
X111093333Y-110270952D01*
X111188571Y-110223333D01*
X111426666Y-110223333D01*
X111521904Y-110270952D01*
X111569523Y-110318571D01*
X111617142Y-110413809D01*
X111617142Y-110651904D01*
X111569523Y-110747142D01*
X111521904Y-110794761D01*
X111426666Y-110842380D01*
X111188571Y-110842380D01*
X111093333Y-110794761D01*
X111045714Y-110747142D01*
X112236190Y-109842380D02*
X112331428Y-109842380D01*
X112426666Y-109890000D01*
X112474285Y-109937619D01*
X112521904Y-110032857D01*
X112569523Y-110223333D01*
X112569523Y-110461428D01*
X112521904Y-110651904D01*
X112474285Y-110747142D01*
X112426666Y-110794761D01*
X112331428Y-110842380D01*
X112236190Y-110842380D01*
X112140952Y-110794761D01*
X112093333Y-110747142D01*
X112045714Y-110651904D01*
X111998095Y-110461428D01*
X111998095Y-110223333D01*
X112045714Y-110032857D01*
X112093333Y-109937619D01*
X112140952Y-109890000D01*
X112236190Y-109842380D01*
X112950476Y-109937619D02*
X112998095Y-109890000D01*
X113093333Y-109842380D01*
X113331428Y-109842380D01*
X113426666Y-109890000D01*
X113474285Y-109937619D01*
X113521904Y-110032857D01*
X113521904Y-110128095D01*
X113474285Y-110270952D01*
X112902857Y-110842380D01*
X113521904Y-110842380D01*
G04 #@! TO.C,U701*
X164020714Y-71842380D02*
X164020714Y-72651904D01*
X164068333Y-72747142D01*
X164115952Y-72794761D01*
X164211190Y-72842380D01*
X164401666Y-72842380D01*
X164496904Y-72794761D01*
X164544523Y-72747142D01*
X164592142Y-72651904D01*
X164592142Y-71842380D01*
X164973095Y-71842380D02*
X165639761Y-71842380D01*
X165211190Y-72842380D01*
X166211190Y-71842380D02*
X166306428Y-71842380D01*
X166401666Y-71890000D01*
X166449285Y-71937619D01*
X166496904Y-72032857D01*
X166544523Y-72223333D01*
X166544523Y-72461428D01*
X166496904Y-72651904D01*
X166449285Y-72747142D01*
X166401666Y-72794761D01*
X166306428Y-72842380D01*
X166211190Y-72842380D01*
X166115952Y-72794761D01*
X166068333Y-72747142D01*
X166020714Y-72651904D01*
X165973095Y-72461428D01*
X165973095Y-72223333D01*
X166020714Y-72032857D01*
X166068333Y-71937619D01*
X166115952Y-71890000D01*
X166211190Y-71842380D01*
X167496904Y-72842380D02*
X166925476Y-72842380D01*
X167211190Y-72842380D02*
X167211190Y-71842380D01*
X167115952Y-71985238D01*
X167020714Y-72080476D01*
X166925476Y-72128095D01*
G04 #@! TO.C,Y201*
X198096190Y-121033572D02*
X198572380Y-121033572D01*
X197572380Y-121366905D02*
X198096190Y-121033572D01*
X197572380Y-120700239D01*
X197667619Y-120414524D02*
X197620000Y-120366905D01*
X197572380Y-120271667D01*
X197572380Y-120033572D01*
X197620000Y-119938334D01*
X197667619Y-119890715D01*
X197762857Y-119843096D01*
X197858095Y-119843096D01*
X198000952Y-119890715D01*
X198572380Y-120462143D01*
X198572380Y-119843096D01*
X197572380Y-119224048D02*
X197572380Y-119128810D01*
X197620000Y-119033572D01*
X197667619Y-118985953D01*
X197762857Y-118938334D01*
X197953333Y-118890715D01*
X198191428Y-118890715D01*
X198381904Y-118938334D01*
X198477142Y-118985953D01*
X198524761Y-119033572D01*
X198572380Y-119128810D01*
X198572380Y-119224048D01*
X198524761Y-119319286D01*
X198477142Y-119366905D01*
X198381904Y-119414524D01*
X198191428Y-119462143D01*
X197953333Y-119462143D01*
X197762857Y-119414524D01*
X197667619Y-119366905D01*
X197620000Y-119319286D01*
X197572380Y-119224048D01*
X198572380Y-117938334D02*
X198572380Y-118509762D01*
X198572380Y-118224048D02*
X197572380Y-118224048D01*
X197715238Y-118319286D01*
X197810476Y-118414524D01*
X197858095Y-118509762D01*
G04 #@! TD*
M02*
