M48
;DRILL file {KiCad (5.0.0)} date 10/09/18 09:06:17
;FORMAT={-:-/ absolute / inch / decimal}
FMAT,2
INCH,TZ
T1C0.0157
T2C0.0315
T3C0.0394
T4C0.0400
T5C0.0551
T6C0.1260
%
G90
G05
M72
T1
X4.35Y-4.025
X4.4517Y-3.9983
X4.4795Y-3.9705
X4.625Y-3.9
X4.65Y-4.275
X4.675Y-4.025
X4.7194Y-4.1902
X4.7243Y-4.0943
X4.725Y-3.9
X4.726Y-4.1514
X4.775Y-4.175
X5.05Y-5.
X5.1341Y-4.
X5.15Y-3.925
X5.15Y-4.975
X5.175Y-4.
X5.2Y-3.875
X5.2Y-5.
X5.275Y-3.9
X5.425Y-2.65
X5.45Y-3.925
X5.5Y-2.6785
X5.5Y-3.875
X5.5Y-4.05
X5.55Y-4.35
X5.725Y-5.275
X5.7297Y-5.2002
X5.775Y-4.2
X5.775Y-4.525
X5.775Y-5.3
X5.7774Y-5.2075
X5.825Y-5.325
X5.8298Y-5.2148
X5.875Y-5.35
X5.8783Y-5.2208
X5.925Y-5.375
X5.9255Y-5.223
X5.95Y-4.1
X5.975Y-4.475
X5.975Y-5.225
X5.975Y-5.4
X6.025Y-4.025
X6.025Y-5.225
X6.0743Y-5.1257
X6.075Y-4.775
X6.125Y-4.075
X6.125Y-4.475
X6.225Y-4.2878
X6.275Y-2.7071
X6.35Y-4.225
X6.35Y-4.9
X6.3785Y-4.75
X6.45Y-2.825
X6.45Y-4.35
X6.525Y-2.825
X6.55Y-2.6785
X6.55Y-4.15
X6.55Y-4.575
X6.55Y-4.675
X6.55Y-4.675
X6.55Y-4.95
X6.5577Y-4.7923
X6.575Y-4.325
X6.6215Y-2.6778
X6.6349Y-4.6629
X6.65Y-2.65
X6.65Y-3.1
X6.65Y-4.
X6.65Y-4.775
X6.65Y-4.9285
X6.675Y-4.525
X6.7Y-2.6285
X6.7Y-3.1
X6.7Y-5.175
X6.725Y-5.025
X6.775Y-2.6
X6.8Y-3.575
X6.85Y-4.3
X6.85Y-4.45
X6.85Y-4.65
X6.85Y-4.7
X6.85Y-4.75
X6.85Y-4.8
X6.85Y-4.9965
X6.9Y-4.625
X6.9215Y-4.225
X6.95Y-4.6
X6.9699Y-5.1933
X6.975Y-4.
X6.975Y-5.3
X6.9965Y-4.425
X7.Y-4.6
X7.025Y-4.3
X7.0429Y-4.225
X7.05Y-4.6
X7.05Y-4.65
X7.1Y-4.3
X7.125Y-3.575
X7.125Y-4.65
X7.125Y-5.25
X7.1398Y-5.2
X7.15Y-4.6
X7.175Y-4.225
X7.175Y-4.3
X7.175Y-4.65
X7.2Y-5.225
X7.2465Y-4.3
X7.275Y-4.
X7.275Y-5.225
X7.3035Y-4.4
X7.325Y-4.575
X7.4Y-4.9
X7.4096Y-4.7154
X7.425Y-3.575
X7.425Y-4.55
X7.45Y-5.05
X7.5489Y-4.7
X7.5489Y-5.0511
X7.575Y-4.
X7.725Y-3.575
X7.75Y-4.525
X7.75Y-5.1
T2
X5.475Y-3.6
X5.575Y-3.6
X5.675Y-3.6
X5.775Y-3.6
X5.875Y-3.6
X5.975Y-3.6
X6.075Y-3.6
X6.175Y-3.6
X6.275Y-3.6
X6.375Y-3.6
X4.15Y-3.6
X4.25Y-3.6
X4.35Y-3.6
X4.45Y-3.6
X4.55Y-3.6
X4.65Y-3.6
X4.75Y-3.6
X4.85Y-3.6
X4.95Y-3.6
X5.05Y-3.6
X5.475Y-3.725
X5.575Y-3.725
X5.675Y-3.725
X5.775Y-3.725
X5.875Y-3.725
X5.975Y-3.725
X6.075Y-3.725
X6.175Y-3.725
X6.275Y-3.725
X6.375Y-3.725
X4.15Y-3.725
X4.25Y-3.725
X4.35Y-3.725
X4.45Y-3.725
X4.55Y-3.725
X4.65Y-3.725
X4.75Y-3.725
X4.85Y-3.725
X4.95Y-3.725
X5.05Y-3.725
T3
X4.425Y-2.975
X4.4795Y-2.8632
X4.5341Y-2.975
X4.5886Y-2.8632
X4.6431Y-2.975
X4.6976Y-2.8632
X4.7522Y-2.975
X4.8067Y-2.8632
X4.8612Y-2.975
X4.9157Y-2.8632
X4.9703Y-2.975
X5.0248Y-2.8632
X5.0793Y-2.975
X5.1339Y-2.8632
X5.1884Y-2.975
X5.2429Y-2.8632
X5.2974Y-2.975
X5.352Y-2.8632
X5.4065Y-2.975
X5.461Y-2.8632
X5.5156Y-2.975
X5.5701Y-2.8632
X5.6246Y-2.975
X5.6791Y-2.8632
X5.7337Y-2.975
X7.725Y-3.05
X7.725Y-3.15
T4
X4.225Y-5.075
X4.225Y-5.175
X4.325Y-5.075
X4.325Y-5.175
X4.425Y-5.075
X4.425Y-5.175
X4.525Y-5.075
X4.525Y-5.175
X4.625Y-5.075
X4.625Y-5.175
X4.725Y-5.075
X4.725Y-5.175
X4.825Y-5.075
X4.825Y-5.175
X4.925Y-5.075
X4.925Y-5.175
X5.025Y-5.075
X5.025Y-5.175
X5.125Y-5.075
X5.125Y-5.175
X5.225Y-5.075
X5.225Y-5.175
X5.325Y-5.075
X5.325Y-5.175
X5.425Y-5.075
X5.425Y-5.175
X5.525Y-5.075
X5.525Y-5.175
X5.625Y-5.075
X5.625Y-5.175
X5.725Y-5.075
X5.725Y-5.175
X5.825Y-5.075
X5.825Y-5.175
X5.925Y-5.075
X5.925Y-5.175
X6.025Y-5.075
X6.025Y-5.175
X6.125Y-5.075
X6.125Y-5.175
X4.25Y-3.275
X4.25Y-3.375
X4.35Y-3.275
X4.35Y-3.375
X4.45Y-3.275
X4.45Y-3.375
X4.55Y-3.275
X4.55Y-3.375
X4.65Y-3.275
X4.65Y-3.375
X4.75Y-3.275
X4.75Y-3.375
X4.85Y-3.275
X4.85Y-3.375
X4.95Y-3.275
X4.95Y-3.375
X5.05Y-3.275
X5.05Y-3.375
X5.15Y-3.275
X5.15Y-3.375
X5.25Y-3.275
X5.25Y-3.375
X5.35Y-3.275
X5.35Y-3.375
X5.45Y-3.275
X5.45Y-3.375
X5.55Y-3.275
X5.55Y-3.375
X5.65Y-3.275
X5.65Y-3.375
X5.75Y-3.275
X5.75Y-3.375
X5.85Y-3.275
X5.85Y-3.375
X5.95Y-3.275
X5.95Y-3.375
X6.05Y-3.275
X6.05Y-3.375
X6.15Y-3.275
X6.15Y-3.375
X6.25Y-3.275
X6.25Y-3.375
X6.35Y-3.275
X6.35Y-3.375
X6.45Y-3.275
X6.45Y-3.375
X6.55Y-3.275
X6.55Y-3.375
X6.65Y-3.275
X6.65Y-3.375
T5
X6.9797Y-3.0484
X7.0781Y-2.6547
X7.0781Y-3.1469
X7.275Y-3.0484
X7.275Y-3.2453
X7.4719Y-2.6547
X7.4719Y-3.1469
X7.5703Y-3.0484
T6
X4.1522Y-2.9191
X6.0065Y-2.9191
T0
M30
